<svg width="60" height="61" viewBox="0 0 60 61" fill="none" xmlns="http://www.w3.org/2000/svg">
<mask id="mask0_1_1214" style="mask-type:alpha" maskUnits="userSpaceOnUse" x="15" y="15" width="30" height="31">
<rect x="15" y="15.5" width="30" height="30" fill="#D9D9D9"/>
</mask>
<g mask="url(#mask0_1_1214)">
<path d="M42.5 37.376L37.5 32.376V34.4697L23.5312 20.501H35C35.6875 20.501 36.276 20.7458 36.7656 21.2354C37.2552 21.7249 37.5 22.3135 37.5 23.001V28.626L42.5 23.626V37.376ZM40.6875 44.6885L15.8125 19.8135L17.5625 18.0635L42.4375 42.9385L40.6875 44.6885ZM20 20.501L37.5 38.001C37.5 38.6885 37.2552 39.277 36.7656 39.7666C36.276 40.2562 35.6875 40.501 35 40.501H20C19.3125 40.501 18.724 40.2562 18.2344 39.7666C17.7448 39.277 17.5 38.6885 17.5 38.001V23.001C17.5 22.3135 17.7448 21.7249 18.2344 21.2354C18.724 20.7458 19.3125 20.501 20 20.501Z" fill="white"/>
</g>
</svg>
