<svg width="48" height="48" viewBox="0 0 48 48" fill="none" xmlns="http://www.w3.org/2000/svg">
<path d="M34.5 6.875H7C6.50272 6.875 6.02581 7.07254 5.67417 7.42417C5.32254 7.77581 5.125 8.25272 5.125 8.75V31.25C5.125 31.7473 5.32254 32.2242 5.67417 32.5758C6.02581 32.9275 6.50272 33.125 7 33.125H34.5C34.9973 33.125 35.4742 32.9275 35.8258 32.5758C36.1775 32.2242 36.375 31.7473 36.375 31.25V8.75C36.375 8.25272 36.1775 7.77581 35.8258 7.42417C35.4742 7.07254 34.9973 6.875 34.5 6.875ZM7 8.125H34.5C34.6658 8.125 34.8247 8.19085 34.9419 8.30806C35.0592 8.42527 35.125 8.58424 35.125 8.75V26.3125L29.9859 21.1734C29.8117 20.9986 29.6048 20.8599 29.3768 20.7653C29.1489 20.6707 28.9046 20.622 28.6578 20.622C28.411 20.622 28.1667 20.6707 27.9388 20.7653C27.7109 20.8599 27.5039 20.9986 27.3297 21.1734L23.7625 24.7406L16.4469 17.4234C16.2727 17.2486 16.0657 17.1099 15.8378 17.0153C15.6099 16.9207 15.3655 16.872 15.1187 16.872C14.872 16.872 14.6276 16.9207 14.3997 17.0153C14.1718 17.1099 13.9648 17.2486 13.7906 17.4234L6.375 24.8438V8.75C6.375 8.58424 6.44085 8.42527 6.55806 8.30806C6.67527 8.19085 6.83424 8.125 7 8.125ZM6.375 31.25V26.6156L14.6828 18.3078C14.7409 18.2497 14.8098 18.2036 14.8857 18.1721C14.9615 18.1407 15.0429 18.1245 15.125 18.1245C15.2071 18.1245 15.2885 18.1407 15.3643 18.1721C15.4402 18.2036 15.5091 18.2497 15.5672 18.3078L29.1344 31.875H7C6.83424 31.875 6.67527 31.8092 6.55806 31.6919C6.44085 31.5747 6.375 31.4158 6.375 31.25ZM34.5 31.875H30.9062L24.6562 25.625L28.2234 22.0578C28.2815 21.9997 28.3504 21.9536 28.4263 21.9221C28.5022 21.8907 28.5835 21.8745 28.6656 21.8745C28.7478 21.8745 28.8291 21.8907 28.905 21.9221C28.9808 21.9536 29.0498 21.9997 29.1078 22.0578L35.125 28.0797V31.25C35.125 31.4158 35.0592 31.5747 34.9419 31.6919C34.8247 31.8092 34.6658 31.875 34.5 31.875ZM23.875 15.625C23.875 15.3778 23.9483 15.1361 24.0857 14.9305C24.223 14.725 24.4182 14.5648 24.6466 14.4702C24.8751 14.3755 25.1264 14.3508 25.3689 14.399C25.6113 14.4472 25.8341 14.5663 26.0089 14.7411C26.1837 14.9159 26.3028 15.1387 26.351 15.3811C26.3992 15.6236 26.3745 15.8749 26.2798 16.1034C26.1852 16.3318 26.025 16.527 25.8195 16.6643C25.6139 16.8017 25.3722 16.875 25.125 16.875C24.7935 16.875 24.4755 16.7433 24.2411 16.5089C24.0067 16.2745 23.875 15.9565 23.875 15.625Z" fill="#FAABB4"/>
<rect x="23.75" y="24" width="24" height="24" rx="12" fill="#F55668"/>
<mask id="mask0_4_49" style="mask-type:alpha" maskUnits="userSpaceOnUse" x="25" y="26" width="21" height="20">
<rect x="25.75" y="26" width="20" height="20" fill="#D9D9D9"/>
</mask>
<g mask="url(#mask0_4_49)">
<path d="M34.9167 36.8334H30.75C30.5139 36.8334 30.316 36.7535 30.1562 36.5938C29.9965 36.434 29.9167 36.2361 29.9167 36C29.9167 35.7639 29.9965 35.566 30.1562 35.4063C30.316 35.2465 30.5139 35.1667 30.75 35.1667H34.9167V31C34.9167 30.7639 34.9965 30.566 35.1562 30.4063C35.316 30.2465 35.5139 30.1667 35.75 30.1667C35.9861 30.1667 36.184 30.2465 36.3437 30.4063C36.5035 30.566 36.5833 30.7639 36.5833 31V35.1667H40.75C40.9861 35.1667 41.184 35.2465 41.3437 35.4063C41.5035 35.566 41.5833 35.7639 41.5833 36C41.5833 36.2361 41.5035 36.434 41.3437 36.5938C41.184 36.7535 40.9861 36.8334 40.75 36.8334H36.5833V41C36.5833 41.2361 36.5035 41.434 36.3437 41.5938C36.184 41.7535 35.9861 41.8334 35.75 41.8334C35.5139 41.8334 35.316 41.7535 35.1562 41.5938C34.9965 41.434 34.9167 41.2361 34.9167 41V36.8334Z" fill="white"/>
</g>
</svg>
