<svg width="9" height="16" viewBox="0 0 9 16" fill="none" xmlns="http://www.w3.org/2000/svg">
<path d="M8.41331 8.66374L2.16331 14.9137C1.98719 15.0899 1.74832 15.1888 1.49925 15.1888C1.25017 15.1888 1.0113 15.0899 0.835183 14.9137C0.659063 14.7376 0.56012 14.4987 0.56012 14.2497C0.56012 14.0006 0.659063 13.7617 0.835183 13.5856L6.4219 8.00045L0.836746 2.41374C0.74954 2.32653 0.680364 2.223 0.633169 2.10906C0.585973 1.99512 0.561682 1.873 0.561682 1.74967C0.561682 1.62635 0.585973 1.50422 0.633169 1.39028C0.680364 1.27634 0.74954 1.17282 0.836746 1.08561C0.923952 0.998405 1.02748 0.929229 1.14142 0.882034C1.25536 0.834838 1.37748 0.810547 1.50081 0.810547C1.62414 0.810547 1.74626 0.834838 1.8602 0.882034C1.97414 0.929229 2.07767 0.998405 2.16487 1.08561L8.41487 7.33561C8.50217 7.42281 8.57139 7.52639 8.61858 7.6404C8.66576 7.75441 8.68997 7.87661 8.68983 8C8.68968 8.12339 8.66518 8.24553 8.61773 8.35943C8.57028 8.47333 8.50081 8.57674 8.41331 8.66374Z" fill="#656E6F"/>
</svg>
