<svg width="20" height="17" viewBox="0 0 20 17" fill="none" xmlns="http://www.w3.org/2000/svg">
<path d="M19.0459 9.29586L12.2959 16.0459C12.0846 16.2572 11.7979 16.3759 11.4991 16.3759C11.2002 16.3759 10.9135 16.2572 10.7022 16.0459C10.4908 15.8345 10.3721 15.5479 10.3721 15.249C10.3721 14.9501 10.4908 14.6635 10.7022 14.4521L15.5312 9.62492H1.75C1.45163 9.62492 1.16548 9.50639 0.954505 9.29541C0.743526 9.08444 0.625 8.79829 0.625 8.49992C0.625 8.20155 0.743526 7.9154 0.954505 7.70442C1.16548 7.49345 1.45163 7.37492 1.75 7.37492H15.5312L10.7041 2.54492C10.4927 2.33358 10.374 2.04693 10.374 1.74804C10.374 1.44916 10.4927 1.16251 10.7041 0.95117C10.9154 0.739826 11.2021 0.621094 11.5009 0.621094C11.7998 0.621094 12.0865 0.739826 12.2978 0.95117L19.0478 7.70117C19.1527 7.80583 19.2359 7.93018 19.2926 8.06707C19.3493 8.20397 19.3784 8.35073 19.3782 8.4989C19.3781 8.64708 19.3486 8.79377 19.2916 8.93053C19.2346 9.0673 19.1511 9.19145 19.0459 9.29586Z" fill="white"/>
</svg>
