<svg width="25" height="24" viewBox="0 0 25 24" fill="none" xmlns="http://www.w3.org/2000/svg">
<path d="M12.0908 2.25C10.1625 2.25 8.27739 2.82183 6.67402 3.89317C5.07064 4.96451 3.82095 6.48726 3.083 8.26884C2.34504 10.0504 2.15196 12.0108 2.52817 13.9021C2.90437 15.7934 3.83297 17.5307 5.19653 18.8943C6.5601 20.2579 8.29738 21.1865 10.1887 21.5627C12.08 21.9389 14.0404 21.7458 15.822 21.0078C17.6036 20.2699 19.1263 19.0202 20.1977 17.4168C21.269 15.8134 21.8408 13.9284 21.8408 12C21.8381 9.41498 20.81 6.93661 18.9821 5.10872C17.1542 3.28084 14.6758 2.25273 12.0908 2.25ZM20.3408 12C20.3427 13.9289 19.6653 15.7969 18.4274 17.2762L6.81457 5.6625C8.01926 4.66029 9.48447 4.02191 11.0387 3.82207C12.593 3.62223 14.172 3.86919 15.5911 4.53406C17.0101 5.19892 18.2104 6.25418 19.0516 7.57636C19.8927 8.89854 20.3399 10.4329 20.3408 12ZM3.84082 12C3.8389 10.0711 4.51634 8.20306 5.75426 6.72375L17.3671 18.3375C16.1624 19.3397 14.6972 19.9781 13.1429 20.1779C11.5886 20.3778 10.0096 20.1308 8.59057 19.4659C7.17154 18.8011 5.97122 17.7458 5.13006 16.4236C4.28891 15.1015 3.84172 13.5671 3.84082 12Z" fill="#DC3545"/>
</svg>
