<svg width="18" height="22" viewBox="0 0 18 22" fill="none" xmlns="http://www.w3.org/2000/svg">
<path d="M13.3125 4.47635C12.1545 3.13895 10.8511 1.93465 9.42656 0.885727C9.30046 0.797387 9.15022 0.75 8.99625 0.75C8.84228 0.75 8.69204 0.797387 8.56594 0.885727C7.14399 1.93509 5.84317 3.13937 4.6875 4.47635C2.11031 7.43604 0.75 10.556 0.75 13.4998C0.75 15.6878 1.61919 17.7862 3.16637 19.3334C4.71354 20.8806 6.81196 21.7498 9 21.7498C11.188 21.7498 13.2865 20.8806 14.8336 19.3334C16.3808 17.7862 17.25 15.6878 17.25 13.4998C17.25 10.556 15.8897 7.43604 13.3125 4.47635ZM9 20.2498C7.2104 20.2478 5.49466 19.536 4.22922 18.2706C2.96378 17.0051 2.25199 15.2894 2.25 13.4998C2.25 8.13448 7.45031 3.65604 9 2.43729C10.5497 3.65604 15.75 8.1326 15.75 13.4998C15.748 15.2894 15.0362 17.0051 13.7708 18.2706C12.5053 19.536 10.7896 20.2478 9 20.2498ZM14.2397 14.3754C14.0452 15.4617 13.5226 16.4623 12.7422 17.2426C11.9618 18.0228 10.961 18.5452 9.87469 18.7395C9.83345 18.7461 9.79176 18.7495 9.75 18.7498C9.56187 18.7497 9.38063 18.679 9.24222 18.5516C9.10381 18.4241 9.01834 18.2494 9.00277 18.0619C8.9872 17.8744 9.04265 17.6879 9.15814 17.5394C9.27362 17.3909 9.44071 17.2912 9.62625 17.2601C11.1797 16.9985 12.4978 15.6804 12.7612 14.1242C12.7946 13.928 12.9045 13.7531 13.0667 13.6379C13.229 13.5228 13.4304 13.4768 13.6266 13.5101C13.8227 13.5434 13.9976 13.6533 14.1128 13.8156C14.228 13.9779 14.2739 14.1792 14.2406 14.3754H14.2397Z" fill="#1D2021"/>
</svg>
