<svg width="16" height="20" viewBox="0 0 16 20" fill="none" xmlns="http://www.w3.org/2000/svg">
<path d="M7.99878 19.399C5.89261 19.399 4.13312 18.6722 2.7203 17.2186C1.30748 15.7649 0.601074 13.9587 0.601074 11.8C0.601074 10.2757 1.21982 8.58883 2.4573 6.73948C3.6948 4.89013 5.54239 2.89527 8.00007 0.754883C10.4578 2.89527 12.3053 4.89013 13.5428 6.73948C14.7803 8.58883 15.3991 10.2757 15.3991 11.8C15.3991 13.9587 14.6922 15.7649 13.2786 17.2186C11.8649 18.6722 10.105 19.399 7.99878 19.399ZM8.00007 18C9.73341 18 11.1667 17.4125 12.3001 16.2375C13.4334 15.0625 14.0001 13.5834 14.0001 11.8C14.0001 10.5834 13.4959 9.20837 12.4876 7.67503C11.4792 6.1417 9.98341 4.4667 8.00007 2.65003C6.01674 4.4667 4.52091 6.1417 3.51257 7.67503C2.50424 9.20837 2.00007 10.5834 2.00007 11.8C2.00007 13.5834 2.56674 15.0625 3.70007 16.2375C4.83341 17.4125 6.26674 18 8.00007 18ZM5.31067 15.6971H10.6895V14.2981H5.31067V15.6971ZM7.30297 12.6769H8.70197V10.6894H10.6895V9.29043H8.70197V7.29813H7.30297V9.29043H5.31067V10.6894H7.30297V12.6769Z" fill="#F55668"/>
</svg>
