<svg width="81" height="81" viewBox="0 0 81 81" fill="none" xmlns="http://www.w3.org/2000/svg">
<path d="M50.1992 18.25H20.1992C18.8731 18.25 17.6014 18.7768 16.6637 19.7145C15.726 20.6521 15.1992 21.9239 15.1992 23.25V70.75C15.1992 71.2094 15.3258 71.6598 15.565 72.052C15.8042 72.4441 16.1468 72.7628 16.5553 72.973C16.9637 73.1832 17.4221 73.2768 17.8803 73.2435C18.3384 73.2102 18.7786 73.0514 19.1523 72.7844L35.1992 61.3219L51.2492 72.7844C51.623 73.0505 52.0628 73.2086 52.5205 73.2414C52.9781 73.2742 53.436 73.1805 53.8439 72.9704C54.2518 72.7603 54.594 72.442 54.8331 72.0504C55.0722 71.6587 55.1988 71.2088 55.1992 70.75V23.25C55.1992 21.9239 54.6724 20.6521 53.7348 19.7145C52.7971 18.7768 51.5253 18.25 50.1992 18.25Z" fill="#F55668"/>
<path d="M60.1992 8.25H27.6992C27.0362 8.25 26.4003 8.51339 25.9315 8.98223C25.4626 9.45107 25.1992 10.087 25.1992 10.75C25.1992 11.413 25.4626 12.0489 25.9315 12.5178C26.4003 12.9866 27.0362 13.25 27.6992 13.25H60.1992V60.75C60.1992 61.413 60.4626 62.0489 60.9314 62.5178C61.4003 62.9866 62.0362 63.25 62.6992 63.25C63.3623 63.25 63.9981 62.9866 64.467 62.5178C64.9358 62.0489 65.1992 61.413 65.1992 60.75V13.25C65.1992 11.9239 64.6724 10.6521 63.7348 9.71447C62.7971 8.77678 61.5253 8.25 60.1992 8.25Z" fill="#FBBBC3"/>
</svg>
