<svg width="15" height="21" viewBox="0 0 15 21" fill="none" xmlns="http://www.w3.org/2000/svg">
<path d="M13.0117 0H1.63672C1.20574 0 0.792417 0.171205 0.48767 0.475951C0.182924 0.780698 0.0117188 1.19402 0.0117188 1.625V19.5C0.0117909 19.645 0.0506655 19.7873 0.124309 19.9122C0.197952 20.0372 0.30368 20.1401 0.430521 20.2103C0.557363 20.2806 0.700696 20.3156 0.845647 20.3118C0.990597 20.308 1.13188 20.2654 1.25484 20.1886L7.32422 16.3952L13.3946 20.1886C13.5176 20.2652 13.6587 20.3075 13.8035 20.3112C13.9483 20.3149 14.0915 20.2798 14.2182 20.2096C14.3448 20.1393 14.4504 20.0365 14.524 19.9118C14.5976 19.787 14.6365 19.6448 14.6367 19.5V1.625C14.6367 1.19402 14.4655 0.780698 14.1608 0.475951C13.856 0.171205 13.4427 0 13.0117 0Z" fill="#F55668"/>
</svg>
