<svg width="16" height="22" viewBox="0 0 16 22" fill="none" xmlns="http://www.w3.org/2000/svg">
<path d="M13.8125 0.75H2.4375C2.00652 0.75 1.5932 0.921205 1.28845 1.22595C0.983705 1.5307 0.8125 1.94402 0.8125 2.375V20.25C0.812572 20.395 0.851447 20.5373 0.92509 20.6622C0.998733 20.7872 1.10446 20.8901 1.2313 20.9603C1.35814 21.0306 1.50148 21.0656 1.64643 21.0618C1.79138 21.058 1.93266 21.0154 2.05562 20.9386L8.125 17.1452L14.1954 20.9386C14.3183 21.0152 14.4595 21.0575 14.6043 21.0612C14.7491 21.0649 14.8923 21.0298 15.0189 20.9596C15.1456 20.8893 15.2512 20.7865 15.3248 20.6618C15.3984 20.537 15.4373 20.3948 15.4375 20.25V2.375C15.4375 1.94402 15.2663 1.5307 14.9615 1.22595C14.6568 0.921205 14.2435 0.75 13.8125 0.75ZM13.8125 18.7845L8.55461 15.4989C8.42548 15.4182 8.27626 15.3754 8.12398 15.3754C7.97171 15.3754 7.82249 15.4182 7.69336 15.4989L2.4375 18.7845V2.375H13.8125V18.7845Z" fill="#656E6F"/>
</svg>
