<svg width="20" height="21" viewBox="0 0 20 21" fill="none" xmlns="http://www.w3.org/2000/svg">
<path d="M17.5 8.25049H10.75V7.40674C11.3937 7.23953 11.9638 6.86352 12.371 6.33761C12.7782 5.8117 12.9994 5.16559 13 4.50049C13 1.87549 10.5212 0.196425 10.4163 0.126112C10.293 0.043883 10.1482 0 10 0C9.85184 0 9.707 0.043883 9.58375 0.126112C9.47875 0.196425 7 1.87549 7 4.50049C7.00063 5.16559 7.22185 5.8117 7.629 6.33761C8.03616 6.86352 8.60626 7.23953 9.25 7.40674V8.25049H2.5C1.90326 8.25049 1.33097 8.48754 0.90901 8.9095C0.487053 9.33145 0.25 9.90375 0.25 10.5005V12.6877C0.250769 13.5059 0.513613 14.3023 1 14.9602V18.7505C1 19.3472 1.23705 19.9195 1.65901 20.3415C2.08097 20.7634 2.65326 21.0005 3.25 21.0005H16.75C17.3467 21.0005 17.919 20.7634 18.341 20.3415C18.7629 19.9195 19 19.3472 19 18.7505V14.9602C19.4864 14.3023 19.7492 13.5059 19.75 12.6877V10.5005C19.75 9.90375 19.5129 9.33145 19.091 8.9095C18.669 8.48754 18.0967 8.25049 17.5 8.25049ZM8.5 4.50049C8.5 3.2283 9.4375 2.20736 10 1.70767C10.5625 2.20736 11.5 3.2283 11.5 4.50049C11.5 4.89831 11.342 5.27984 11.0607 5.56115C10.7794 5.84245 10.3978 6.00049 10 6.00049C9.60218 6.00049 9.22064 5.84245 8.93934 5.56115C8.65804 5.27984 8.5 4.89831 8.5 4.50049ZM18.25 12.6877C18.25 13.9299 17.2694 14.9667 16.0637 14.9995C15.763 15.0081 15.4637 14.9562 15.1833 14.847C14.903 14.7378 14.6474 14.5735 14.4317 14.3638C14.216 14.1541 14.0445 13.9033 13.9274 13.6262C13.8103 13.3491 13.75 13.0513 13.75 12.7505C13.75 12.5516 13.671 12.3608 13.5303 12.2202C13.3897 12.0795 13.1989 12.0005 13 12.0005C12.8011 12.0005 12.6103 12.0795 12.4697 12.2202C12.329 12.3608 12.25 12.5516 12.25 12.7505C12.25 13.3472 12.0129 13.9195 11.591 14.3415C11.169 14.7634 10.5967 15.0005 10 15.0005C9.40326 15.0005 8.83097 14.7634 8.40901 14.3415C7.98705 13.9195 7.75 13.3472 7.75 12.7505C7.75 12.5516 7.67098 12.3608 7.53033 12.2202C7.38968 12.0795 7.19891 12.0005 7 12.0005C6.80109 12.0005 6.61032 12.0795 6.46967 12.2202C6.32902 12.3608 6.25 12.5516 6.25 12.7505C6.25012 13.0514 6.18988 13.3493 6.07284 13.6265C5.9558 13.9037 5.78434 14.1547 5.56861 14.3644C5.35288 14.5742 5.09726 14.7386 4.81688 14.8479C4.53649 14.9571 4.23705 15.009 3.93625 15.0005C2.73062 14.9667 1.75 13.9299 1.75 12.6877V10.5005C1.75 10.3016 1.82902 10.1108 1.96967 9.97016C2.11032 9.8295 2.30109 9.75049 2.5 9.75049H17.5C17.6989 9.75049 17.8897 9.8295 18.0303 9.97016C18.171 10.1108 18.25 10.3016 18.25 10.5005V12.6877Z" fill="#1D2021"/>
</svg>
