<svg width="24" height="24" viewBox="0 0 24 24" fill="none" xmlns="http://www.w3.org/2000/svg">
<mask id="mask0_4059_2571" style="mask-type:alpha" maskUnits="userSpaceOnUse" x="0" y="0" width="24" height="24">
<rect width="24" height="24" fill="#D9D9D9"/>
</mask>
<g mask="url(#mask0_4059_2571)">
<path d="M14.5393 17.7042C13.9344 17.7042 13.4211 17.4933 12.9991 17.0714C12.5772 16.6494 12.3662 16.136 12.3662 15.5312C12.3662 14.9264 12.5772 14.413 12.9991 13.9911C13.4211 13.5691 13.9344 13.3582 14.5393 13.3582C15.1441 13.3582 15.6575 13.5691 16.0794 13.9911C16.5013 14.413 16.7123 14.9264 16.7123 15.5312C16.7123 16.136 16.5013 16.6494 16.0794 17.0714C15.6575 17.4933 15.1441 17.7042 14.5393 17.7042ZM5.70223 21C5.22657 21 4.82395 20.8352 4.49437 20.5056C4.16479 20.1761 4 19.7734 4 19.2978V6.69418C4 6.21852 4.16479 5.81589 4.49437 5.48632C4.82395 5.15674 5.22657 4.99195 5.70223 4.99195H7.00606V3.72432C7.00606 3.51789 7.07518 3.34556 7.21341 3.20733C7.35163 3.06911 7.52396 3 7.73041 3C7.93683 3 8.10916 3.06911 8.2474 3.20733C8.38561 3.34556 8.45472 3.51789 8.45472 3.72432V4.99195H15.5895V3.70622C15.5895 3.50582 15.6571 3.33801 15.7923 3.20281C15.9275 3.0676 16.0954 3 16.2958 3C16.4962 3 16.664 3.0676 16.7992 3.20281C16.9344 3.33801 17.002 3.50582 17.002 3.70622V4.99195H18.3058C18.7815 4.99195 19.1841 5.15674 19.5137 5.48632C19.8433 5.81589 20.0081 6.21852 20.0081 6.69418V19.2978C20.0081 19.7734 19.8433 20.1761 19.5137 20.5056C19.1841 20.8352 18.7815 21 18.3058 21H5.70223ZM5.70223 19.5875H18.3058C18.3783 19.5875 18.4447 19.5574 18.5051 19.497C18.5654 19.4366 18.5956 19.3702 18.5956 19.2978V10.4608H5.41246V19.2978C5.41246 19.3702 5.44264 19.4366 5.503 19.497C5.56337 19.5574 5.62978 19.5875 5.70223 19.5875ZM5.41246 9.04833H18.5956V6.69418C18.5956 6.62173 18.5654 6.55532 18.5051 6.49494C18.4447 6.43458 18.3783 6.4044 18.3058 6.4044H5.70223C5.62978 6.4044 5.56337 6.43458 5.503 6.49494C5.44264 6.55532 5.41246 6.62173 5.41246 6.69418V9.04833Z" fill="#1D2021"/>
</g>
</svg>
