<svg width="15" height="15" viewBox="0 0 15 15" fill="none" xmlns="http://www.w3.org/2000/svg">
<path d="M7.79979 8.29035L10.1046 10.5952C10.2084 10.699 10.339 10.7521 10.4962 10.7545C10.6534 10.7569 10.7863 10.7038 10.895 10.5952C11.0036 10.4865 11.058 10.3548 11.058 10.2C11.058 10.0452 11.0036 9.91346 10.895 9.80481L8.59016 7.49998L10.895 5.19516C10.9988 5.09132 11.0519 4.96079 11.0543 4.80358C11.0567 4.64638 11.0036 4.51346 10.895 4.40481C10.7863 4.29614 10.6546 4.24181 10.4998 4.24181C10.345 4.24181 10.2133 4.29614 10.1046 4.40481L7.79979 6.70961L5.49496 4.40481C5.39112 4.30096 5.2606 4.24783 5.10339 4.24543C4.94619 4.24302 4.81326 4.29614 4.70461 4.40481C4.59595 4.51346 4.54162 4.64518 4.54162 4.79998C4.54162 4.95478 4.59595 5.08651 4.70461 5.19516L7.00942 7.49998L4.70461 9.80481C4.60076 9.90865 4.54764 10.0392 4.54524 10.1964C4.54282 10.3536 4.59595 10.4865 4.70461 10.5952C4.81326 10.7038 4.94499 10.7582 5.09979 10.7582C5.25459 10.7582 5.38631 10.7038 5.49496 10.5952L7.79979 8.29035ZM7.80104 14.625C6.81559 14.625 5.88932 14.438 5.02222 14.064C4.1551 13.69 3.40084 13.1824 2.75943 12.5413C2.118 11.9001 1.61021 11.1462 1.23605 10.2795C0.861886 9.41277 0.674805 8.48669 0.674805 7.50124C0.674805 6.51579 0.861805 5.58951 1.2358 4.72241C1.6098 3.8553 2.11737 3.10104 2.75849 2.45963C3.39963 1.8182 4.15356 1.31041 5.02029 0.936245C5.887 0.562082 6.81308 0.375 7.79853 0.375C8.78398 0.375 9.71026 0.562001 10.5774 0.936001C11.4445 1.31 12.1987 1.81756 12.8401 2.45869C13.4816 3.09983 13.9894 3.85376 14.3635 4.72048C14.7377 5.58719 14.9248 6.51328 14.9248 7.49873C14.9248 8.48418 14.7378 9.41045 14.3638 10.2776C13.9898 11.1447 13.4822 11.8989 12.8411 12.5403C12.1999 13.1818 11.446 13.6896 10.5793 14.0637C9.71257 14.4379 8.78649 14.625 7.80104 14.625ZM7.79979 13.5C9.47479 13.5 10.8935 12.9187 12.056 11.7562C13.2185 10.5937 13.7998 9.17498 13.7998 7.49998C13.7998 5.82498 13.2185 4.40623 12.056 3.24373C10.8935 2.08123 9.47479 1.49998 7.79979 1.49998C6.12479 1.49998 4.70604 2.08123 3.54354 3.24373C2.38104 4.40623 1.79979 5.82498 1.79979 7.49998C1.79979 9.17498 2.38104 10.5937 3.54354 11.7562C4.70604 12.9187 6.12479 13.5 7.79979 13.5Z" fill="#6B7280"/>
</svg>
