<svg width="27" height="27" viewBox="0 0 27 27" fill="none" xmlns="http://www.w3.org/2000/svg">
<rect x="1.07275" y="1.33984" width="25" height="25" rx="12.5" fill="#F9FAFB"/>
<rect x="1.07275" y="1.33984" width="25" height="25" rx="12.5" stroke="#E5E7EB"/>
<mask id="mask0_2139_10207" style="mask-type:alpha" maskUnits="userSpaceOnUse" x="2" y="2" width="23" height="23">
<rect x="2.57275" y="2.83984" width="22" height="22" fill="#D9D9D9"/>
</mask>
<g mask="url(#mask0_2139_10207)">
<path d="M13.5736 15.1362L10.3327 18.3771C10.149 18.5608 9.93294 18.6526 9.68447 18.6526C9.436 18.6526 9.21994 18.5608 9.03629 18.3771C8.85264 18.1935 8.76081 17.9774 8.76081 17.7289C8.76081 17.4805 8.85264 17.2644 9.03629 17.0807L12.2772 13.8398L9.03629 10.5989C8.85264 10.4153 8.76081 10.1992 8.76081 9.95076C8.76081 9.70229 8.85264 9.48623 9.03629 9.30258C9.21994 9.11892 9.436 9.0271 9.68447 9.0271C9.93294 9.0271 10.149 9.11892 10.3327 9.30258L13.5736 12.5435L16.8145 9.30258C16.9981 9.11892 17.2142 9.0271 17.4626 9.0271C17.7111 9.0271 17.9272 9.11892 18.1108 9.30258C18.2945 9.48623 18.3863 9.70229 18.3863 9.95076C18.3863 10.1992 18.2945 10.4153 18.1108 10.5989L14.8699 13.8398L18.1108 17.0807C18.2945 17.2644 18.3863 17.4805 18.3863 17.7289C18.3863 17.9774 18.2945 18.1935 18.1108 18.3771C17.9272 18.5608 17.7111 18.6526 17.4626 18.6526C17.2142 18.6526 16.9981 18.5608 16.8145 18.3771L13.5736 15.1362Z" fill="#1D2021"/>
</g>
</svg>
