<svg width="19" height="19" viewBox="0 0 19 19" fill="none" xmlns="http://www.w3.org/2000/svg">
<mask id="mask0_1348_6370" style="mask-type:alpha" maskUnits="userSpaceOnUse" x="0" y="0" width="19" height="19">
<rect x="0.799805" y="0.5" width="18" height="18" fill="#D9D9D9"/>
</mask>
<g mask="url(#mask0_1348_6370)">
<path d="M9.79979 10.2904L12.1046 12.5952C12.2084 12.699 12.339 12.7521 12.4962 12.7545C12.6534 12.7569 12.7863 12.7038 12.895 12.5952C13.0036 12.4865 13.058 12.3548 13.058 12.2C13.058 12.0452 13.0036 11.9135 12.895 11.8048L10.5902 9.49998L12.895 7.19516C12.9988 7.09132 13.0519 6.96079 13.0543 6.80358C13.0567 6.64638 13.0036 6.51346 12.895 6.40481C12.7863 6.29614 12.6546 6.24181 12.4998 6.24181C12.345 6.24181 12.2133 6.29614 12.1046 6.40481L9.79979 8.70961L7.49496 6.40481C7.39112 6.30096 7.2606 6.24783 7.10339 6.24543C6.94619 6.24302 6.81326 6.29614 6.70461 6.40481C6.59595 6.51346 6.54162 6.64518 6.54162 6.79998C6.54162 6.95478 6.59595 7.08651 6.70461 7.19516L9.00942 9.49998L6.70461 11.8048C6.60076 11.9086 6.54764 12.0392 6.54524 12.1964C6.54282 12.3536 6.59595 12.4865 6.70461 12.5952C6.81326 12.7038 6.94499 12.7582 7.09979 12.7582C7.25459 12.7582 7.38631 12.7038 7.49496 12.5952L9.79979 10.2904ZM9.80104 16.625C8.81559 16.625 7.88932 16.438 7.02222 16.064C6.1551 15.69 5.40084 15.1824 4.75943 14.5413C4.118 13.9001 3.61021 13.1462 3.23605 12.2795C2.86189 11.4128 2.6748 10.4867 2.6748 9.50124C2.6748 8.51579 2.8618 7.58951 3.2358 6.72241C3.6098 5.8553 4.11737 5.10104 4.75849 4.45963C5.39963 3.8182 6.15356 3.31041 7.02029 2.93624C7.887 2.56208 8.81308 2.375 9.79853 2.375C10.784 2.375 11.7103 2.562 12.5774 2.936C13.4445 3.31 14.1987 3.81756 14.8401 4.45869C15.4816 5.09983 15.9894 5.85376 16.3635 6.72048C16.7377 7.58719 16.9248 8.51328 16.9248 9.49873C16.9248 10.4842 16.7378 11.4104 16.3638 12.2776C15.9898 13.1447 15.4822 13.8989 14.8411 14.5403C14.1999 15.1818 13.446 15.6896 12.5793 16.0637C11.7126 16.4379 10.7865 16.625 9.80104 16.625ZM9.79979 15.5C11.4748 15.5 12.8935 14.9187 14.056 13.7562C15.2185 12.5937 15.7998 11.175 15.7998 9.49998C15.7998 7.82498 15.2185 6.40623 14.056 5.24373C12.8935 4.08123 11.4748 3.49998 9.79979 3.49998C8.12479 3.49998 6.70604 4.08123 5.54354 5.24373C4.38104 6.40623 3.79979 7.82498 3.79979 9.49998C3.79979 11.175 4.38104 12.5937 5.54354 13.7562C6.70604 14.9187 8.12479 15.5 9.79979 15.5Z" fill="#6B7280"/>
</g>
</svg>
