<svg width="22" height="22" viewBox="0 0 22 22" fill="none" xmlns="http://www.w3.org/2000/svg">
<path d="M10.5908 0.4375C8.76722 0.437102 6.97459 0.90884 5.38741 1.8068C3.80022 2.70475 2.47256 3.99833 1.53364 5.56163C0.594717 7.12493 0.0765299 8.90469 0.029513 10.7277C-0.017504 12.5507 0.408251 14.3548 1.26534 15.9644L0.112603 19.4226C0.017119 19.7089 0.00326197 20.0162 0.0725855 20.3099C0.141909 20.6037 0.291674 20.8723 0.505093 21.0857C0.718512 21.2991 0.987153 21.4489 1.2809 21.5182C1.57466 21.5875 1.88191 21.5737 2.16823 21.4782L5.62643 20.3255C7.04299 21.0789 8.61259 21.4997 10.2161 21.556C11.8196 21.6123 13.4148 21.3025 14.8807 20.6502C16.3466 19.9979 17.6446 19.0202 18.6762 17.7914C19.7078 16.5625 20.4459 15.1148 20.8345 13.5581C21.2231 12.0014 21.2519 10.3766 20.9188 8.8071C20.5857 7.23759 19.8994 5.76459 18.9121 4.49991C17.9247 3.23524 16.6622 2.21212 15.2203 1.50823C13.7785 0.804332 12.1953 0.438158 10.5908 0.4375ZM6.12206 12.2188C5.88101 12.2188 5.64538 12.1473 5.44496 12.0134C5.24453 11.8794 5.08832 11.6891 4.99608 11.4664C4.90383 11.2437 4.8797 10.9986 4.92672 10.7622C4.97375 10.5258 5.08982 10.3087 5.26027 10.1382C5.43072 9.96777 5.64788 9.85169 5.88429 9.80467C6.1207 9.75764 6.36575 9.78178 6.58845 9.87402C6.81115 9.96627 7.00149 10.1225 7.13541 10.3229C7.26933 10.5233 7.34081 10.759 7.34081 11C7.34081 11.3232 7.2124 11.6332 6.98384 11.8618C6.75528 12.0903 6.44529 12.2188 6.12206 12.2188ZM10.5908 12.2188C10.3498 12.2188 10.1141 12.1473 9.9137 12.0134C9.71328 11.8794 9.55707 11.6891 9.46483 11.4664C9.37258 11.2437 9.34845 10.9986 9.39547 10.7622C9.4425 10.5258 9.55857 10.3087 9.72902 10.1382C9.89946 9.96777 10.1166 9.85169 10.353 9.80467C10.5895 9.75764 10.8345 9.78178 11.0572 9.87402C11.2799 9.96627 11.4702 10.1225 11.6042 10.3229C11.7381 10.5233 11.8096 10.759 11.8096 11C11.8096 11.3232 11.6812 11.6332 11.4526 11.8618C11.224 12.0903 10.914 12.2188 10.5908 12.2188ZM15.0596 12.2188C14.8185 12.2188 14.5829 12.1473 14.3825 12.0134C14.182 11.8794 14.0258 11.6891 13.9336 11.4664C13.8413 11.2437 13.8172 10.9986 13.8642 10.7622C13.9113 10.5258 14.0273 10.3087 14.1978 10.1382C14.3682 9.96777 14.5854 9.85169 14.8218 9.80467C15.0582 9.75764 15.3033 9.78178 15.526 9.87402C15.7486 9.96627 15.939 10.1225 16.0729 10.3229C16.2068 10.5233 16.2783 10.759 16.2783 11C16.2783 11.3232 16.1499 11.6332 15.9213 11.8618C15.6928 12.0903 15.3828 12.2188 15.0596 12.2188Z" fill="#F55668"/>
</svg>
