<svg width="92" height="80" viewBox="0 0 92 80" fill="none" xmlns="http://www.w3.org/2000/svg">
<path d="M72.0002 40.75C74.8057 40.7494 77.5636 41.4751 80.0054 42.8566C82.4472 44.2381 84.4898 46.2282 85.9343 48.6333C87.3788 51.0384 88.176 53.7764 88.2483 56.581C88.3207 59.3856 87.6656 62.1612 86.347 64.6375L88.1205 69.9578C88.2674 70.3983 88.2887 70.871 88.1821 71.3229C88.0754 71.7749 87.845 72.1881 87.5167 72.5165C87.1883 72.8448 86.775 73.0752 86.3231 73.1819C85.8712 73.2885 85.3985 73.2672 84.958 73.1203L79.6377 71.3469C77.4583 72.506 75.0436 73.1534 72.5767 73.24C70.1098 73.3266 67.6556 72.85 65.4004 71.8465C63.1452 70.8429 61.1482 69.3388 59.5611 67.4483C57.974 65.5577 56.8384 63.3304 56.2406 60.9355C55.6428 58.5406 55.5984 56.0409 56.1109 53.6263C56.6234 51.2117 57.6792 48.9455 59.1982 46.9999C60.7173 45.0542 62.6596 43.4802 64.8778 42.3973C67.096 41.3144 69.5318 40.751 72.0002 40.75Z" fill="#FBBBC3"/>
<path d="M40.0003 7.5C34.3892 7.49878 28.8734 8.95028 23.9898 11.7132C19.1062 14.4762 15.021 18.4564 12.132 23.2666C9.24306 28.0767 7.64864 33.5529 7.50397 39.1621C7.3593 44.7712 8.66932 50.3223 11.3065 55.275L7.75963 65.9156C7.46583 66.7966 7.4232 67.742 7.6365 68.6459C7.8498 69.5497 8.31062 70.3763 8.96729 71.033C9.62397 71.6896 10.4506 72.1505 11.3544 72.3638C12.2583 72.5771 13.2037 72.5344 14.0846 72.2406L24.7253 68.6938C29.0839 71.012 33.9134 72.3069 38.8472 72.48C43.781 72.6531 48.6894 71.7 53.1998 69.6929C57.7103 67.6858 61.7042 64.6776 64.8784 60.8965C68.0526 57.1154 70.3238 52.6609 71.5194 47.871C72.715 43.0812 72.8037 38.0819 71.7788 33.2526C70.7539 28.4234 68.6422 23.8911 65.6041 19.9997C62.566 16.1084 58.6813 12.9604 54.245 10.7945C49.8086 8.62871 44.9371 7.50203 40.0003 7.5ZM26.2503 43.75C25.5086 43.75 24.7836 43.5301 24.1669 43.118C23.5502 42.706 23.0695 42.1203 22.7857 41.4351C22.5019 40.7498 22.4276 39.9958 22.5723 39.2684C22.717 38.541 23.0742 37.8728 23.5986 37.3483C24.1231 36.8239 24.7912 36.4667 25.5187 36.3221C26.2461 36.1774 27.0001 36.2516 27.6853 36.5355C28.3705 36.8193 28.9562 37.2999 29.3683 37.9166C29.7803 38.5333 30.0003 39.2583 30.0003 40C30.0003 40.9946 29.6052 41.9484 28.9019 42.6516C28.1986 43.3549 27.2448 43.75 26.2503 43.75ZM40.0003 43.75C39.2586 43.75 38.5336 43.5301 37.9169 43.118C37.3002 42.706 36.8195 42.1203 36.5357 41.4351C36.2519 40.7498 36.1776 39.9958 36.3223 39.2684C36.467 38.541 36.8242 37.8728 37.3486 37.3483C37.8731 36.8239 38.5412 36.4667 39.2687 36.3221C39.9961 36.1774 40.7501 36.2516 41.4353 36.5355C42.1205 36.8193 42.7062 37.2999 43.1183 37.9166C43.5303 38.5333 43.7503 39.2583 43.7503 40C43.7503 40.9946 43.3552 41.9484 42.6519 42.6516C41.9486 43.3549 40.9948 43.75 40.0003 43.75ZM53.7503 43.75C53.0086 43.75 52.2836 43.5301 51.6669 43.118C51.0502 42.706 50.5695 42.1203 50.2857 41.4351C50.0019 40.7498 49.9276 39.9958 50.0723 39.2684C50.217 38.541 50.5742 37.8728 51.0986 37.3483C51.6231 36.8239 52.2912 36.4667 53.0187 36.3221C53.7461 36.1774 54.5001 36.2516 55.1853 36.5355C55.8705 36.8193 56.4562 37.2999 56.8683 37.9166C57.2803 38.5333 57.5003 39.2583 57.5003 40C57.5003 40.9946 57.1052 41.9484 56.4019 42.6516C55.6986 43.3549 54.7448 43.75 53.7503 43.75Z" fill="#F55668"/>
<path d="M53.7503 43.75C53.0086 43.75 52.2836 43.5301 51.6669 43.118C51.0502 42.706 50.5695 42.1203 50.2857 41.4351C50.0019 40.7498 49.9276 39.9958 50.0723 39.2684C50.217 38.541 50.5742 37.8728 51.0986 37.3483C51.6231 36.8239 52.2912 36.4667 53.0187 36.3221C53.7461 36.1774 54.5001 36.2516 55.1853 36.5355C55.8705 36.8193 56.4562 37.2999 56.8683 37.9166C57.2803 38.5333 57.5003 39.2583 57.5003 40C57.5003 40.9946 57.1052 41.9484 56.4019 42.6516C55.6986 43.3549 54.7448 43.75 53.7503 43.75Z" fill="white"/>
<path d="M40.0003 43.75C39.2586 43.75 38.5336 43.5301 37.9169 43.118C37.3002 42.706 36.8195 42.1203 36.5357 41.4351C36.2519 40.7498 36.1776 39.9958 36.3223 39.2684C36.467 38.541 36.8242 37.8728 37.3486 37.3483C37.8731 36.8239 38.5412 36.4667 39.2687 36.3221C39.9961 36.1774 40.7501 36.2516 41.4353 36.5355C42.1205 36.8193 42.7062 37.2999 43.1183 37.9166C43.5303 38.5333 43.7503 39.2583 43.7503 40C43.7503 40.9946 43.3552 41.9484 42.6519 42.6516C41.9486 43.3549 40.9948 43.75 40.0003 43.75Z" fill="white"/>
<path d="M26.2503 43.75C25.5086 43.75 24.7836 43.5301 24.1669 43.118C23.5502 42.706 23.0695 42.1203 22.7857 41.4351C22.5019 40.7498 22.4276 39.9958 22.5723 39.2684C22.717 38.541 23.0742 37.8728 23.5986 37.3483C24.1231 36.8239 24.7912 36.4667 25.5187 36.3221C26.2461 36.1774 27.0001 36.2516 27.6853 36.5355C28.3705 36.8193 28.9562 37.2999 29.3683 37.9166C29.7803 38.5333 30.0003 39.2583 30.0003 40C30.0003 40.9946 29.6052 41.9484 28.9019 42.6516C28.1986 43.3549 27.2448 43.75 26.2503 43.75Z" fill="white"/>
</svg>
