<svg width="22" height="22" viewBox="0 0 22 22" fill="none" xmlns="http://www.w3.org/2000/svg">
<path d="M12.2188 10.9996C12.2188 11.2406 12.1473 11.4763 12.0134 11.6767C11.8794 11.8771 11.6891 12.0333 11.4664 12.1256C11.2437 12.2178 10.9986 12.2419 10.7622 12.1949C10.5258 12.1479 10.3087 12.0318 10.1382 11.8614C9.96777 11.6909 9.85169 11.4738 9.80467 11.2373C9.75764 11.0009 9.78178 10.7559 9.87402 10.5332C9.96627 10.3105 10.1225 10.1201 10.3229 9.98622C10.5233 9.8523 10.759 9.78082 11 9.78082C11.3232 9.78082 11.6332 9.90923 11.8618 10.1378C12.0903 10.3663 12.2188 10.6763 12.2188 10.9996ZM6.53125 9.78082C6.2902 9.78082 6.05457 9.8523 5.85415 9.98622C5.65373 10.1201 5.49752 10.3105 5.40527 10.5332C5.31303 10.7559 5.28889 11.0009 5.33592 11.2373C5.38294 11.4738 5.49902 11.6909 5.66946 11.8614C5.83991 12.0318 6.05707 12.1479 6.29348 12.1949C6.5299 12.2419 6.77495 12.2178 6.99765 12.1256C7.22034 12.0333 7.41069 11.8771 7.5446 11.6767C7.67852 11.4763 7.75 11.2406 7.75 10.9996C7.75 10.6763 7.6216 10.3663 7.39304 10.1378C7.16448 9.90923 6.85448 9.78082 6.53125 9.78082ZM15.4688 9.78082C15.2277 9.78082 14.9921 9.8523 14.7916 9.98622C14.5912 10.1201 14.435 10.3105 14.3428 10.5332C14.2505 10.7559 14.2264 11.0009 14.2734 11.2373C14.3204 11.4738 14.4365 11.6909 14.607 11.8614C14.7774 12.0318 14.9946 12.1479 15.231 12.1949C15.4674 12.2419 15.7124 12.2178 15.9351 12.1256C16.1578 12.0333 16.3482 11.8771 16.4821 11.6767C16.616 11.4763 16.6875 11.2406 16.6875 10.9996C16.6875 10.6763 16.5591 10.3663 16.3305 10.1378C16.102 9.90923 15.792 9.78082 15.4688 9.78082ZM21.5625 10.9996C21.5629 12.8232 21.0912 14.6158 20.1932 16.203C19.2952 17.7902 18.0017 19.1178 16.4384 20.0567C14.8751 20.9957 13.0953 21.5139 11.2723 21.5609C9.44935 21.6079 7.64525 21.1821 6.03562 20.325L2.57742 21.4778C2.2911 21.5733 1.98385 21.5871 1.6901 21.5178C1.39635 21.4485 1.12771 21.2987 0.914286 21.0853C0.700867 20.8719 0.551102 20.6032 0.481779 20.3095C0.412455 20.0157 0.426312 19.7085 0.521797 19.4221L1.67453 15.9639C0.921088 14.5474 0.500263 12.9778 0.443997 11.3743C0.387732 9.77083 0.697506 8.1756 1.3498 6.70971C2.0021 5.24382 2.97978 3.9458 4.20863 2.91417C5.43748 1.88255 6.88521 1.14443 8.44191 0.755853C9.99862 0.367273 11.6234 0.338443 13.1929 0.67155C14.7624 1.00466 16.2354 1.69095 17.5001 2.67832C18.7648 3.6657 19.7879 4.92822 20.4918 6.37005C21.1957 7.81187 21.5618 9.3951 21.5625 10.9996ZM19.9375 10.9996C19.9371 9.62861 19.6213 8.2761 19.0146 7.0467C18.4079 5.81731 17.5264 4.74397 16.4385 3.90973C15.3505 3.0755 14.0853 2.50273 12.7406 2.23573C11.3958 1.96874 10.0077 2.01468 8.6836 2.37001C7.35947 2.72533 6.13484 3.38051 5.10445 4.28486C4.07406 5.18921 3.26553 6.31848 2.74141 7.58531C2.21729 8.85214 1.99163 10.2226 2.08189 11.5906C2.17216 12.9585 2.57592 14.2874 3.26195 15.4744C3.31953 15.5741 3.35528 15.6848 3.36684 15.7993C3.37839 15.9138 3.36549 16.0295 3.32898 16.1386L2.0625 19.9371L5.86094 18.6706C5.94367 18.6424 6.03048 18.628 6.11789 18.6279C6.26059 18.6282 6.40071 18.666 6.52414 18.7376C7.88284 19.5237 9.42463 19.9381 10.9944 19.9391C12.5641 19.9401 14.1064 19.5277 15.4661 18.7433C16.8258 17.9589 17.9549 16.8302 18.7398 15.4708C19.5248 14.1114 19.9379 12.5693 19.9375 10.9996Z" fill="#656E6F"/>
</svg>
