<svg width="20" height="20" viewBox="0 0 20 20" fill="none" xmlns="http://www.w3.org/2000/svg">
<g id="check_circle">
<mask id="mask0_1102_2582" style="mask-type:alpha" maskUnits="userSpaceOnUse" x="0" y="0" width="20" height="20">
<rect id="Bounding box" width="20" height="20" fill="#D9D9D9"/>
</mask>
<g mask="url(#mask0_1102_2582)">
<path id="check_circle_2" d="M8.83366 11.4993L7.04199 9.70768C6.88921 9.5549 6.69477 9.47851 6.45866 9.47851C6.22255 9.47851 6.0281 9.5549 5.87533 9.70768C5.72255 9.86046 5.64616 10.0549 5.64616 10.291C5.64616 10.5271 5.72255 10.7216 5.87533 10.8743L8.25032 13.2493C8.41699 13.416 8.61144 13.4993 8.83366 13.4993C9.05588 13.4993 9.25032 13.416 9.41699 13.2493L14.1253 8.54101C14.2781 8.38824 14.3545 8.19379 14.3545 7.95768C14.3545 7.72157 14.2781 7.52713 14.1253 7.37435C13.9725 7.22157 13.7781 7.14518 13.542 7.14518C13.3059 7.14518 13.1114 7.22157 12.9587 7.37435L8.83366 11.4993ZM10.0003 18.3327C8.84755 18.3327 7.76421 18.1139 6.75032 17.6764C5.73644 17.2389 4.85449 16.6452 4.10449 15.8952C3.35449 15.1452 2.76074 14.2632 2.32324 13.2493C1.88574 12.2355 1.66699 11.1521 1.66699 9.99935C1.66699 8.84657 1.88574 7.76324 2.32324 6.74935C2.76074 5.73546 3.35449 4.85352 4.10449 4.10352C4.85449 3.35352 5.73644 2.75977 6.75032 2.32227C7.76421 1.88477 8.84755 1.66602 10.0003 1.66602C11.1531 1.66602 12.2364 1.88477 13.2503 2.32227C14.2642 2.75977 15.1462 3.35352 15.8962 4.10352C16.6462 4.85352 17.2399 5.73546 17.6774 6.74935C18.1149 7.76324 18.3337 8.84657 18.3337 9.99935C18.3337 11.1521 18.1149 12.2355 17.6774 13.2493C17.2399 14.2632 16.6462 15.1452 15.8962 15.8952C15.1462 16.6452 14.2642 17.2389 13.2503 17.6764C12.2364 18.1139 11.1531 18.3327 10.0003 18.3327Z" fill="#198754"/>
</g>
</g>
</svg>
