<svg width="60" height="60" viewBox="0 0 60 60" fill="none" xmlns="http://www.w3.org/2000/svg">
<mask id="mask0_4174_11773" style="mask-type:alpha" maskUnits="userSpaceOnUse" x="0" y="0" width="60" height="60">
<rect width="60" height="60" fill="#D9D9D9"/>
</mask>
<g mask="url(#mask0_4174_11773)">
<path d="M26.4912 34.5L21.1162 29.125C20.6579 28.6667 20.0745 28.4375 19.3662 28.4375C18.6579 28.4375 18.0745 28.6667 17.6162 29.125C17.1579 29.5833 16.9287 30.1667 16.9287 30.875C16.9287 31.5833 17.1579 32.1667 17.6162 32.625L24.7412 39.75C25.2412 40.25 25.8245 40.5 26.4912 40.5C27.1579 40.5 27.7412 40.25 28.2412 39.75L42.3662 25.625C42.8246 25.1667 43.0537 24.5833 43.0537 23.875C43.0537 23.1667 42.8246 22.5833 42.3662 22.125C41.9079 21.6667 41.3246 21.4375 40.6162 21.4375C39.9079 21.4375 39.3246 21.6667 38.8662 22.125L26.4912 34.5ZM29.9912 55C26.5329 55 23.2829 54.3438 20.2412 53.0313C17.1995 51.7188 14.5537 49.9375 12.3037 47.6875C10.0537 45.4375 8.27246 42.7917 6.95996 39.75C5.64746 36.7083 4.99121 33.4583 4.99121 30C4.99121 26.5417 5.64746 23.2917 6.95996 20.25C8.27246 17.2083 10.0537 14.5625 12.3037 12.3125C14.5537 10.0625 17.1995 8.28125 20.2412 6.96875C23.2829 5.65625 26.5329 5 29.9912 5C33.4496 5 36.6996 5.65625 39.7412 6.96875C42.7829 8.28125 45.4287 10.0625 47.6787 12.3125C49.9287 14.5625 51.71 17.2083 53.0225 20.25C54.335 23.2917 54.9912 26.5417 54.9912 30C54.9912 33.4583 54.335 36.7083 53.0225 39.75C51.71 42.7917 49.9287 45.4375 47.6787 47.6875C45.4287 49.9375 42.7829 51.7188 39.7412 53.0313C36.6996 54.3438 33.4496 55 29.9912 55ZM29.9912 50C35.5746 50 40.3037 48.0625 44.1787 44.1875C48.0537 40.3125 49.9912 35.5833 49.9912 30C49.9912 24.4167 48.0537 19.6875 44.1787 15.8125C40.3037 11.9375 35.5746 10 29.9912 10C24.4079 10 19.6787 11.9375 15.8037 15.8125C11.9287 19.6875 9.99121 24.4167 9.99121 30C9.99121 35.5833 11.9287 40.3125 15.8037 44.1875C19.6787 48.0625 24.4079 50 29.9912 50Z" fill="#198754"/>
</g>
</svg>
