<svg width="186" height="178" viewBox="0 0 186 178" fill="none" xmlns="http://www.w3.org/2000/svg">
<path d="M42.6228 155.027C42.6228 155.027 45.4803 131.717 47.1228 126.625C48.7653 121.532 48.3003 72.7449 48.3528 72.2499C48.4053 71.7549 21.9677 84.9324 19.6577 88.8549C17.3477 92.7774 23.3627 118.36 21.6752 122.057C19.9877 125.755 14.4902 141.955 14.4902 141.955L42.6228 155.027Z" fill="white"/>
<path d="M42.6226 155.403C42.5681 155.401 42.5145 155.388 42.4651 155.365L14.3251 142.293C14.2398 142.256 14.1715 142.189 14.134 142.104C14.0964 142.019 14.0924 141.923 14.1226 141.835C14.3476 141.168 19.6576 125.568 21.3301 121.9C22.0801 120.273 21.1501 113.538 20.2501 107.028C19.1626 99.0853 18.0001 90.8728 19.3276 88.6678C20.6551 86.4628 28.2601 82.0603 34.4701 78.6928C36.5101 77.5903 47.7376 71.6653 48.4576 71.8828C48.5404 71.911 48.6114 71.9663 48.659 72.0398C48.7066 72.1133 48.7281 72.2006 48.7201 72.2878C48.7201 72.4003 48.7201 73.7203 48.7201 75.5353C48.7576 87.1228 48.8701 122.373 47.4601 126.745C45.8551 131.74 43.0201 154.84 42.9601 155.073C42.9447 155.162 42.8991 155.244 42.8309 155.304C42.7627 155.364 42.6759 155.399 42.5851 155.403H42.6226ZM14.9476 141.753L42.3151 154.503C42.7501 150.978 45.2401 131.253 46.7551 126.55C47.6626 123.73 48.0751 106.578 47.9776 75.5503C47.9776 74.0503 47.9776 73.2103 47.9776 72.7528C44.4976 74.1328 22.0351 85.5553 19.9801 89.0578C18.8176 91.0378 19.9801 99.4828 21.0076 106.93C21.9976 114.153 22.8526 120.43 22.0201 122.223C20.4826 125.56 15.7501 139.465 14.9476 141.753Z" fill="#1D2021"/>
<path d="M42.2028 175.494L46.7253 145.344L15.9677 130.119L0.427734 173.972L42.2028 175.494Z" fill="#F55668"/>
<path d="M42.2025 175.869L0.435012 174.369C0.376038 174.369 0.317992 174.355 0.265776 174.327C0.213561 174.3 0.168709 174.26 0.13501 174.212C0.10248 174.163 0.0815275 174.107 0.0737331 174.048C0.0659386 173.99 0.0715066 173.93 0.0900123 173.874L15.615 129.999C15.6346 129.95 15.664 129.906 15.7013 129.868C15.7387 129.831 15.7833 129.801 15.8324 129.782C15.8815 129.762 15.9341 129.753 15.987 129.754C16.0399 129.755 16.0919 129.767 16.14 129.789L46.89 145.014C46.9627 145.048 47.0225 145.104 47.0604 145.174C47.0983 145.245 47.1122 145.325 47.1 145.404L42.6 175.554C42.5837 175.646 42.5342 175.729 42.461 175.787C42.3877 175.845 42.2958 175.875 42.2025 175.869ZM0.952508 173.619L41.88 175.119L46.3125 145.569L16.185 130.644L0.952508 173.619Z" fill="#F55668"/>
<path d="M141.352 13.9824H47.3322C44.6813 13.9824 42.5322 16.1315 42.5322 18.7824V143.26C42.5322 145.911 44.6813 148.06 47.3322 148.06H141.352C144.003 148.06 146.152 145.911 146.152 143.26V18.7824C146.152 16.1315 144.003 13.9824 141.352 13.9824Z" fill="white"/>
<path d="M141.352 148.442H47.3247C45.9541 148.438 44.6409 147.891 43.6725 146.921C42.704 145.951 42.1592 144.637 42.1572 143.267V18.7668C42.1592 17.3962 42.704 16.0822 43.6725 15.1124C44.6409 14.1425 45.9541 13.5958 47.3247 13.5918H141.352C142.724 13.5938 144.039 14.1396 145.009 15.1097C145.979 16.0798 146.525 17.3949 146.527 18.7668V143.267C146.525 144.639 145.979 145.954 145.009 146.924C144.039 147.894 142.724 148.44 141.352 148.442ZM47.3247 14.3568C46.1524 14.3588 45.0289 14.8259 44.2006 15.6555C43.3724 16.4851 42.9072 17.6095 42.9072 18.7818V143.282C42.9072 144.454 43.3724 145.579 44.2006 146.408C45.0289 147.238 46.1524 147.705 47.3247 147.707H141.352C142.525 147.705 143.65 147.238 144.479 146.409C145.308 145.579 145.775 144.455 145.777 143.282V18.7818C145.775 17.6088 145.308 16.4845 144.479 15.655C143.65 14.8256 142.525 14.3588 141.352 14.3568H47.3247Z" fill="#1D2021"/>
<path d="M139.8 22.2031H48.8779V139.855H139.8V22.2031Z" fill="white"/>
<path d="M139.8 140.231H48.8779C48.7785 140.231 48.6831 140.191 48.6128 140.121C48.5424 140.051 48.5029 139.955 48.5029 139.856V22.2031C48.5029 22.1037 48.5424 22.0083 48.6128 21.938C48.6831 21.8676 48.7785 21.8281 48.8779 21.8281H139.8C139.9 21.8281 139.995 21.8676 140.066 21.938C140.136 22.0083 140.175 22.1037 140.175 22.2031V139.856C140.175 139.955 140.136 140.051 140.066 140.121C139.995 140.191 139.9 140.231 139.8 140.231ZM49.2529 139.481H139.425V22.5781H49.2529V139.481Z" fill="#1D2021"/>
<path d="M118.102 9.24965H104.999C104.519 6.76885 103.19 4.53268 101.24 2.92478C99.2909 1.31688 96.8427 0.4375 94.3157 0.4375C91.7888 0.4375 89.3406 1.31688 87.3912 2.92478C85.4418 4.53268 84.1127 6.76885 83.632 9.24965H70.582C69.7498 9.24965 68.9516 9.5797 68.3625 10.1674C67.7734 10.7551 67.4414 11.5525 67.4395 12.3846V23.3121C67.4414 24.1443 67.7734 24.9417 68.3625 25.5294C68.9516 26.1171 69.7498 26.4471 70.582 26.4471H118.102C118.933 26.4471 119.731 26.1168 120.319 25.5289C120.907 24.941 121.237 24.1436 121.237 23.3121V12.3771C121.235 11.547 120.904 10.7515 120.316 10.1652C119.728 9.57891 118.932 9.24965 118.102 9.24965ZM94.342 10.6747C93.7898 10.6761 93.2497 10.5138 92.7899 10.2081C92.3301 9.90244 91.9713 9.46722 91.759 8.95754C91.5467 8.44787 91.4904 7.88666 91.5972 7.34497C91.704 6.80327 91.9691 6.30543 92.359 5.9145C92.7489 5.52356 93.246 5.25709 93.7874 5.14883C94.3288 5.04057 94.8902 5.09538 95.4004 5.30632C95.9107 5.51727 96.3468 5.87486 96.6537 6.33384C96.9606 6.79281 97.1245 7.33253 97.1245 7.88465C97.1225 8.6227 96.829 9.33007 96.3078 9.85266C95.7866 10.3752 95.08 10.6707 94.342 10.6747Z" fill="#F55668"/>
<path d="M83.9105 59.845H61.9505C61.859 59.845 61.7712 59.8087 61.7065 59.744C61.6418 59.6793 61.6055 59.5915 61.6055 59.5V36.0325C61.6055 35.941 61.6418 35.8532 61.7065 35.7885C61.7712 35.7238 61.859 35.6875 61.9505 35.6875H83.9105C84.0014 35.6894 84.088 35.7264 84.1523 35.7907C84.2166 35.855 84.2535 35.9416 84.2555 36.0325V59.5C84.2535 59.5909 84.2166 59.6776 84.1523 59.7418C84.088 59.8061 84.0014 59.8431 83.9105 59.845ZM62.2955 59.1475H83.5655V36.3775H62.2955V59.1475Z" fill="#FBBBC3"/>
<path d="M89.0551 41.769C88.9398 41.9634 88.8067 42.1467 88.6576 42.3165L74.4676 56.499C74.3958 56.6121 74.2967 56.7052 74.1793 56.7697C74.062 56.8342 73.9303 56.868 73.7963 56.868C73.6624 56.868 73.5307 56.8342 73.4133 56.7697C73.296 56.7052 73.1968 56.6121 73.1251 56.499L65.1451 48.249C65.0371 48.1784 64.9492 48.0811 64.8898 47.9665C64.8304 47.852 64.8016 47.724 64.8061 47.5951C64.8106 47.4661 64.8484 47.3405 64.9156 47.2304C64.9829 47.1203 65.0774 47.0294 65.1901 46.9665L67.1926 45.1665C67.2623 45.0719 67.3533 44.995 67.4581 44.942C67.563 44.8891 67.6788 44.8615 67.7963 44.8615C67.9138 44.8615 68.0297 44.8891 68.1346 44.942C68.2394 44.995 68.3304 45.0719 68.4001 45.1665C69.9651 46.7715 71.5376 48.374 73.1176 49.974C73.1903 50.087 73.2901 50.18 73.4081 50.2444C73.526 50.3087 73.6582 50.3425 73.7926 50.3425C73.927 50.3425 74.0592 50.3087 74.1771 50.2444C74.295 50.18 74.3949 50.087 74.4676 49.974L85.5001 39.0315C85.5728 38.9232 85.671 38.8345 85.7861 38.7731C85.9012 38.7118 86.0297 38.6797 86.1601 38.6797C86.2905 38.6797 86.4189 38.7118 86.534 38.7731C86.6491 38.8345 86.7474 38.9232 86.8201 39.0315C87.4426 39.6615 88.0651 40.284 88.6801 40.914C88.8183 41.0809 88.946 41.2563 89.0626 41.439L89.0551 41.769Z" fill="#F55668"/>
<path d="M128.385 44.4241H96.8471C96.7634 44.4118 96.6869 44.3698 96.6316 44.3057C96.5763 44.2417 96.5459 44.1599 96.5459 44.0753C96.5459 43.9907 96.5763 43.9089 96.6316 43.8449C96.6869 43.7809 96.7634 43.7389 96.8471 43.7266H128.385C128.468 43.7389 128.545 43.7809 128.6 43.8449C128.655 43.9089 128.686 43.9907 128.686 44.0753C128.686 44.1599 128.655 44.2417 128.6 44.3057C128.545 44.3698 128.468 44.4118 128.385 44.4241Z" fill="#FBBBC3"/>
<path d="M120 51.7974H96.8479C96.7564 51.7974 96.6687 51.7611 96.604 51.6964C96.5393 51.6317 96.5029 51.5439 96.5029 51.4524C96.5029 51.3609 96.5393 51.2732 96.604 51.2085C96.6687 51.1438 96.7564 51.1074 96.8479 51.1074H120C120.092 51.1074 120.18 51.1438 120.244 51.2085C120.309 51.2732 120.345 51.3609 120.345 51.4524C120.345 51.5439 120.309 51.6317 120.244 51.6964C120.18 51.7611 120.092 51.7974 120 51.7974Z" fill="#FBBBC3"/>
<path d="M83.9096 91.8844H61.9496C61.904 91.8854 61.8587 91.8772 61.8164 91.8602C61.774 91.8432 61.7356 91.8179 61.7033 91.7856C61.6711 91.7534 61.6457 91.7149 61.6287 91.6726C61.6118 91.6303 61.6036 91.585 61.6046 91.5394V68.0794C61.6046 67.9879 61.6409 67.9001 61.7056 67.8354C61.7703 67.7707 61.8581 67.7344 61.9496 67.7344H83.9096C84.0005 67.7363 84.0871 67.7732 84.1514 67.8375C84.2157 67.9018 84.2527 67.9885 84.2546 68.0794V91.5394C84.2546 91.6309 84.2182 91.7186 84.1535 91.7833C84.0888 91.848 84.0011 91.8844 83.9096 91.8844ZM62.2946 91.1944H83.5646V68.4244H62.2946V91.1944Z" fill="#FBBBC3"/>
<path d="M89.0551 73.8178C88.9398 74.0122 88.8067 74.1955 88.6576 74.3653L74.4676 88.5328C74.3958 88.6459 74.2967 88.739 74.1793 88.8035C74.062 88.868 73.9303 88.9019 73.7963 88.9019C73.6624 88.9019 73.5307 88.868 73.4133 88.8035C73.296 88.739 73.1968 88.6459 73.1251 88.5328L65.1451 80.2828C65.0371 80.2122 64.9492 80.1149 64.8898 80.0003C64.8304 79.8858 64.8016 79.7578 64.8061 79.6289C64.8106 79.4999 64.8484 79.3743 64.9156 79.2642C64.9829 79.1541 65.0774 79.0632 65.1901 79.0003L67.1926 77.2003C67.2623 77.1057 67.3533 77.0289 67.4581 76.9759C67.563 76.9229 67.6788 76.8953 67.7963 76.8953C67.9138 76.8953 68.0297 76.9229 68.1346 76.9759C68.2394 77.0289 68.3304 77.1057 68.4001 77.2003C69.9651 78.8053 71.5376 80.4078 73.1176 82.0078C73.1903 82.1208 73.2901 82.2138 73.4081 82.2782C73.526 82.3426 73.6582 82.3763 73.7926 82.3763C73.927 82.3763 74.0592 82.3426 74.1771 82.2782C74.295 82.2138 74.3949 82.1208 74.4676 82.0078L85.5001 71.0803C85.5728 70.972 85.671 70.8833 85.7861 70.822C85.9012 70.7606 86.0297 70.7285 86.1601 70.7285C86.2905 70.7285 86.4189 70.7606 86.534 70.822C86.6491 70.8833 86.7474 70.972 86.8201 71.0803C87.4426 71.7028 88.0651 72.3253 88.6801 72.9628C88.8183 73.1298 88.946 73.3051 89.0626 73.4878L89.0551 73.8178Z" fill="#F55668"/>
<path d="M128.385 76.4729H96.8471C96.7634 76.4606 96.6869 76.4186 96.6316 76.3546C96.5763 76.2905 96.5459 76.2087 96.5459 76.1241C96.5459 76.0395 96.5763 75.9578 96.6316 75.8937C96.6869 75.8297 96.7634 75.7877 96.8471 75.7754H128.385C128.468 75.7877 128.545 75.8297 128.6 75.8937C128.655 75.9578 128.686 76.0395 128.686 76.1241C128.686 76.2087 128.655 76.2905 128.6 76.3546C128.545 76.4186 128.468 76.4606 128.385 76.4729Z" fill="#FBBBC3"/>
<path d="M120 83.8443H96.8479C96.7564 83.8443 96.6687 83.808 96.604 83.7433C96.5393 83.6786 96.5029 83.5908 96.5029 83.4993C96.5029 83.4078 96.5393 83.32 96.604 83.2553C96.6687 83.1906 96.7564 83.1543 96.8479 83.1543H120C120.092 83.1543 120.18 83.1906 120.244 83.2553C120.309 83.32 120.345 83.4078 120.345 83.4993C120.345 83.5908 120.309 83.6786 120.244 83.7433C120.18 83.808 120.092 83.8443 120 83.8443Z" fill="#FBBBC3"/>
<path d="M83.9105 123.797H61.9505C61.859 123.797 61.7712 123.76 61.7065 123.696C61.6418 123.631 61.6055 123.543 61.6055 123.452V99.9993C61.6055 99.9078 61.6418 99.82 61.7065 99.7553C61.7712 99.6906 61.859 99.6543 61.9505 99.6543H83.9105C84.0014 99.6562 84.088 99.6932 84.1523 99.7575C84.2166 99.8218 84.2535 99.9084 84.2555 99.9993V123.467C84.2498 123.555 84.2112 123.638 84.1473 123.699C84.0834 123.76 83.9989 123.795 83.9105 123.797ZM62.2955 123.107H83.5655V100.329H62.2955V123.107Z" fill="#FBBBC3"/>
<path d="M89.0551 105.723C88.9398 105.917 88.8067 106.1 88.6576 106.27L74.4676 120.438C73.9801 120.925 73.6051 120.933 73.1251 120.438C70.4601 117.693 67.8001 114.943 65.1451 112.188C65.0371 112.117 64.9492 112.02 64.8898 111.905C64.8304 111.791 64.8016 111.663 64.8061 111.534C64.8106 111.405 64.8484 111.279 64.9156 111.169C64.9829 111.059 65.0774 110.968 65.1901 110.905L67.1926 109.105C67.2623 109.011 67.3533 108.934 67.4581 108.881C67.563 108.828 67.6788 108.8 67.7963 108.8C67.9138 108.8 68.0297 108.828 68.1346 108.881C68.2394 108.934 68.3304 109.011 68.4001 109.105L73.1176 113.92C73.1903 114.033 73.2901 114.126 73.4081 114.191C73.526 114.255 73.6582 114.289 73.7926 114.289C73.927 114.289 74.0592 114.255 74.1771 114.191C74.295 114.126 74.3949 114.033 74.4676 113.92L85.5001 103C85.5728 102.892 85.671 102.803 85.7861 102.742C85.9012 102.681 86.0297 102.648 86.1601 102.648C86.2905 102.648 86.4189 102.681 86.534 102.742C86.6491 102.803 86.7474 102.892 86.8201 103C87.4426 103.63 88.0651 104.253 88.6801 104.883C88.8183 105.05 88.946 105.225 89.0626 105.408L89.0551 105.723Z" fill="#F55668"/>
<path d="M128.385 108.377H96.8479C96.757 108.376 96.6704 108.339 96.6061 108.274C96.5418 108.21 96.5048 108.123 96.5029 108.033C96.5029 107.941 96.5393 107.853 96.604 107.789C96.6687 107.724 96.7564 107.687 96.8479 107.688H128.385C128.477 107.688 128.565 107.724 128.629 107.789C128.694 107.853 128.73 107.941 128.73 108.033C128.729 108.123 128.692 108.21 128.627 108.274C128.563 108.339 128.476 108.376 128.385 108.377Z" fill="#FBBBC3"/>
<path d="M120 115.749H96.8479C96.7564 115.749 96.6687 115.712 96.604 115.648C96.5393 115.583 96.5029 115.495 96.5029 115.404C96.5048 115.313 96.5418 115.226 96.6061 115.162C96.6704 115.097 96.757 115.061 96.8479 115.059H120C120.091 115.061 120.178 115.097 120.242 115.162C120.307 115.226 120.344 115.313 120.345 115.404C120.345 115.495 120.309 115.583 120.244 115.648C120.18 115.712 120.092 115.749 120 115.749Z" fill="#FBBBC3"/>
<path d="M28.1553 95.4166C33.6828 89.4166 40.2678 84.4141 47.1528 80.0116C48.8553 78.9166 50.6928 77.8216 52.7178 77.7616C54.7428 77.7016 56.9478 79.1416 57.0078 81.1666C57.0528 82.7566 55.8528 84.0766 54.7578 85.2016L40.0353 99.9991C41.8173 103.376 42.5689 107.201 42.1969 111.001C41.825 114.8 40.3457 118.407 37.9428 121.374" fill="white"/>
<path d="M37.9427 121.749C37.8553 121.751 37.77 121.722 37.7027 121.666C37.6272 121.601 37.5802 121.509 37.5718 121.409C37.5634 121.31 37.5942 121.211 37.6577 121.134C40.0022 118.219 41.4448 114.684 41.8085 110.962C42.1722 107.239 41.4412 103.492 39.7052 100.179C39.6674 100.107 39.6535 100.026 39.6657 99.9463C39.6778 99.8665 39.7154 99.7929 39.7727 99.7362L54.4652 84.9762C55.5827 83.8512 56.6777 82.6362 56.6327 81.2262C56.5802 79.3887 54.5177 78.1437 52.7252 78.2262C50.9327 78.3087 49.1027 79.2762 47.3552 80.4012C39.3527 85.5162 33.3377 90.3912 28.4327 95.7462C28.3651 95.8198 28.271 95.8635 28.1711 95.8677C28.0712 95.8719 27.9738 95.8363 27.9002 95.7687C27.8266 95.701 27.7829 95.607 27.7787 95.5071C27.7744 95.4072 27.8101 95.3098 27.8777 95.2362C32.8277 89.8362 38.8877 84.9237 46.9502 79.7637C48.7952 78.5862 50.6252 77.5137 52.7102 77.5137C54.7952 77.5137 57.3152 79.0137 57.3827 81.2637C57.4352 82.9737 56.2352 84.3312 54.9977 85.5687L40.5002 100.044C42.2703 103.464 43.0005 107.328 42.6007 111.158C42.2009 114.988 40.6885 118.618 38.2502 121.599C38.2137 121.645 38.1671 121.683 38.1138 121.709C38.0605 121.735 38.002 121.749 37.9427 121.749Z" fill="#1D2021"/>
<path d="M156.847 139.801L138.69 152.806L104.745 110.844C104.797 108.594 103.245 98.7162 106.597 100.344C109.95 101.971 122.452 116.221 124.515 116.686C126.577 117.151 131.355 114.811 130.635 110.199C129.915 105.586 129.045 97.8237 124.53 97.5012C117.682 97.0137 111.315 101.559 108.607 100.501C105.9 99.4437 103.665 95.8512 108.082 93.1962C113.137 90.1962 124.02 88.2462 132.742 89.1912C141.465 90.1362 148.08 107.686 148.695 120.541C150.99 128.716 155.422 136.164 156.847 139.801Z" fill="white"/>
<path d="M138.69 153.182C138.633 153.182 138.578 153.169 138.527 153.145C138.476 153.12 138.432 153.084 138.397 153.039L104.46 111.084C104.401 111.015 104.369 110.927 104.37 110.837C104.37 110.387 104.325 109.599 104.257 108.692C103.965 104.642 103.815 100.937 105.195 99.9917C105.43 99.8486 105.7 99.7729 105.975 99.7729C106.25 99.7729 106.52 99.8486 106.755 99.9917C108.54 100.839 112.635 104.964 116.602 108.954C119.932 112.307 123.705 116.102 124.597 116.312C125.49 116.522 127.365 116.012 128.7 114.767C129.32 114.21 129.79 113.506 130.064 112.719C130.338 111.932 130.408 111.088 130.267 110.267L130.125 109.352C129.45 104.904 128.43 98.1767 124.507 97.8917C120.84 97.6292 117.255 98.8592 114.382 99.8492C111.84 100.719 109.837 101.409 108.472 100.892C107.634 100.6 106.89 100.088 106.317 99.41C105.744 98.7318 105.364 97.9121 105.217 97.0367C105.12 95.9492 105.502 94.3442 107.887 92.9117C113.137 89.7542 124.312 87.9392 132.78 88.8542C141.967 89.8592 148.447 107.957 149.07 120.519C150.637 126.084 153.217 131.364 155.107 135.219C155.985 137.004 156.742 138.549 157.192 139.719C157.222 139.796 157.225 139.88 157.202 139.958C157.179 140.037 157.131 140.105 157.065 140.154L138.907 153.167C138.838 153.193 138.762 153.198 138.69 153.182ZM105.127 110.717L138.75 152.297L156.382 139.667C155.932 138.572 155.227 137.139 154.425 135.504C152.52 131.612 149.925 126.279 148.327 120.639C148.324 120.612 148.324 120.584 148.327 120.557C147.75 108.557 141.382 90.5042 132.712 89.5592C124.372 88.6517 113.415 90.4217 108.285 93.5042C106.657 94.4867 105.862 95.6642 105.975 96.9242C106.106 97.661 106.433 98.3491 106.921 98.9164C107.409 99.4837 108.041 99.9095 108.75 100.149C109.852 100.562 111.84 99.8867 114.142 99.0917C117.09 98.0867 120.742 96.8417 124.567 97.0967C129.067 97.4267 130.162 104.507 130.875 109.194L131.017 110.109C131.178 111.056 131.098 112.028 130.783 112.935C130.468 113.842 129.93 114.655 129.217 115.299C127.837 116.589 125.782 117.332 124.44 117.024C123.382 116.784 120.57 114.024 116.077 109.472C112.327 105.722 108.105 101.447 106.447 100.652C105.922 100.404 105.697 100.562 105.622 100.614C104.482 101.364 104.827 106.104 105.015 108.632C105.067 109.517 105.12 110.229 105.127 110.717Z" fill="#1D2021"/>
<path d="M93.4273 103.016L94.1998 109.143L87.7273 107.936L84.2773 107.291L87.4573 105.806L93.4273 103.016Z" fill="white"/>
<path d="M94.1998 109.517H94.1323L84.2098 107.665C84.1317 107.65 84.0602 107.611 84.0061 107.553C83.9521 107.495 83.9183 107.421 83.9098 107.342C83.8989 107.263 83.9133 107.183 83.9511 107.113C83.9888 107.043 84.0479 106.986 84.1198 106.952L93.2623 102.685C93.3156 102.657 93.3748 102.643 93.4348 102.643C93.4948 102.643 93.554 102.657 93.6073 102.685C93.6585 102.714 93.702 102.756 93.7346 102.805C93.7671 102.855 93.7877 102.911 93.7948 102.97L94.5448 109.097C94.5489 109.15 94.5423 109.202 94.5255 109.252C94.5086 109.302 94.4819 109.348 94.4469 109.387C94.4119 109.426 94.3692 109.458 94.3216 109.48C94.274 109.503 94.2224 109.515 94.1698 109.517H94.1998ZM85.4998 107.132L93.7498 108.677L93.1048 103.57L85.4998 107.132Z" fill="#111827"/>
<path d="M141.75 103.111L94.1927 109.111C93.6948 108.175 93.36 107.16 93.2027 106.111C93.0945 105.059 93.1681 103.996 93.4202 102.969L140.97 96.9688L141.75 103.111Z" fill="#F55668"/>
<path d="M94.1996 109.516C94.1342 109.516 94.07 109.499 94.0134 109.466C93.9568 109.433 93.9098 109.386 93.8771 109.329C93.3517 108.355 93.0014 107.297 92.8421 106.201C92.7265 105.105 92.8001 103.996 93.0596 102.924C93.0775 102.851 93.1173 102.785 93.1736 102.736C93.2299 102.686 93.3001 102.655 93.3746 102.646L140.932 96.6089C141.031 96.6002 141.129 96.6294 141.207 96.6908C141.286 96.7521 141.337 96.8408 141.352 96.9389L142.102 103.066C142.11 103.115 142.108 103.165 142.095 103.213C142.082 103.261 142.059 103.306 142.027 103.344C141.997 103.382 141.96 103.413 141.917 103.437C141.875 103.46 141.828 103.474 141.78 103.479L94.2296 109.516H94.1996ZM93.7346 103.359C93.5394 104.263 93.4888 105.192 93.5846 106.111C93.7192 107.026 94.0003 107.912 94.4171 108.736L141.337 102.781L140.655 97.4039L93.7346 103.359Z" fill="#111827"/>
<path d="M149.365 102.153L141.761 103.117L140.984 96.9939L148.588 96.0293C149.038 95.9722 149.492 96.0962 149.851 96.374C150.209 96.6518 150.443 97.0606 150.5 97.5105L150.846 100.241C150.903 100.691 150.779 101.145 150.502 101.504C150.224 101.862 149.815 102.096 149.365 102.153Z" fill="white"/>
<path d="M141.75 103.486C141.659 103.485 141.57 103.451 141.501 103.391C141.433 103.33 141.388 103.247 141.375 103.156L140.625 97.0287C140.619 96.9798 140.622 96.9301 140.635 96.8825C140.648 96.8349 140.67 96.7903 140.7 96.7512C140.762 96.6747 140.85 96.6239 140.948 96.6087L148.553 95.6487C149.101 95.5807 149.655 95.7326 150.092 96.0713C150.529 96.41 150.814 96.9079 150.885 97.4562L151.23 100.186C151.298 100.735 151.146 101.288 150.808 101.725C150.469 102.162 149.971 102.448 149.423 102.519L141.818 103.479L141.75 103.486ZM141.39 97.3062L142.073 102.691L149.31 101.776C149.661 101.728 149.979 101.543 150.195 101.263C150.411 100.982 150.508 100.628 150.465 100.276L150.12 97.5462C150.098 97.3717 150.042 97.2033 149.954 97.0506C149.867 96.898 149.75 96.7642 149.61 96.6568C149.471 96.5495 149.312 96.4708 149.142 96.4252C148.972 96.3796 148.795 96.3681 148.62 96.3912L141.39 97.3062Z" fill="#111827"/>
<path d="M143.477 96.6669L142.606 96.7773L143.383 102.901L144.254 102.79L143.477 96.6669Z" fill="#111827"/>
<path d="M145.205 96.4521L144.335 96.5625L145.112 102.686L145.982 102.575L145.205 96.4521Z" fill="#111827"/>
<path d="M87.4574 105.805L87.7274 107.935L84.2773 107.29L87.4574 105.805Z" fill="#F55668"/>
<path d="M87.7498 108.31H87.6748L84.2323 107.665C84.1541 107.651 84.0827 107.611 84.0286 107.553C83.9745 107.495 83.9407 107.421 83.9323 107.342C83.9213 107.263 83.9358 107.183 83.9735 107.113C84.0113 107.043 84.0704 106.986 84.1423 106.952L87.3148 105.452C87.3681 105.425 87.4272 105.41 87.4873 105.41C87.5473 105.41 87.6065 105.425 87.6598 105.452C87.7109 105.482 87.7545 105.523 87.7871 105.573C87.8196 105.622 87.8402 105.678 87.8473 105.737L88.1173 107.86C88.1247 107.913 88.1209 107.966 88.1059 108.018C88.0909 108.069 88.0651 108.116 88.0303 108.157C87.9955 108.197 87.9525 108.23 87.9041 108.252C87.8558 108.275 87.8031 108.287 87.7498 108.287V108.31ZM85.4998 107.132L87.2923 107.47L87.1573 106.36L85.4998 107.132Z" fill="#111827"/>
<path d="M85.4998 107.132L87.2923 107.47L87.1573 106.36L85.4998 107.132Z" fill="#111827"/>
<path d="M106.455 112.96C106.455 112.96 101.76 107.132 100.388 104.98C98.1378 101.47 103.665 98.3647 105.638 99.8347C107.055 100.877 114.36 107.335 115.83 108.722" fill="white"/>
<path d="M106.455 113.334C106.399 113.335 106.343 113.322 106.292 113.297C106.241 113.272 106.197 113.236 106.162 113.192C105.975 112.959 101.445 107.327 100.072 105.174C99.6013 104.455 99.417 103.585 99.5559 102.737C99.6947 101.889 100.147 101.123 100.822 100.592C102.21 99.2942 104.572 98.5592 105.922 99.5342C107.272 100.509 114.66 107.034 116.145 108.452C116.181 108.486 116.21 108.526 116.23 108.572C116.25 108.617 116.261 108.665 116.263 108.715C116.264 108.764 116.256 108.814 116.238 108.86C116.22 108.906 116.194 108.948 116.16 108.984C116.126 109.02 116.085 109.049 116.04 109.069C115.995 109.09 115.946 109.101 115.897 109.102C115.847 109.103 115.798 109.095 115.752 109.077C115.706 109.06 115.663 109.033 115.627 108.999C114.127 107.589 106.867 101.162 105.472 100.142C104.572 99.4817 102.6 99.9542 101.332 101.139C100.8 101.564 100.444 102.171 100.333 102.843C100.223 103.515 100.365 104.204 100.732 104.777C102.082 106.892 106.732 112.667 106.777 112.727C106.809 112.764 106.833 112.808 106.848 112.855C106.862 112.902 106.867 112.951 106.862 113C106.857 113.049 106.843 113.097 106.819 113.14C106.796 113.183 106.764 113.221 106.725 113.252C106.688 113.283 106.645 113.306 106.598 113.321C106.552 113.335 106.503 113.339 106.455 113.334Z" fill="#111827"/>
<path d="M153.54 125.672L127.853 145.164L139.8 177.069L185.573 174.827L153.54 125.672Z" fill="#F55668"/>
<path d="M139.8 177.444C139.724 177.445 139.649 177.422 139.586 177.379C139.523 177.336 139.475 177.275 139.448 177.204L127.5 145.299C127.471 145.225 127.467 145.143 127.488 145.065C127.51 144.988 127.556 144.92 127.62 144.872L153.308 125.372C153.349 125.34 153.396 125.318 153.447 125.306C153.497 125.294 153.549 125.294 153.6 125.304C153.651 125.313 153.699 125.332 153.741 125.361C153.784 125.389 153.82 125.426 153.848 125.469L185.873 174.624C185.911 174.679 185.933 174.742 185.938 174.809C185.942 174.875 185.929 174.941 185.899 175C185.869 175.06 185.824 175.11 185.767 175.145C185.711 175.181 185.647 175.2 185.58 175.202L139.83 177.452L139.8 177.444ZM128.303 145.299L140.055 176.687L184.898 174.489L153.443 126.249L128.303 145.299Z" fill="#F55668"/>
</svg>
