<svg width="16" height="15" viewBox="0 0 16 15" fill="none" xmlns="http://www.w3.org/2000/svg">
<path d="M8 0.1875C6.55373 0.1875 5.13993 0.616371 3.9374 1.41988C2.73486 2.22339 1.7976 3.36544 1.24413 4.70163C0.690668 6.03781 0.545857 7.50811 0.828011 8.9266C1.11017 10.3451 1.80661 11.648 2.82928 12.6707C3.85196 13.6934 5.15492 14.3898 6.57341 14.672C7.99189 14.9541 9.46219 14.8093 10.7984 14.2559C12.1346 13.7024 13.2766 12.7651 14.0801 11.5626C14.8836 10.3601 15.3125 8.94628 15.3125 7.5C15.3105 5.56123 14.5394 3.70246 13.1685 2.33154C11.7975 0.960627 9.93877 0.189547 8 0.1875ZM11.6267 4.25086L9.37672 8.75086C9.34917 8.80509 9.3051 8.84917 9.25086 8.87672L4.75086 11.1267C4.69803 11.1533 4.63818 11.1625 4.57982 11.1531C4.52145 11.1437 4.46753 11.1161 4.42573 11.0743C4.38392 11.0325 4.35635 10.9786 4.34694 10.9202C4.33752 10.8618 4.34674 10.802 4.37328 10.7491L6.62328 6.24914C6.65083 6.1949 6.69491 6.15083 6.74914 6.12328L11.2491 3.87328C11.302 3.84674 11.3618 3.83752 11.4202 3.84693C11.4786 3.85635 11.5325 3.88392 11.5743 3.92572C11.6161 3.96753 11.6437 4.02144 11.6531 4.07981C11.6625 4.13818 11.6533 4.19803 11.6267 4.25086Z" fill="white"/>
</svg>
