<svg width="18" height="18" viewBox="0 0 18 18" fill="none" xmlns="http://www.w3.org/2000/svg">
<path d="M7.96154 4.84615H8.30769V8.30769H7.96154C7.50251 8.30769 7.06228 8.12534 6.7377 7.80076C6.41312 7.47618 6.23077 7.03595 6.23077 6.57692C6.23077 6.11789 6.41312 5.67767 6.7377 5.35308C7.06228 5.0285 7.50251 4.84615 7.96154 4.84615ZM10.7308 9.69231H9.69231V13.1538H10.7308C11.1898 13.1538 11.63 12.9715 11.9546 12.6469C12.2792 12.3223 12.4615 11.8821 12.4615 11.4231C12.4615 10.964 12.2792 10.5238 11.9546 10.1992C11.63 9.87465 11.1898 9.69231 10.7308 9.69231ZM18 9C18 10.78 17.4722 12.5201 16.4832 14.0001C15.4943 15.4802 14.0887 16.6337 12.4442 17.3149C10.7996 17.9961 8.99002 18.1743 7.24419 17.8271C5.49836 17.4798 3.89471 16.6226 2.63604 15.364C1.37737 14.1053 0.520203 12.5016 0.172936 10.7558C-0.17433 9.00998 0.00389956 7.20038 0.685088 5.55585C1.36628 3.91131 2.51983 2.50571 3.99987 1.51677C5.47991 0.527841 7.21997 0 9 0C11.3862 0.00251984 13.6739 0.95154 15.3612 2.63882C17.0485 4.3261 17.9975 6.61382 18 9ZM13.8462 11.4231C13.8462 10.5968 13.5179 9.80441 12.9337 9.22017C12.3494 8.63592 11.557 8.30769 10.7308 8.30769H9.69231V4.84615H10.0385C10.4975 4.84615 10.9377 5.0285 11.2623 5.35308C11.5869 5.67767 11.7692 6.11789 11.7692 6.57692C11.7692 6.76053 11.8422 6.93662 11.972 7.06646C12.1018 7.19629 12.2779 7.26923 12.4615 7.26923C12.6452 7.26923 12.8212 7.19629 12.9511 7.06646C13.0809 6.93662 13.1538 6.76053 13.1538 6.57692C13.1538 5.75067 12.8256 4.95826 12.2414 4.37401C11.6571 3.78976 10.8647 3.46154 10.0385 3.46154H9.69231V2.76923C9.69231 2.58562 9.61937 2.40953 9.48954 2.27969C9.3597 2.14986 9.18361 2.07692 9 2.07692C8.81639 2.07692 8.6403 2.14986 8.51047 2.27969C8.38063 2.40953 8.30769 2.58562 8.30769 2.76923V3.46154H7.96154C7.13529 3.46154 6.34288 3.78976 5.75863 4.37401C5.17438 4.95826 4.84616 5.75067 4.84616 6.57692C4.84616 7.40317 5.17438 8.19558 5.75863 8.77983C6.34288 9.36408 7.13529 9.69231 7.96154 9.69231H8.30769V13.1538H7.61539C7.15636 13.1538 6.71613 12.9715 6.39155 12.6469C6.06697 12.3223 5.88462 11.8821 5.88462 11.4231C5.88462 11.2395 5.81168 11.0634 5.68185 10.9335C5.55201 10.8037 5.37592 10.7308 5.19231 10.7308C5.0087 10.7308 4.83261 10.8037 4.70278 10.9335C4.57294 11.0634 4.5 11.2395 4.5 11.4231C4.5 12.2493 4.82823 13.0417 5.41248 13.626C5.99673 14.2102 6.78914 14.5385 7.61539 14.5385H8.30769V15.2308C8.30769 15.4144 8.38063 15.5905 8.51047 15.7203C8.6403 15.8501 8.81639 15.9231 9 15.9231C9.18361 15.9231 9.3597 15.8501 9.48954 15.7203C9.61937 15.5905 9.69231 15.4144 9.69231 15.2308V14.5385H10.7308C11.557 14.5385 12.3494 14.2102 12.9337 13.626C13.5179 13.0417 13.8462 12.2493 13.8462 11.4231Z" fill="#F55668"/>
</svg>
