<svg width="27" height="26" viewBox="0 0 27 26" fill="none" xmlns="http://www.w3.org/2000/svg">
<mask id="mask0_6670_10112" style="mask-type:alpha" maskUnits="userSpaceOnUse" x="0" y="0" width="27" height="26">
<rect x="0.432617" width="26" height="26" fill="#D9D9D9"/>
</mask>
<g mask="url(#mask0_6670_10112)">
<path fill-rule="evenodd" clip-rule="evenodd" d="M1.26535 12.4586C1.45979 13.144 1.74034 13.8186 2.10702 14.4825C2.26396 14.2367 2.44659 14.0183 2.65491 13.8273C2.86326 13.6364 3.09936 13.477 3.36322 13.3492C3.1174 12.8506 2.92851 12.3576 2.79656 11.87C2.66461 11.3825 2.59863 10.8929 2.59863 10.4013C2.59863 8.99989 3.07884 7.81899 4.03925 6.85856C4.99968 5.89815 6.18058 5.41794 7.58197 5.41794C8.87084 5.41794 9.93925 5.78391 10.7872 6.51585C11.6351 7.24778 12.5167 8.18181 13.432 9.31794C14.3473 8.19294 15.2289 7.26169 16.0768 6.52419C16.9247 5.78669 17.9931 5.41794 19.282 5.41794C20.6833 5.41794 21.8643 5.89815 22.8247 6.85856C23.7851 7.81899 24.2653 8.99989 24.2653 10.4013C24.2653 10.8791 24.1993 11.36 24.0674 11.844C23.9354 12.328 23.7431 12.8263 23.4903 13.3388C23.7542 13.4596 23.9923 13.6172 24.2047 13.8115C24.4171 14.0058 24.6012 14.226 24.7569 14.4721C25.1236 13.7874 25.4041 13.1058 25.5986 12.4273C25.793 11.7489 25.8903 11.0735 25.8903 10.4013C25.8903 8.54572 25.2528 6.98045 23.9778 5.70546C22.7028 4.43047 21.1375 3.79297 19.282 3.79297C18.1653 3.79297 17.0976 4.05478 16.0788 4.57841C15.0601 5.10202 14.1778 5.84369 13.432 6.80342C12.6861 5.84369 11.8038 5.10202 10.7851 4.57841C9.76634 4.05478 8.69863 3.79297 7.58197 3.79297C5.7264 3.79297 4.16112 4.43047 2.88615 5.70546C1.61114 6.98045 0.973633 8.54572 0.973633 10.4013C0.973633 11.0874 1.07087 11.7732 1.26535 12.4586ZM0.973687 21.9929V22.3763C0.973687 22.6419 1.06352 22.8645 1.24319 23.0442C1.42288 23.2239 1.64554 23.3137 1.91118 23.3137H5.64034V21.7856C5.64034 21.3781 5.69311 20.9941 5.79866 20.6337C5.90422 20.2732 6.05907 19.9332 6.26322 19.6138C6.07852 19.5777 5.88477 19.5534 5.68199 19.5409C5.47921 19.5284 5.2675 19.5221 5.04686 19.5221C3.84188 19.5221 2.86177 19.7509 2.10653 20.2086C1.3513 20.6662 0.973687 21.261 0.973687 21.9929ZM21.2236 21.784V23.3137H24.9528C25.2184 23.3137 25.4411 23.2239 25.6207 23.0442C25.8004 22.8645 25.8903 22.6419 25.8903 22.3763V21.9929C25.8903 21.261 25.5179 20.6662 24.7731 20.2086C24.0283 19.7509 23.0465 19.5221 21.8277 19.5221C21.6206 19.5221 21.4178 19.5284 21.2193 19.5409C21.0208 19.5534 20.8291 19.5777 20.6444 19.6138C20.8375 19.9332 20.9823 20.2728 21.0788 20.6325C21.1753 20.9922 21.2236 21.3761 21.2236 21.784ZM3.73708 17.9254C4.10018 18.2885 4.53667 18.47 5.04656 18.47C5.56322 18.47 6.00141 18.2885 6.36113 17.9254C6.72085 17.5623 6.90071 17.1258 6.90071 16.6159C6.90071 16.0992 6.72085 15.6628 6.36113 15.3065C6.00141 14.9503 5.56322 14.7721 5.04656 14.7721C4.53667 14.7721 4.10018 14.9503 3.73708 15.3065C3.37398 15.6628 3.19244 16.0992 3.19244 16.6159C3.19244 17.1258 3.37398 17.5623 3.73708 17.9254ZM20.5215 17.9254C20.8868 18.2885 21.3222 18.47 21.8278 18.47C22.3531 18.47 22.7935 18.2885 23.1489 17.9254C23.5042 17.5623 23.6819 17.1258 23.6819 16.6159C23.6819 16.0992 23.5038 15.6628 23.1475 15.3065C22.7913 14.9503 22.3521 14.7721 21.8298 14.7721C21.3229 14.7721 20.8868 14.9503 20.5215 15.3065C20.1563 15.6628 19.9736 16.0992 19.9736 16.6159C19.9736 17.1258 20.1563 17.5623 20.5215 17.9254ZM11.4424 16.7643C11.991 17.3112 12.6554 17.5846 13.4356 17.5846C14.2315 17.5846 14.8986 17.3103 15.4369 16.7617C15.9753 16.2131 16.2444 15.5487 16.2444 14.7685C16.2444 13.9727 15.9749 13.3056 15.4359 12.7672C14.8968 12.2289 14.2288 11.9597 13.432 11.9597C12.6507 11.9597 11.9867 12.2292 11.4398 12.7683C10.8929 13.3073 10.6195 13.9753 10.6195 14.7721C10.6195 15.5534 10.8938 16.2174 11.4424 16.7643ZM12.5924 13.9261C12.8243 13.6985 13.1042 13.5847 13.432 13.5847C13.7684 13.5847 14.0505 13.6989 14.2781 13.9274C14.5057 14.1558 14.6195 14.4357 14.6195 14.7669C14.6195 15.0982 14.5052 15.3798 14.2768 15.6118C14.0483 15.8437 13.7684 15.9597 13.4372 15.9597C13.1059 15.9597 12.8243 15.8437 12.5924 15.6118C12.3604 15.3798 12.2445 15.0999 12.2445 14.7721C12.2445 14.4357 12.3604 14.1537 12.5924 13.9261Z" fill="#F7FAFA"/>
<path d="M13.4307 20.0221C12.3051 20.0221 11.3379 20.1714 10.5288 20.47C9.71981 20.7686 9.27086 21.1367 9.18197 21.5742V21.6888H17.6986V21.5742C17.5986 21.1367 17.1486 20.7686 16.3487 20.47C15.5486 20.1714 14.576 20.0221 13.4307 20.0221Z" fill="#F7FAFA"/>
<path fill-rule="evenodd" clip-rule="evenodd" d="M7.47363 22.3346V21.8242C7.47363 20.7895 8.02422 19.9596 9.12539 19.3346C10.2265 18.7096 11.663 18.3971 13.4348 18.3971C15.2232 18.3971 16.6628 18.7096 17.7538 19.3346C18.8448 19.9596 19.3902 20.7895 19.3902 21.8242V22.3346C19.3902 22.612 19.2964 22.8446 19.1087 23.0322C18.921 23.2199 18.6885 23.3137 18.4111 23.3137H8.45714C8.17511 23.3137 7.94069 23.2199 7.75389 23.0322C7.56707 22.8446 7.47363 22.612 7.47363 22.3346ZM10.5288 20.47C11.3379 20.1714 12.3051 20.0221 13.4307 20.0221C14.576 20.0221 15.5486 20.1714 16.3487 20.47C17.1486 20.7686 17.5986 21.1367 17.6986 21.5742V21.6888H9.18197V21.5742C9.27086 21.1367 9.71981 20.7686 10.5288 20.47Z" fill="#F7FAFA"/>
<path d="M13.432 13.5847C13.1042 13.5847 12.8243 13.6985 12.5924 13.9261C12.3604 14.1537 12.2445 14.4357 12.2445 14.7721C12.2445 15.0999 12.3604 15.3798 12.5924 15.6118C12.8243 15.8437 13.1059 15.9597 13.4372 15.9597C13.7684 15.9597 14.0483 15.8437 14.2768 15.6118C14.5052 15.3798 14.6195 15.0982 14.6195 14.7669C14.6195 14.4357 14.5057 14.1558 14.2781 13.9274C14.0505 13.6989 13.7684 13.5847 13.432 13.5847Z" fill="#F7FAFA"/>
</g>
</svg>
