<svg width="26" height="20" viewBox="0 0 26 20" fill="none" xmlns="http://www.w3.org/2000/svg">
<path fill-rule="evenodd" clip-rule="evenodd" d="M0.83273 8.95858C1.02717 9.64399 1.30773 10.3186 1.6744 10.9825C1.83134 10.7367 2.01397 10.5183 2.2223 10.3273C2.43064 10.1364 2.66674 9.977 2.93061 9.84924C2.68478 9.35062 2.49589 8.85755 2.36394 8.37003C2.23199 7.88253 2.16602 7.39295 2.16602 6.90128C2.16602 5.49989 2.64622 4.31899 3.60663 3.35856C4.56706 2.39815 5.74797 1.91794 7.14935 1.91794C8.43823 1.91794 9.50663 2.28391 10.3546 3.01585C11.2025 3.74778 12.0841 4.68181 12.9993 5.81794C13.9146 4.69294 14.7962 3.76169 15.6441 3.02419C16.4921 2.28669 17.5605 1.91794 18.8493 1.91794C20.2507 1.91794 21.4316 2.39815 22.3921 3.35856C23.3525 4.31899 23.8327 5.49989 23.8327 6.90128C23.8327 7.37906 23.7667 7.85997 23.6348 8.34401C23.5028 8.82804 23.3104 9.32631 23.0577 9.83882C23.3215 9.95964 23.5597 10.1172 23.7721 10.3115C23.9845 10.5058 24.1686 10.726 24.3243 10.9721C24.691 10.2874 24.9715 9.6058 25.166 8.92733C25.3604 8.24885 25.4577 7.5735 25.4577 6.90128C25.4577 5.04572 24.8202 3.48045 23.5452 2.20546C22.2702 0.930467 20.7049 0.292969 18.8493 0.292969C17.7327 0.292969 16.665 0.554784 15.6462 1.07841C14.6275 1.60202 13.7452 2.34369 12.9993 3.30342C12.2535 2.34369 11.3712 1.60202 10.3525 1.07841C9.33372 0.554784 8.26601 0.292969 7.14935 0.292969C5.29378 0.292969 3.72851 0.930467 2.45353 2.20546C1.17852 3.48045 0.541016 5.04572 0.541016 6.90128C0.541016 7.58739 0.638254 8.27316 0.83273 8.95858ZM0.54107 18.4929V18.8763C0.54107 19.1419 0.630905 19.3645 0.810576 19.5442C0.990265 19.7239 1.21293 19.8137 1.47856 19.8137H5.20772V18.2856C5.20772 17.8781 5.26049 17.4941 5.36605 17.1337C5.4716 16.7732 5.62645 16.4332 5.83061 16.1138C5.6459 16.0777 5.45215 16.0534 5.24937 16.0409C5.04659 16.0284 4.83488 16.0221 4.61424 16.0221C3.40927 16.0221 2.42916 16.2509 1.67391 16.7086C0.918684 17.1662 0.54107 17.761 0.54107 18.4929ZM20.791 18.284V19.8137H24.5202C24.7858 19.8137 25.0084 19.7239 25.1881 19.5442C25.3678 19.3645 25.4577 19.1419 25.4577 18.8763V18.4929C25.4576 17.761 25.0852 17.1662 24.3404 16.7086C23.5956 16.2509 22.6139 16.0221 21.3951 16.0221C21.188 16.0221 20.9852 16.0284 20.7866 16.0409C20.5881 16.0534 20.3965 16.0777 20.2118 16.1138C20.4049 16.4332 20.5496 16.7728 20.6462 17.1325C20.7427 17.4922 20.791 17.8761 20.791 18.284ZM3.30446 14.4254C3.66756 14.7885 4.10405 14.97 4.61394 14.97C5.1306 14.97 5.56879 14.7885 5.92851 14.4254C6.28824 14.0623 6.46809 13.6258 6.46809 13.1159C6.46809 12.5992 6.28824 12.1628 5.92851 11.8065C5.56879 11.4503 5.1306 11.2721 4.61394 11.2721C4.10405 11.2721 3.66756 11.4503 3.30446 11.8065C2.94137 12.1628 2.75982 12.5992 2.75982 13.1159C2.75982 13.6258 2.94137 14.0623 3.30446 14.4254ZM20.0889 14.4254C20.4542 14.7885 20.8896 14.97 21.3952 14.97C21.9205 14.97 22.3609 14.7885 22.7163 14.4254C23.0716 14.0623 23.2493 13.6258 23.2493 13.1159C23.2493 12.5992 23.0712 12.1628 22.7149 11.8065C22.3587 11.4503 21.9194 11.2721 21.3972 11.2721C20.8903 11.2721 20.4542 11.4503 20.0889 11.8065C19.7237 12.1628 19.541 12.5992 19.541 13.1159C19.541 13.6258 19.7237 14.0623 20.0889 14.4254ZM11.0098 13.2643C11.5584 13.8112 12.2228 14.0846 13.003 14.0846C13.7988 14.0846 14.4659 13.8103 15.0043 13.2617C15.5426 12.7131 15.8118 12.0487 15.8118 11.2685C15.8118 10.4727 15.5423 9.80557 15.0032 9.26722C14.4642 8.72888 13.7962 8.45971 12.9993 8.45971C12.2181 8.45971 11.554 8.72923 11.0072 9.26828C10.4603 9.80733 10.1869 10.4753 10.1869 11.2721C10.1869 12.0534 10.4612 12.7174 11.0098 13.2643ZM12.1598 10.4261C12.3917 10.1985 12.6716 10.0847 12.9993 10.0847C13.3358 10.0847 13.6179 10.1989 13.8455 10.4274C14.073 10.6558 14.1868 10.9357 14.1868 11.2669C14.1868 11.5982 14.0726 11.8798 13.8442 12.1118C13.6157 12.3437 13.3358 12.4597 13.0045 12.4597C12.6733 12.4597 12.3917 12.3437 12.1598 12.1118C11.9278 11.8798 11.8119 11.5999 11.8119 11.2721C11.8119 10.9357 11.9278 10.6537 12.1598 10.4261Z" fill="#F55668"/>
<path fill-rule="evenodd" clip-rule="evenodd" d="M7.04102 18.8346V18.3242C7.04102 17.2895 7.5916 16.4596 8.69277 15.8346C9.79393 15.2096 11.2304 14.8971 13.0022 14.8971C14.7905 14.8971 16.2302 15.2096 17.3212 15.8346C18.4121 16.4596 18.9576 17.2895 18.9576 18.3242V18.8346C18.9576 19.112 18.8638 19.3446 18.6761 19.5322C18.4884 19.7199 18.2559 19.8137 17.9785 19.8137H8.02452C7.74249 19.8137 7.50808 19.7199 7.32127 19.5322C7.13445 19.3446 7.04102 19.112 7.04102 18.8346ZM10.0962 16.97C10.9052 16.6714 11.8725 16.5221 12.9981 16.5221C14.1434 16.5221 15.116 16.6714 15.916 16.97C16.716 17.2686 17.166 17.6367 17.266 18.0742V18.1888H8.74935V18.0742C8.83824 17.6367 9.28719 17.2686 10.0962 16.97Z" fill="#F55668"/>
</svg>
