<svg width="26" height="21" viewBox="0 0 26 21" fill="none" xmlns="http://www.w3.org/2000/svg">
<path fill-rule="evenodd" clip-rule="evenodd" d="M1.26535 9.45858C1.45979 10.144 1.74034 10.8186 2.10702 11.4825C2.26396 11.2367 2.44659 11.0183 2.65491 10.8273C2.86326 10.6364 3.09936 10.477 3.36322 10.3492C3.1174 9.85062 2.92851 9.35755 2.79656 8.87003C2.66461 8.38253 2.59863 7.89295 2.59863 7.40128C2.59863 5.99989 3.07884 4.81899 4.03925 3.85856C4.99968 2.89815 6.18058 2.41794 7.58197 2.41794C8.87084 2.41794 9.93925 2.78391 10.7872 3.51585C11.6351 4.24778 12.5167 5.18181 13.432 6.31794C14.3473 5.19294 15.2289 4.26169 16.0768 3.52419C16.9247 2.78669 17.9931 2.41794 19.282 2.41794C20.6833 2.41794 21.8643 2.89815 22.8247 3.85856C23.7851 4.81899 24.2653 5.99989 24.2653 7.40128C24.2653 7.87906 24.1993 8.35997 24.0674 8.84401C23.9354 9.32804 23.7431 9.82631 23.4903 10.3388C23.7542 10.4596 23.9923 10.6172 24.2047 10.8115C24.4171 11.0058 24.6012 11.226 24.7569 11.4721C25.1236 10.7874 25.4041 10.1058 25.5986 9.42733C25.793 8.74885 25.8903 8.0735 25.8903 7.40128C25.8903 5.54572 25.2528 3.98045 23.9778 2.70546C22.7028 1.43047 21.1375 0.792969 19.282 0.792969C18.1653 0.792969 17.0976 1.05478 16.0788 1.57841C15.0601 2.10202 14.1778 2.84369 13.432 3.80342C12.6861 2.84369 11.8038 2.10202 10.7851 1.57841C9.76634 1.05478 8.69863 0.792969 7.58197 0.792969C5.7264 0.792969 4.16112 1.43047 2.88615 2.70546C1.61114 3.98045 0.973633 5.54572 0.973633 7.40128C0.973633 8.08739 1.07087 8.77316 1.26535 9.45858ZM0.973687 18.9929V19.3763C0.973687 19.6419 1.06352 19.8645 1.24319 20.0442C1.42288 20.2239 1.64554 20.3137 1.91118 20.3137H5.64034V18.7856C5.64034 18.3781 5.69311 17.9941 5.79866 17.6337C5.90422 17.2732 6.05907 16.9332 6.26322 16.6138C6.07852 16.5777 5.88477 16.5534 5.68199 16.5409C5.47921 16.5284 5.2675 16.5221 5.04686 16.5221C3.84188 16.5221 2.86177 16.7509 2.10653 17.2086C1.3513 17.6662 0.973687 18.261 0.973687 18.9929ZM21.2236 18.784V20.3137H24.9528C25.2184 20.3137 25.4411 20.2239 25.6207 20.0442C25.8004 19.8645 25.8903 19.6419 25.8903 19.3763V18.9929C25.8903 18.261 25.5179 17.6662 24.7731 17.2086C24.0283 16.7509 23.0465 16.5221 21.8277 16.5221C21.6206 16.5221 21.4178 16.5284 21.2193 16.5409C21.0208 16.5534 20.8291 16.5777 20.6444 16.6138C20.8375 16.9332 20.9823 17.2728 21.0788 17.6325C21.1753 17.9922 21.2236 18.3761 21.2236 18.784ZM3.73708 14.9254C4.10018 15.2885 4.53667 15.47 5.04656 15.47C5.56322 15.47 6.00141 15.2885 6.36113 14.9254C6.72085 14.5623 6.90071 14.1258 6.90071 13.6159C6.90071 13.0992 6.72085 12.6628 6.36113 12.3065C6.00141 11.9503 5.56322 11.7721 5.04656 11.7721C4.53667 11.7721 4.10018 11.9503 3.73708 12.3065C3.37398 12.6628 3.19244 13.0992 3.19244 13.6159C3.19244 14.1258 3.37398 14.5623 3.73708 14.9254ZM20.5215 14.9254C20.8868 15.2885 21.3222 15.47 21.8278 15.47C22.3531 15.47 22.7935 15.2885 23.1489 14.9254C23.5042 14.5623 23.6819 14.1258 23.6819 13.6159C23.6819 13.0992 23.5038 12.6628 23.1475 12.3065C22.7913 11.9503 22.3521 11.7721 21.8298 11.7721C21.3229 11.7721 20.8868 11.9503 20.5215 12.3065C20.1563 12.6628 19.9736 13.0992 19.9736 13.6159C19.9736 14.1258 20.1563 14.5623 20.5215 14.9254ZM11.4424 13.7643C11.991 14.3112 12.6554 14.5846 13.4356 14.5846C14.2315 14.5846 14.8986 14.3103 15.4369 13.7617C15.9753 13.2131 16.2444 12.5487 16.2444 11.7685C16.2444 10.9727 15.9749 10.3056 15.4359 9.76722C14.8968 9.22888 14.2288 8.95971 13.432 8.95971C12.6507 8.95971 11.9867 9.22923 11.4398 9.76828C10.8929 10.3073 10.6195 10.9753 10.6195 11.7721C10.6195 12.5534 10.8938 13.2174 11.4424 13.7643ZM12.5924 10.9261C12.8243 10.6985 13.1042 10.5847 13.432 10.5847C13.7684 10.5847 14.0505 10.6989 14.2781 10.9274C14.5057 11.1558 14.6195 11.4357 14.6195 11.7669C14.6195 12.0982 14.5052 12.3798 14.2768 12.6118C14.0483 12.8437 13.7684 12.9597 13.4372 12.9597C13.1059 12.9597 12.8243 12.8437 12.5924 12.6118C12.3604 12.3798 12.2445 12.0999 12.2445 11.7721C12.2445 11.4357 12.3604 11.1537 12.5924 10.9261Z" fill="#F7FAFA"/>
<path d="M13.4307 17.0221C12.3051 17.0221 11.3379 17.1714 10.5288 17.47C9.71981 17.7686 9.27086 18.1367 9.18197 18.5742V18.6888H17.6986V18.5742C17.5986 18.1367 17.1486 17.7686 16.3487 17.47C15.5486 17.1714 14.576 17.0221 13.4307 17.0221Z" fill="#F7FAFA"/>
<path fill-rule="evenodd" clip-rule="evenodd" d="M7.47363 19.3346V18.8242C7.47363 17.7895 8.02422 16.9596 9.12539 16.3346C10.2265 15.7096 11.663 15.3971 13.4348 15.3971C15.2232 15.3971 16.6628 15.7096 17.7538 16.3346C18.8448 16.9596 19.3902 17.7895 19.3902 18.8242V19.3346C19.3902 19.612 19.2964 19.8446 19.1087 20.0322C18.921 20.2199 18.6885 20.3137 18.4111 20.3137H8.45714C8.17511 20.3137 7.94069 20.2199 7.75389 20.0322C7.56707 19.8446 7.47363 19.612 7.47363 19.3346ZM10.5288 17.47C11.3379 17.1714 12.3051 17.0221 13.4307 17.0221C14.576 17.0221 15.5486 17.1714 16.3487 17.47C17.1486 17.7686 17.5986 18.1367 17.6986 18.5742V18.6888H9.18197V18.5742C9.27086 18.1367 9.71981 17.7686 10.5288 17.47Z" fill="#F7FAFA"/>
<path d="M13.432 10.5847C13.1042 10.5847 12.8243 10.6985 12.5924 10.9261C12.3604 11.1537 12.2445 11.4357 12.2445 11.7721C12.2445 12.0999 12.3604 12.3798 12.5924 12.6118C12.8243 12.8437 13.1059 12.9597 13.4372 12.9597C13.7684 12.9597 14.0483 12.8437 14.2768 12.6118C14.5052 12.3798 14.6195 12.0982 14.6195 11.7669C14.6195 11.4357 14.5057 11.1558 14.2781 10.9274C14.0505 10.6989 13.7684 10.5847 13.432 10.5847Z" fill="#F7FAFA"/>
</svg>
