<svg width="34" height="43" viewBox="0 0 34 43" fill="none" xmlns="http://www.w3.org/2000/svg">
<path d="M8.66683 34.1971H25.3335V30.0304H8.66683V34.1971ZM8.66683 25.8638H25.3335V21.6971H8.66683V25.8638ZM4.50016 42.5304C3.35433 42.5304 2.37343 42.1225 1.55745 41.3065C0.741482 40.4905 0.333496 39.5096 0.333496 38.3638V5.03044C0.333496 3.8846 0.741482 2.9037 1.55745 2.08773C2.37343 1.27176 3.35433 0.86377 4.50016 0.86377H21.1668L33.6668 13.3638V38.3638C33.6668 39.5096 33.2588 40.4905 32.4429 41.3065C31.6269 42.1225 30.646 42.5304 29.5002 42.5304H4.50016ZM19.0835 15.4471V5.03044H4.50016V38.3638H29.5002V15.4471H19.0835Z" fill="white"/>
</svg>
