<svg width="16" height="18" viewBox="0 0 16 18" fill="none" xmlns="http://www.w3.org/2000/svg">
<path d="M15.3614 5.07609L10.5489 0.263594C10.485 0.19977 10.4092 0.149161 10.3257 0.114656C10.2423 0.0801521 10.1528 0.0624292 10.0625 0.0625002H1.8125C1.44783 0.0625002 1.09809 0.207366 0.840228 0.465228C0.582366 0.723091 0.4375 1.07283 0.4375 1.4375V16.5625C0.4375 16.9272 0.582366 17.2769 0.840228 17.5348C1.09809 17.7926 1.44783 17.9375 1.8125 17.9375H14.1875C14.5522 17.9375 14.9019 17.7926 15.1598 17.5348C15.4176 17.2769 15.5625 16.9272 15.5625 16.5625V5.5625C15.5626 5.47219 15.5448 5.38275 15.5103 5.29929C15.4758 5.21583 15.4252 5.13999 15.3614 5.07609ZM10.0625 5.5625V1.78125L13.8438 5.5625H10.0625Z" fill="#F55668"/>
</svg>
