<svg width="27" height="26" viewBox="0 0 27 26" fill="none" xmlns="http://www.w3.org/2000/svg">
<mask id="mask0_8399_11432" style="mask-type:alpha" maskUnits="userSpaceOnUse" x="0" y="0" width="27" height="26">
<rect x="0.833252" width="26" height="26" fill="#D9D9D9"/>
</mask>
<g mask="url(#mask0_8399_11432)">
<path d="M14.2667 23.8327L16.6229 21.666C18.5549 19.8605 19.8368 18.4837 20.4688 17.5358C21.1007 16.5879 21.4167 15.5723 21.4167 14.4889C21.4167 14.0195 21.3535 13.5771 21.2271 13.1618C21.1007 12.7466 20.9111 12.3313 20.6583 11.916H22.5C23.0958 11.916 23.6059 12.1282 24.0302 12.5525C24.4545 12.9768 24.6667 13.4868 24.6667 14.0827V22.7493C24.6667 23.0563 24.5628 23.3136 24.3552 23.5212C24.1476 23.7289 23.8903 23.8327 23.5833 23.8327H14.2667ZM3 22.7493V14.0827C3 13.4868 3.20764 12.9768 3.62292 12.5525C4.03819 12.1282 4.55278 11.916 5.16667 11.916H6.98125C6.74653 12.2952 6.56597 12.7059 6.43958 13.1483C6.31319 13.5907 6.25 14.0375 6.25 14.4889C6.25 15.5723 6.55243 16.5879 7.15729 17.5358C7.76215 18.4837 9.04861 19.8605 11.0167 21.666L13.4 23.8327H4.08333C3.77639 23.8327 3.5191 23.7289 3.31146 23.5212C3.10382 23.3136 3 23.0563 3 22.7493ZM21.4167 10.8327C20.4958 10.8327 19.724 10.5212 19.101 9.89831C18.4781 9.27539 18.1667 8.50352 18.1667 7.58268C18.1667 6.6799 18.4781 5.91254 19.101 5.2806C19.724 4.64865 20.4958 4.33268 21.4167 4.33268C22.3194 4.33268 23.0868 4.64865 23.7188 5.2806C24.3507 5.91254 24.6667 6.6799 24.6667 7.58268C24.6667 8.50352 24.3507 9.27539 23.7188 9.89831C23.0868 10.5212 22.3194 10.8327 21.4167 10.8327ZM13.8333 9.74935C12.7681 9.74935 11.8698 9.38372 11.1385 8.65247C10.4073 7.92122 10.0417 7.02296 10.0417 5.95768C10.0417 4.91046 10.4073 4.01671 11.1385 3.27643C11.8698 2.53615 12.7681 2.16602 13.8333 2.16602C14.8806 2.16602 15.7743 2.53615 16.5146 3.27643C17.2549 4.01671 17.625 4.91046 17.625 5.95768C17.625 7.02296 17.2549 7.92122 16.5146 8.65247C15.7743 9.38372 14.8806 9.74935 13.8333 9.74935ZM8.41667 14.4889C8.41667 15.2292 8.77778 16.0598 9.5 16.9806C10.2222 17.9014 11.6576 19.3368 13.8063 21.2868C15.9368 19.373 17.3767 17.9511 18.126 17.0212C18.8753 16.0914 19.25 15.2473 19.25 14.4889C19.25 13.7667 19.0063 13.1573 18.5188 12.6608C18.0312 12.1643 17.4444 11.916 16.7583 11.916C16.3431 11.916 15.9549 12.0153 15.5938 12.2139C15.2326 12.4125 14.9167 12.6563 14.6458 12.9452L13.8063 13.8118L12.9938 12.9723C12.741 12.7014 12.4521 12.4577 12.1271 12.241C11.8021 12.0243 11.3958 11.916 10.9083 11.916C10.1681 11.916 9.56771 12.1643 9.10729 12.6608C8.64688 13.1573 8.41667 13.7667 8.41667 14.4889ZM6.25 10.8327C5.32917 10.8327 4.55729 10.5212 3.93438 9.89831C3.31146 9.27539 3 8.50352 3 7.58268C3 6.6799 3.31146 5.91254 3.93438 5.2806C4.55729 4.64865 5.32917 4.33268 6.25 4.33268C7.15278 4.33268 7.92014 4.64865 8.55208 5.2806C9.18403 5.91254 9.5 6.6799 9.5 7.58268C9.5 8.50352 9.18403 9.27539 8.55208 9.89831C7.92014 10.5212 7.15278 10.8327 6.25 10.8327Z" fill="#F7FAFA"/>
</g>
</svg>
