<svg width="56" height="56" viewBox="0 0 56 56" fill="none" xmlns="http://www.w3.org/2000/svg">
<rect x="1" y="1" width="54" height="54" rx="27" fill="#FEEEF0"/>
<rect x="1" y="1" width="54" height="54" rx="27" stroke="#F55668" stroke-width="2"/>
<mask id="mask0_1820_3984" style="mask-type:alpha" maskUnits="userSpaceOnUse" x="14" y="14" width="28" height="28">
<rect x="14" y="14" width="28" height="28" fill="#D9D9D9"/>
</mask>
<g mask="url(#mask0_1820_3984)">
<path d="M21.7 17.5C22.925 17.5 24.0917 17.7576 25.2 18.2729C26.3083 18.7882 27.2417 19.5028 28 20.4167C28.7583 19.5028 29.6917 18.7882 30.8 18.2729C31.9083 17.7576 33.075 17.5 34.3 17.5C36.4778 17.5 38.3056 18.2389 39.7833 19.7167C41.2611 21.1944 42 23.0222 42 25.2C42 25.9389 41.9028 26.6681 41.7083 27.3875C41.5139 28.1069 41.2417 28.8167 40.8917 29.5167C40.6778 29.1472 40.425 28.8167 40.1333 28.525C39.8417 28.2333 39.5014 28 39.1125 27.825C39.2875 27.3778 39.4236 26.9403 39.5208 26.5125C39.6181 26.0847 39.6667 25.6472 39.6667 25.2C39.6667 23.6833 39.1514 22.4097 38.1208 21.3792C37.0903 20.3486 35.8167 19.8333 34.3 19.8333C32.725 19.8333 31.5146 20.266 30.6688 21.1313C29.8229 21.9965 28.9333 22.9639 28 24.0333C27.0667 22.9444 26.1771 21.9722 25.3313 21.1167C24.4854 20.2611 23.275 19.8333 21.7 19.8333C20.1833 19.8333 18.9097 20.3486 17.8792 21.3792C16.8486 22.4097 16.3333 23.6833 16.3333 25.2C16.3333 25.6472 16.3819 26.0847 16.4792 26.5125C16.5764 26.9403 16.7125 27.3778 16.8875 27.825C16.4986 28 16.1583 28.2333 15.8667 28.525C15.575 28.8167 15.3222 29.1472 15.1083 29.5167C14.7583 28.8167 14.4861 28.1069 14.2917 27.3875C14.0972 26.6681 14 25.9389 14 25.2C14 23.0222 14.7389 21.1944 16.2167 19.7167C17.6944 18.2389 19.5222 17.5 21.7 17.5ZM15.1667 39.6667C14.8361 39.6667 14.559 39.5549 14.3354 39.3313C14.1118 39.1076 14 38.8306 14 38.5V37.8292C14 36.9736 14.4278 36.2882 15.2833 35.7729C16.1389 35.2576 17.2667 35 18.6667 35C18.9194 35 19.1576 35.0097 19.3812 35.0292C19.6049 35.0486 19.8236 35.0778 20.0375 35.1167C19.7653 35.5056 19.566 35.9236 19.4396 36.3708C19.3132 36.8181 19.25 37.2944 19.25 37.8V39.6667H15.1667ZM22.1667 39.6667C21.8361 39.6667 21.559 39.5549 21.3354 39.3313C21.1118 39.1076 21 38.8306 21 38.5V37.8C21 36.5361 21.6465 35.5104 22.9396 34.7229C24.2326 33.9354 25.9194 33.5417 28 33.5417C30.1 33.5417 31.7917 33.9354 33.075 34.7229C34.3583 35.5104 35 36.5361 35 37.8V38.5C35 38.8306 34.8882 39.1076 34.6646 39.3313C34.441 39.5549 34.1639 39.6667 33.8333 39.6667H22.1667ZM36.75 39.6667V37.8C36.75 37.2944 36.6819 36.8181 36.5458 36.3708C36.4097 35.9236 36.2153 35.5056 35.9625 35.1167C36.1764 35.0778 36.3951 35.0486 36.6187 35.0292C36.8424 35.0097 37.0806 35 37.3333 35C38.7333 35 39.8611 35.2576 40.7167 35.7729C41.5722 36.2882 42 36.9736 42 37.8292V38.5C42 38.8306 41.8882 39.1076 41.6646 39.3313C41.441 39.5549 41.1639 39.6667 40.8333 39.6667H36.75ZM18.6667 33.8333C18.025 33.8333 17.4757 33.6049 17.0187 33.1479C16.5618 32.691 16.3333 32.1417 16.3333 31.5C16.3333 30.8583 16.5618 30.309 17.0187 29.8521C17.4757 29.3951 18.025 29.1667 18.6667 29.1667C19.3083 29.1667 19.8576 29.3951 20.3146 29.8521C20.7715 30.309 21 30.8583 21 31.5C21 32.1417 20.7715 32.691 20.3146 33.1479C19.8576 33.6049 19.3083 33.8333 18.6667 33.8333ZM37.3333 33.8333C36.6917 33.8333 36.1424 33.6049 35.6854 33.1479C35.2285 32.691 35 32.1417 35 31.5C35 30.8583 35.2285 30.309 35.6854 29.8521C36.1424 29.3951 36.6917 29.1667 37.3333 29.1667C37.975 29.1667 38.5243 29.3951 38.9812 29.8521C39.4382 30.309 39.6667 30.8583 39.6667 31.5C39.6667 32.1417 39.4382 32.691 38.9812 33.1479C38.5243 33.6049 37.975 33.8333 37.3333 33.8333ZM28 32.6667C27.0278 32.6667 26.2014 32.3264 25.5208 31.6458C24.8403 30.9653 24.5 30.1389 24.5 29.1667C24.5 28.1944 24.8403 27.3681 25.5208 26.6875C26.2014 26.0069 27.0278 25.6667 28 25.6667C28.9722 25.6667 29.7986 26.0069 30.4792 26.6875C31.1597 27.3681 31.5 28.1944 31.5 29.1667C31.5 30.1389 31.1597 30.9653 30.4792 31.6458C29.7986 32.3264 28.9722 32.6667 28 32.6667Z" fill="#F55668"/>
</g>
</svg>
