<svg width="27" height="26" viewBox="0 0 27 26" fill="none" xmlns="http://www.w3.org/2000/svg">
<mask id="mask0_8170_27320" style="mask-type:alpha" maskUnits="userSpaceOnUse" x="0" y="0" width="27" height="26">
<rect x="0.833496" width="26" height="26" fill="#D9D9D9"/>
</mask>
<g mask="url(#mask0_8170_27320)">
<path d="M14.2672 23.8327L16.6234 21.666C18.5554 19.8605 19.8373 18.4837 20.4692 17.5358C21.1012 16.5879 21.4172 15.5723 21.4172 14.4889C21.4172 14.0195 21.354 13.5771 21.2276 13.1618C21.1012 12.7466 20.9116 12.3313 20.6588 11.916H22.5005C23.0963 11.916 23.6064 12.1282 24.0307 12.5525C24.455 12.9768 24.6672 13.4868 24.6672 14.0827V22.7493C24.6672 23.0563 24.5633 23.3136 24.3557 23.5212C24.1481 23.7289 23.8908 23.8327 23.5838 23.8327H14.2672ZM3.00049 22.7493V14.0827C3.00049 13.4868 3.20813 12.9768 3.6234 12.5525C4.03868 12.1282 4.55327 11.916 5.16716 11.916H6.98174C6.74702 12.2952 6.56646 12.7059 6.44007 13.1483C6.31368 13.5907 6.25049 14.0375 6.25049 14.4889C6.25049 15.5723 6.55292 16.5879 7.15778 17.5358C7.76264 18.4837 9.0491 19.8605 11.0172 21.666L13.4005 23.8327H4.08382C3.77688 23.8327 3.51959 23.7289 3.31195 23.5212C3.10431 23.3136 3.00049 23.0563 3.00049 22.7493ZM21.4172 10.8327C20.4963 10.8327 19.7244 10.5212 19.1015 9.89831C18.4786 9.27539 18.1672 8.50352 18.1672 7.58268C18.1672 6.6799 18.4786 5.91254 19.1015 5.2806C19.7244 4.64865 20.4963 4.33268 21.4172 4.33268C22.3199 4.33268 23.0873 4.64865 23.7192 5.2806C24.3512 5.91254 24.6672 6.6799 24.6672 7.58268C24.6672 8.50352 24.3512 9.27539 23.7192 9.89831C23.0873 10.5212 22.3199 10.8327 21.4172 10.8327ZM13.8338 9.74935C12.7685 9.74935 11.8703 9.38372 11.139 8.65247C10.4078 7.92122 10.0422 7.02296 10.0422 5.95768C10.0422 4.91046 10.4078 4.01671 11.139 3.27643C11.8703 2.53615 12.7685 2.16602 13.8338 2.16602C14.881 2.16602 15.7748 2.53615 16.5151 3.27643C17.2554 4.01671 17.6255 4.91046 17.6255 5.95768C17.6255 7.02296 17.2554 7.92122 16.5151 8.65247C15.7748 9.38372 14.881 9.74935 13.8338 9.74935ZM8.41716 14.4889C8.41716 15.2292 8.77827 16.0598 9.50049 16.9806C10.2227 17.9014 11.6581 19.3368 13.8067 21.2868C15.9373 19.373 17.3772 17.9511 18.1265 17.0212C18.8758 16.0914 19.2505 15.2473 19.2505 14.4889C19.2505 13.7667 19.0067 13.1573 18.5192 12.6608C18.0317 12.1643 17.4449 11.916 16.7588 11.916C16.3435 11.916 15.9553 12.0153 15.5942 12.2139C15.2331 12.4125 14.9172 12.6563 14.6463 12.9452L13.8067 13.8118L12.9942 12.9723C12.7415 12.7014 12.4526 12.4577 12.1276 12.241C11.8026 12.0243 11.3963 11.916 10.9088 11.916C10.1685 11.916 9.5682 12.1643 9.10778 12.6608C8.64736 13.1573 8.41716 13.7667 8.41716 14.4889ZM6.25049 10.8327C5.32965 10.8327 4.55778 10.5212 3.93486 9.89831C3.31195 9.27539 3.00049 8.50352 3.00049 7.58268C3.00049 6.6799 3.31195 5.91254 3.93486 5.2806C4.55778 4.64865 5.32965 4.33268 6.25049 4.33268C7.15327 4.33268 7.92063 4.64865 8.55257 5.2806C9.18452 5.91254 9.50049 6.6799 9.50049 7.58268C9.50049 8.50352 9.18452 9.27539 8.55257 9.89831C7.92063 10.5212 7.15327 10.8327 6.25049 10.8327Z" fill="#F55668"/>
</g>
</svg>
