<svg width="80" height="81" viewBox="0 0 80 81" fill="none" xmlns="http://www.w3.org/2000/svg">
<rect y="0.5" width="80" height="80" rx="40" fill="#FEEEF0"/>
<mask id="mask0_9363_19949" style="mask-type:alpha" maskUnits="userSpaceOnUse" x="15" y="15" width="50" height="51">
<rect x="15" y="15.5" width="50" height="50" fill="#D9D9D9"/>
</mask>
<g mask="url(#mask0_9363_19949)">
<path d="M27.5003 46.7493H42.0837L46.2503 42.5827H27.5003V46.7493ZM27.5003 38.416H40.0003V34.2493H27.5003V38.416ZM23.3337 30.0827V50.916H37.917L33.7503 55.0827H19.167V25.916H60.8337V32.166H56.667V30.0827H23.3337ZM62.7087 41.1243C62.8823 41.298 62.9691 41.4889 62.9691 41.6973C62.9691 41.9056 62.8823 42.0966 62.7087 42.2702L60.8337 44.1452L57.1878 40.4993L59.0628 38.6243C59.2364 38.4507 59.4274 38.3639 59.6357 38.3639C59.8441 38.3639 60.0351 38.4507 60.2087 38.6243L62.7087 41.1243ZM42.0837 59.2493V55.6035L55.9378 41.7493L59.5837 45.3952L45.7295 59.2493H42.0837Z" fill="#F55668"/>
</g>
</svg>
