<svg width="56" height="56" viewBox="0 0 56 56" fill="none" xmlns="http://www.w3.org/2000/svg">
<rect x="1" y="1" width="54" height="54" rx="27" fill="#FEEEF0"/>
<rect x="1" y="1" width="54" height="54" rx="27" stroke="#F55668" stroke-width="2"/>
<path d="M28 53C41.8071 53 53 41.8071 53 28C53 14.1929 41.8071 3 28 3C14.1929 3 3 14.1929 3 28C3 41.8071 14.1929 53 28 53Z" fill="#FEEEF0"/>
<path d="M35.5358 32.3157C41.5001 32.3157 46.3352 27.4806 46.3352 21.5162C46.3352 15.5519 41.5001 10.7168 35.5358 10.7168C29.5714 10.7168 24.7363 15.5519 24.7363 21.5162C24.7363 27.4806 29.5714 32.3157 35.5358 32.3157Z" fill="#F55668" stroke="#E6EFF1" stroke-width="1.5" stroke-miterlimit="10"/>
<path d="M34.9916 17.9832C36.0915 17.9832 36.9832 17.0915 36.9832 15.9916C36.9832 14.8917 36.0915 14 34.9916 14C33.8917 14 33 14.8917 33 15.9916C33 17.0915 33.8917 17.9832 34.9916 17.9832Z" fill="#F55668" stroke="#E6EFF1" stroke-width="1.5" stroke-miterlimit="10"/>
<path d="M20.9616 46.8919C26.9259 46.8919 31.761 42.0568 31.761 36.0924C31.761 30.128 26.9259 25.293 20.9616 25.293C14.9972 25.293 10.1621 30.128 10.1621 36.0924C10.1621 42.0568 14.9972 46.8919 20.9616 46.8919Z" fill="#F55668" stroke="#E6EFF1" stroke-width="1.5" stroke-miterlimit="10"/>
<path d="M20.9916 43.9832C22.0915 43.9832 22.9832 43.0915 22.9832 41.9916C22.9832 40.8917 22.0915 40 20.9916 40C19.8917 40 19 40.8917 19 41.9916C19 43.0915 19.8917 43.9832 20.9916 43.9832Z" fill="#F55668" stroke="#E6EFF1" stroke-width="1.5" stroke-miterlimit="10"/>
<path d="M36.8649 45.6399C42.6491 45.6399 47.3381 40.9508 47.3381 35.1666C47.3381 29.3824 42.6491 24.6934 36.8649 24.6934C31.0806 24.6934 26.3916 29.3824 26.3916 35.1666C26.3916 40.9508 31.0806 45.6399 36.8649 45.6399Z" fill="#F55668" stroke="#E6EFF1" stroke-width="1.5" stroke-miterlimit="10"/>
<path d="M36.9311 41.8623C37.9977 41.8623 38.8623 40.9977 38.8623 39.9311C38.8623 38.8646 37.9977 38 36.9311 38C35.8646 38 35 38.8646 35 39.9311C35 40.9977 35.8646 41.8623 36.9311 41.8623Z" fill="#F55668" stroke="#E6EFF1" stroke-width="1.5" stroke-miterlimit="10"/>
<path d="M19.6481 32.3157C25.6125 32.3157 30.4475 27.4806 30.4475 21.5162C30.4475 15.5519 25.6125 10.7168 19.6481 10.7168C13.6837 10.7168 8.84863 15.5519 8.84863 21.5162C8.84863 27.4806 13.6837 32.3157 19.6481 32.3157Z" fill="#F55668" stroke="#E6EFF1" stroke-width="1.5" stroke-miterlimit="10"/>
<path d="M21.9916 17.9832C23.0915 17.9832 23.9832 17.0915 23.9832 15.9916C23.9832 14.8917 23.0915 14 21.9916 14C20.8917 14 20 14.8917 20 15.9916C20 17.0915 20.8917 17.9832 21.9916 17.9832Z" fill="#F55668" stroke="#E6EFF1" stroke-width="1.5" stroke-miterlimit="10"/>
</svg>
