<svg width="56" height="56" viewBox="0 0 56 56" fill="none" xmlns="http://www.w3.org/2000/svg">
<g id="Frame 204">
<g clip-path="url(#clip0_1947_4719)">
<rect width="56" height="56" rx="28" fill="#FEEEF0"/>
<g id="Group">
<path id="Vector" d="M27.9816 56C12.368 55.9639 -0.110476 43.4223 0.000737641 27.7306C0.111952 12.1216 12.9016 -0.111944 28.2145 0.000772654C43.4283 0.111987 56.2765 12.5559 55.9819 28.5527C55.7024 43.768 43.3321 55.9835 27.9816 56ZM32.116 32.1626C32.0394 32.1476 31.9612 32.1341 31.8846 32.1191C32.0349 31.028 32.0739 29.9053 32.3595 28.8503C33.1094 26.0835 34.97 24.1041 37.2364 22.484C38.2869 21.7341 39.0353 20.8008 39.4772 19.6015C40.6795 16.3312 40.5367 13.0609 39.36 9.83569C37.9412 5.94621 35.203 3.53407 31.0234 3.1358C29.1283 2.95546 27.1775 3.08621 25.2779 3.29811C17.6432 4.14875 11.6346 7.94205 7.3634 14.17C1.24964 23.0852 1.62687 36.0687 9.42086 44.6397C16.2786 52.1812 24.7383 54.8037 34.6274 52.1391C39.8138 50.7414 44.2038 47.8769 47.426 43.5516C52.6711 36.5105 54.2521 28.7376 51.5018 20.2537C50.7038 17.7905 49.784 15.3844 48.203 13.2938C47.4124 12.2478 46.5393 11.2815 45.3595 10.6623C44.5675 10.2475 43.9844 10.3467 43.5741 11.1312C43.2314 11.7864 43.024 12.5484 42.9293 13.2848C42.8091 14.2226 42.8467 15.1845 42.8422 16.1358C42.8256 19.0725 41.8262 21.5898 39.6711 23.6142C38.9181 24.3221 38.1892 25.0675 37.3686 25.6867C35.7079 26.9401 35.0256 28.6158 35.0136 30.6312C35.0106 31.031 35.0136 31.4292 35.0136 31.8455C33.5438 31.4638 33.3093 31.4924 32.116 32.1626Z" fill="#F55668"/>
<path id="Vector_2" d="M15.2419 14.7129C15.4087 15.0796 15.5079 15.299 15.6386 15.5831C18.5557 14.1899 21.2835 14.755 23.8549 16.4232C26.4264 18.0929 27.8436 20.487 28.06 23.5469C29.3525 23.8971 29.6786 24.7793 28.9152 25.8719C28.5966 26.3272 28.1863 26.7165 27.8526 27.1628C27.5671 27.5461 27.3341 27.9669 27.0245 28.4538C30.0769 28.2134 31.8518 29.8906 31.419 32.6469C31.8623 32.6138 32.3267 32.701 32.6574 32.5312C33.7815 31.9541 34.799 32.0112 35.7699 32.8152C36.7543 33.6328 37.0067 34.7434 36.9226 35.9412C36.882 36.5289 36.6926 37.1045 36.5664 37.7026C36.9526 37.901 37.402 38.0964 37.8138 38.3534C38.424 38.7336 38.5081 39.1424 38.0347 39.6789C37.671 40.0922 37.2337 40.4604 36.7708 40.758C36.4326 40.9759 36.2237 41.1953 36.1561 41.5996C36.0013 42.5329 35.5144 43.2859 34.811 43.9096C34.27 44.3905 33.6553 44.5798 32.9294 44.5378C32.6333 44.5212 32.2862 44.6114 32.0322 44.7677C29.9356 46.0617 27.6993 45.961 25.433 45.441C23.6235 45.0247 22.1311 44.0583 20.9333 42.6411C20.2044 41.7785 19.3763 41.0766 18.3303 40.5942C16.8199 39.8983 16.067 38.5968 16.0053 36.9842C15.9572 35.7398 16.1241 34.4879 16.1992 33.1639C15.6567 33.224 15.0435 33.2796 14.4363 33.3593C13.0927 33.5366 12.445 32.9911 12.5261 31.664C12.5502 31.2597 12.4059 31.0283 12.1429 30.7683C10.386 29.0324 9.18672 27.005 9.00487 24.4847C8.77943 21.3587 9.854 18.7587 12.2857 16.7749C13.1934 16.0399 14.2064 15.4313 15.2419 14.7129ZM19.4875 19.0623C18.2597 19.3749 17.113 19.1043 16.608 18.3754C17.2708 18.4235 17.8569 18.4641 18.4415 18.5062C18.4535 18.416 18.4656 18.3273 18.4776 18.2372C17.8344 18.0749 17.1926 17.914 16.3991 17.7142C17.0183 17.2888 17.5864 16.8981 18.2807 16.4202C16.9657 16.1256 15.9076 16.3646 14.9278 17.0108C14.5505 16.5284 15.3816 15.9423 14.7008 15.4914C13.8817 16.3075 13.0582 17.113 12.2511 17.9351C9.82244 20.4058 9.21377 23.371 10.2748 26.5707C11.4381 30.0784 14.1898 31.936 17.6495 32.8047C20.1323 33.4284 22.4948 33.0902 24.4561 31.3499C27.026 29.0685 27.8722 26.1213 27.2019 22.8135C26.5842 19.7671 24.9641 17.4136 21.9057 16.2969C20.8236 15.9017 19.7055 15.7198 18.455 15.7514C18.9104 16.1647 19.2726 16.4923 19.7926 16.9627C19.1479 17.1476 18.6414 17.2919 18.1725 17.4271C18.5753 17.9276 19.0126 18.4716 19.4875 19.0623ZM21.3571 41.3276C21.3646 41.3501 21.3767 41.4102 21.4052 41.4613C23.0674 44.3664 26.8863 45.3764 29.1421 45.0698C29.9296 44.9631 30.666 44.6775 31.2221 44.1515C30.2092 43.8299 29.2233 43.5188 28.2389 43.2062C28.2554 43.1386 28.2704 43.0709 28.287 43.0033C29.4712 43.2152 30.6585 43.6345 31.7887 42.9567C32.6258 43.9501 33.2285 44.1696 33.9889 43.7022C34.9297 43.1235 35.5324 42.2849 35.7052 41.1713C35.7864 40.6423 35.5595 40.3612 35.0214 40.4168C34.4699 40.4739 33.9228 40.5731 33.3758 40.6633C33.0511 40.7174 32.8302 40.6904 32.6303 40.3357C31.8413 38.929 30.6074 38.2046 28.9933 38.1249C27.4844 38.0513 25.9019 38.8643 25.4074 40.0982C25.173 40.6843 25.1685 41.3622 25.0693 41.9378C25.0407 41.8311 24.9671 41.6297 24.9355 41.4223C24.6094 39.3378 26.1408 37.5117 28.317 37.3915C30.104 37.2923 31.428 38.179 32.5942 39.4069C32.9129 39.742 33.2645 40.0456 33.6343 40.3973C34.548 38.965 34.7479 37.5463 34.2414 36.0434C33.3998 33.5426 30.884 32.1284 28.6507 32.9339C27.7715 33.2511 27.1222 32.973 26.5376 32.3658C26.2581 32.0743 26.0146 31.7467 25.7937 31.4806C25.2451 31.8008 24.7537 32.0848 24.2397 32.3854C24.2923 32.4305 24.3599 32.4981 24.4351 32.5552C26.0477 33.762 26.0086 35.6286 24.3704 36.7798C24.1916 36.9061 24.0638 37.1976 24.0338 37.4276C23.903 38.442 23.5604 39.3648 22.842 40.0952C22.3956 40.5461 21.8666 40.9098 21.3571 41.3276ZM21.5089 33.8402C20.0301 33.8402 18.5603 33.8402 17.0198 33.8402C16.9056 34.1618 16.7583 34.5796 16.587 35.0635C18.1409 34.2505 18.8428 34.1964 19.5582 34.8531C19.0517 34.8531 18.5798 34.772 18.15 34.8682C17.0033 35.1267 16.4622 36.5995 17.0213 37.8815C17.5248 39.0387 18.4205 39.8337 19.5552 40.3131C20.4885 40.7069 21.4834 40.7385 22.319 40.0576C23.1621 39.3708 23.4401 38.4661 23.108 37.3855C23.0599 37.2292 23.2177 36.9271 23.371 36.8084C23.7437 36.5183 24.1886 36.323 24.5673 36.0404C25.1084 35.6346 25.3398 34.8787 25.1444 34.3256C24.9656 33.8176 24.384 33.4479 23.6881 33.466C22.4122 33.5005 21.7689 34.2475 21.6863 35.4708C20.3742 35.6602 19.3132 36.1637 19.1389 37.7567C18.7511 37.2548 18.8052 36.7768 19.1359 36.4627C19.6634 35.9608 20.2976 35.573 20.8777 35.1237C21.04 34.9974 21.2234 34.8531 21.3 34.6743C21.4172 34.3963 21.4518 34.0822 21.5089 33.8402ZM34.7629 39.5692C35.3731 39.6774 35.9622 39.7 36.4867 39.8953C37.0338 40.0982 37.1991 39.7586 37.3975 39.44C37.6184 39.0838 37.4576 38.8057 37.1195 38.6224C36.6866 38.3879 36.2478 38.167 35.7669 37.9175C36.4101 36.864 36.5138 35.7263 36.1276 34.5435C35.6511 33.0827 34.4383 32.689 33.1804 33.5847C35.044 35.9142 35.1747 36.4146 34.7629 39.5692ZM28.4899 28.9949C29.2293 29.5419 29.9326 30.0634 29.9927 31.0403C29.5554 30.3084 28.9753 29.7388 28.1682 29.4427C27.3657 29.1482 26.7465 29.5119 26.5752 30.3805C26.7751 30.3805 26.9734 30.3805 27.2139 30.3805C26.5075 31.1109 26.6473 31.8474 27.516 32.1855C27.7038 32.2591 27.9188 32.3102 28.1186 32.3027C28.8611 32.2772 29.6035 32.2381 30.3429 32.169C30.4827 32.1554 30.6826 31.9976 30.7247 31.8654C31.1364 30.5579 29.9431 28.9858 28.4899 28.9949ZM13.1994 31.6895C13.1393 31.7046 13.0792 31.7181 13.0191 31.7331C13.0702 32.0382 13.0326 32.4034 13.1904 32.6334C13.467 33.0331 14.3056 33.0482 14.9112 32.7416C14.3311 32.3854 13.766 32.0367 13.1994 31.6895ZM27.9894 26.1935C28.0705 26.2055 28.1502 26.2175 28.2314 26.2295C28.5981 25.7621 28.9648 25.2737 28.7904 24.632C28.7408 24.4486 28.4553 24.3299 28.278 24.1811C28.2193 24.2172 28.1607 24.2532 28.1021 24.2878C28.0645 24.922 28.027 25.5578 27.9894 26.1935Z" fill="#F55668"/>
<path id="Vector_3" d="M22.6405 25.8473C22.6285 25.8428 22.4722 25.7797 22.3099 25.7151C22.2933 24.5053 22.9366 23.608 23.9856 23.3856C24.8738 23.1977 25.4149 23.4743 25.7049 24.1581C25.1248 24.2362 24.429 24.1671 23.918 24.4436C23.407 24.7202 23.0794 25.3409 22.6405 25.8473Z" fill="#F55668"/>
<path id="Vector_4" d="M19.0334 28.488C17.3952 27.9034 16.4454 28.3197 15.8307 29.8722C15.3258 28.8397 15.4144 28.3678 16.2215 27.8042C16.9489 27.2962 18.3706 27.3668 18.8711 27.9605C18.9778 28.0852 18.9793 28.3001 19.0334 28.488Z" fill="#F55668"/>
<path id="Vector_5" d="M20.6094 30.2333C21.8478 30.4302 22.6969 29.9853 23.3281 28.9062C23.3131 29.7088 23.032 30.2318 22.4249 30.5188C21.8222 30.8029 21.2331 30.7308 20.6094 30.2333Z" fill="#F55668"/>
<path id="Vector_6" d="M22.3048 21.6832C21.9862 21.9747 21.6947 22.2422 21.3821 22.5278C21.2753 21.6757 21.4572 21.5133 22.3048 21.6832Z" fill="#F55668"/>
<path id="Vector_7" d="M16.7275 25.4098C16.2691 25.4895 15.9024 25.5541 15.5146 25.6217C15.8032 24.9529 15.9084 24.9289 16.7275 25.4098Z" fill="#F55668"/>
</g>
</g>
</g>
<defs>
<clipPath id="clip0_1947_4719">
<rect width="56" height="56" rx="28" fill="white"/>
</clipPath>
</defs>
</svg>
