<svg width="90" height="84" viewBox="0 0 90 84" fill="none" xmlns="http://www.w3.org/2000/svg">
<path d="M82.4151 36.2441L68.3214 48.5441L72.5432 66.8566C72.7666 67.8139 72.7029 68.8159 72.36 69.7372C72.017 70.6584 71.4101 71.4582 70.6151 72.0364C69.8201 72.6147 68.8723 72.9457 67.8902 72.9882C66.9081 73.0307 65.9352 72.7828 65.0932 72.2754L49.1214 62.5878L33.1839 72.2754C32.3419 72.7828 31.369 73.0307 30.3869 72.9882C29.4048 72.9457 28.457 72.6147 27.662 72.0364C26.867 71.4582 26.2601 70.6584 25.9171 69.7372C25.5742 68.8159 25.5104 67.8139 25.7339 66.8566L29.9495 48.5629L15.8526 36.2441C15.107 35.6011 14.5679 34.7522 14.3028 33.8039C14.0377 32.8557 14.0585 31.8503 14.3625 30.9138C14.6666 29.9773 15.2403 29.1515 16.0119 28.5398C16.7834 27.9281 17.7183 27.5578 18.6995 27.4754L37.2807 25.866L44.5339 8.56598C44.9126 7.65822 45.5515 6.88281 46.3701 6.33741C47.1886 5.792 48.1502 5.50098 49.1339 5.50098C50.1175 5.50098 51.0791 5.792 51.8977 6.33741C52.7162 6.88281 53.3551 7.65822 53.7339 8.56598L61.0089 25.866L79.5839 27.4754C80.565 27.5578 81.4999 27.9281 82.2715 28.5398C83.043 29.1515 83.6168 29.9773 83.9208 30.9138C84.2249 31.8503 84.2456 32.8557 83.9806 33.8039C83.7155 34.7522 83.1763 35.6011 82.4307 36.2441H82.4151Z" fill="#FEEEF0"/>
<path d="M73.5147 39.2441L59.421 51.5441L63.6428 69.8566C63.8662 70.8139 63.8025 71.8159 63.4596 72.7372C63.1166 73.6584 62.5097 74.4582 61.7147 75.0364C60.9197 75.6147 59.9719 75.9457 58.9898 75.9882C58.0077 76.0307 57.0348 75.7828 56.1928 75.2754L40.221 65.5878L24.2835 75.2754C23.4415 75.7828 22.4686 76.0307 21.4865 75.9882C20.5044 75.9457 19.5566 75.6147 18.7616 75.0364C17.9666 74.4582 17.3597 73.6584 17.0167 72.7372C16.6738 71.8159 16.6101 70.8139 16.8335 69.8566L21.0491 51.5629L6.95222 39.2441C6.20662 38.6011 5.66747 37.7522 5.40239 36.8039C5.13731 35.8557 5.15809 34.8503 5.46213 33.9138C5.76617 32.9773 6.33993 32.1515 7.11146 31.5398C7.88299 30.9281 8.81795 30.5578 9.79909 30.4754L28.3803 28.866L35.6335 11.566C36.0122 10.6582 36.6511 9.88281 37.4697 9.33741C38.2882 8.792 39.2499 8.50098 40.2335 8.50098C41.2171 8.50098 42.1787 8.792 42.9973 9.33741C43.8158 9.88281 44.4547 10.6582 44.8335 11.566L52.1085 28.866L70.6835 30.4754C71.6646 30.5578 72.5996 30.9281 73.3711 31.5398C74.1426 32.1515 74.7164 32.9773 75.0204 33.9138C75.3245 34.8503 75.3452 35.8557 75.0802 36.8039C74.8151 37.7522 74.2759 38.6011 73.5303 39.2441H73.5147Z" fill="#F55668"/>
</svg>
