<svg width="16" height="9" viewBox="0 0 16 9" fill="none" xmlns="http://www.w3.org/2000/svg">
<path d="M1.08675 6.83646L7.33675 0.586459C7.42385 0.499059 7.52734 0.429713 7.6413 0.382396C7.75525 0.335078 7.87743 0.310719 8.00082 0.310719C8.1242 0.310719 8.24638 0.335078 8.36033 0.382396C8.47429 0.429713 8.57778 0.499059 8.66488 0.586459L14.9149 6.83646C15.091 7.01258 15.1899 7.25145 15.1899 7.50052C15.1899 7.74959 15.091 7.98846 14.9149 8.16458C14.7388 8.34071 14.4999 8.43965 14.2508 8.43965C14.0017 8.43965 13.7629 8.34071 13.5868 8.16458L8.00003 2.57787L2.41332 8.16537C2.2372 8.34149 1.99833 8.44043 1.74925 8.44043C1.50018 8.44043 1.26131 8.34149 1.08519 8.16537C0.909071 7.98925 0.810125 7.75037 0.810125 7.5013C0.810125 7.25223 0.909071 7.01336 1.08519 6.83724L1.08675 6.83646Z" fill="#656E6F"/>
</svg>
