<svg width="25" height="25" viewBox="0 0 25 25" fill="none" xmlns="http://www.w3.org/2000/svg">
<path d="M0.85498 12.1641C0.85498 18.7915 6.22756 24.1641 12.855 24.1641C19.4824 24.1641 24.855 18.7915 24.855 12.1641C24.855 5.53665 19.4824 0.164062 12.855 0.164062C6.22756 0.164062 0.85498 5.53665 0.85498 12.1641Z" fill="#1877F2"/>
<path d="M18.855 12.1641C18.855 8.86406 16.155 6.16406 12.855 6.16406C9.55498 6.16406 6.85498 8.86406 6.85498 12.1641C6.85498 15.1641 9.02998 17.6391 11.88 18.0891V13.8891H10.38V12.1641H11.88V10.8141C11.88 9.31406 12.78 8.48906 14.13 8.48906C14.805 8.48906 15.48 8.63906 15.48 8.63906V10.1391H14.73C13.98 10.1391 13.755 10.5891 13.755 11.0391V12.1641H15.405L15.105 13.8891H13.68V18.1641C16.68 17.7141 18.855 15.1641 18.855 12.1641Z" fill="white"/>
</svg>
