<svg width="70" height="70" viewBox="0 0 70 70" fill="none" xmlns="http://www.w3.org/2000/svg">
<path d="M5.83453 48.3337C4.77897 46.0559 3.9873 43.7225 3.45953 41.3337C2.93175 38.9448 2.66786 36.5003 2.66786 34.0003C2.66786 29.3892 3.54286 25.0559 5.29286 21.0003C7.04286 16.9448 9.41786 13.417 12.4179 10.417C15.4179 7.41699 18.9456 5.04199 23.0012 3.29199C27.0567 1.54199 31.3901 0.666992 36.0012 0.666992C40.6123 0.666992 44.9456 1.54199 49.0012 3.29199C53.0568 5.04199 56.5845 7.41699 59.5845 10.417C62.5845 13.417 64.9595 16.9448 66.7095 21.0003C68.4595 25.0559 69.3345 29.3892 69.3345 34.0003C69.3345 38.6114 68.4595 42.9448 66.7095 47.0003C64.9595 51.0559 62.5845 54.5837 59.5845 57.5837C56.5845 60.5837 53.0568 62.9587 49.0012 64.7087C44.9456 66.4587 40.6123 67.3337 36.0012 67.3337C33.5012 67.3337 31.0568 67.0698 28.6679 66.542C26.279 66.0142 23.9456 65.2226 21.6679 64.167L5.16786 69.0003C3.89008 69.3892 2.77897 69.1114 1.83453 68.167C0.890082 67.2225 0.612305 66.1114 1.00119 64.8337L5.83453 48.3337ZM32.6679 37.3337V44.0003C32.6679 44.9448 32.9873 45.7364 33.6262 46.3753C34.2651 47.0142 35.0568 47.3337 36.0012 47.3337C36.9456 47.3337 37.7373 47.0142 38.3762 46.3753C39.0151 45.7364 39.3345 44.9448 39.3345 44.0003V37.3337H46.0012C46.9456 37.3337 47.7373 37.0142 48.3762 36.3753C49.0151 35.7364 49.3345 34.9448 49.3345 34.0003C49.3345 33.0559 49.0151 32.2642 48.3762 31.6253C47.7373 30.9864 46.9456 30.667 46.0012 30.667H39.3345V24.0003C39.3345 23.0559 39.0151 22.2642 38.3762 21.6253C37.7373 20.9864 36.9456 20.667 36.0012 20.667C35.0568 20.667 34.2651 20.9864 33.6262 21.6253C32.9873 22.2642 32.6679 23.0559 32.6679 24.0003V30.667H26.0012C25.0567 30.667 24.2651 30.9864 23.6262 31.6253C22.9873 32.2642 22.6679 33.0559 22.6679 34.0003C22.6679 34.9448 22.9873 35.7364 23.6262 36.3753C24.2651 37.0142 25.0567 37.3337 26.0012 37.3337H32.6679Z" fill="white"/>
</svg>
