<svg width="81" height="80" viewBox="0 0 81 80" fill="none" xmlns="http://www.w3.org/2000/svg">
<path d="M65.4663 59.2339C65.8785 59.7533 66.0674 60.4152 65.9916 61.0739C65.9158 61.7327 65.5814 62.3343 65.062 62.7465C64.5426 63.1587 63.8807 63.3477 63.222 63.2719C62.5633 63.196 61.9616 62.8617 61.5494 62.3423L56.635 56.1496C56.4309 55.8924 56.2795 55.5976 56.1894 55.2818C56.0992 54.9661 56.0721 54.6358 56.1097 54.3096C56.1472 53.9834 56.2486 53.6678 56.4081 53.3809C56.5676 53.0939 56.7821 52.8411 57.0393 52.637C57.2965 52.4329 57.5913 52.2815 57.907 52.1913C58.2228 52.1012 58.5531 52.0741 58.8793 52.1117C59.2055 52.1492 59.5211 52.2506 59.8081 52.4101C60.095 52.5696 60.3478 52.7841 60.5519 53.0413L65.4663 59.2339Z" fill="#FAABB4"/>
<path d="M45.9923 56.5215C45.3692 56.7482 44.8617 57.2132 44.5815 57.8141C44.3013 58.4151 44.2713 59.1027 44.4981 59.7257L47.9183 69.1227C48.145 69.7457 48.61 70.2532 49.211 70.5334C49.8119 70.8136 50.4995 70.8436 51.1226 70.6168C51.7456 70.3901 52.2531 69.9251 52.5333 69.3242C52.8135 68.7232 52.8435 68.0356 52.6167 67.4126L49.1965 58.0156C48.9698 57.3926 48.5048 56.8851 47.9039 56.6049C47.3029 56.3247 46.6153 56.2947 45.9923 56.5215Z" fill="#FAABB4"/>
<path fill-rule="evenodd" clip-rule="evenodd" d="M66.8923 38.7017C72.9107 33.0526 75.2689 27.3157 73.5353 22.5526C71.1561 16.0159 61.9477 13.1653 48.8156 14.8389C47.6131 13.9145 46.3107 13.1281 44.9327 12.4943C42.229 11.2457 39.2793 10.6203 36.3016 10.6643C33.3238 10.7082 30.3939 11.4203 27.7282 12.7481C25.0625 14.0758 22.729 15.9853 20.8999 18.3356C19.0709 20.6858 17.7931 23.4169 17.1608 26.3271C12.2417 29.4776 8.32681 32.9477 5.80134 36.3977C1.91397 41.7068 2.16373 45.7462 3.05833 48.2041C4.79194 52.9672 10.286 55.8461 18.5275 56.305C26.0404 56.7265 35.1789 55.1363 44.2822 51.823C53.3854 48.5097 61.4081 43.8537 66.8923 38.7017ZM46.4069 19.3405C48.3408 21.0093 49.8131 23.1475 50.6821 25.5496L51.0957 26.686C51.2902 27.2136 51.2994 27.7917 51.122 28.3252C50.9445 28.8588 50.5909 29.3161 50.1191 29.6221C46.4061 31.977 42.4405 33.9078 38.2968 35.3784C34.1736 36.9125 29.8912 37.9792 25.5302 38.5585C24.9727 38.6263 24.4087 38.5026 23.9309 38.2075C23.453 37.9125 23.0897 37.4637 22.9007 36.9349L22.58 36.0539C19.7391 28.2486 23.6375 19.5434 31.2685 16.6529C33.7945 15.6983 36.5311 15.4422 39.1904 15.9117C41.8496 16.3811 44.3332 17.5587 46.3796 19.3205L46.4069 19.3405Z" fill="#F55668"/>
<path d="M35.0329 60.6467C34.7046 60.6556 34.3814 60.7291 34.0816 60.863C33.7818 60.9969 33.5113 61.1885 33.2856 61.4269C33.0598 61.6654 32.8833 61.9459 32.766 62.2526C32.6487 62.5592 32.5929 62.886 32.6019 63.2142L32.8178 71.117C32.8359 71.7798 33.1166 72.4083 33.5981 72.8642C34.0796 73.3201 34.7225 73.566 35.3853 73.5479C36.0482 73.5298 36.6767 73.2491 37.1326 72.7676C37.5885 72.2861 37.8344 71.6432 37.8163 70.9804L37.6004 63.0777C37.5914 62.7494 37.5179 62.4262 37.3841 62.1264C37.2502 61.8266 37.0586 61.5561 36.8201 61.3304C36.5817 61.1046 36.3012 60.9281 35.9945 60.8108C35.6878 60.6935 35.3611 60.6377 35.0329 60.6467Z" fill="#FAABB4"/>
</svg>
