<svg width="24" height="22" viewBox="0 0 24 22" fill="none" xmlns="http://www.w3.org/2000/svg">
<path d="M22.8498 3.30188L22.841 3.31172L15.4331 11.2217V17.2909C15.4335 17.5796 15.3625 17.8639 15.2265 18.1184C15.0904 18.373 14.8935 18.59 14.6532 18.75L11.1532 21.0841C10.8895 21.2598 10.583 21.3605 10.2664 21.3756C9.94986 21.3907 9.63515 21.3196 9.35588 21.1698C9.07661 21.02 8.84325 20.7971 8.68073 20.5251C8.5182 20.253 8.43261 19.9419 8.43308 19.625V11.2217L1.02511 3.31172L1.01636 3.30188C0.788581 3.0512 0.638441 2.73982 0.584151 2.4055C0.529862 2.07118 0.573756 1.72829 0.710509 1.41842C0.847262 1.10855 1.071 0.845031 1.35457 0.65982C1.63815 0.474608 1.96938 0.375667 2.30808 0.375H21.5581C21.8971 0.375033 22.2287 0.473515 22.5128 0.658479C22.7969 0.843444 23.0211 1.10693 23.1583 1.41692C23.2954 1.72691 23.3396 2.07007 23.2854 2.40469C23.2312 2.73931 23.081 3.051 22.8531 3.30188H22.8498Z" fill="#F55668"/>
</svg>
