<svg width="18" height="19" viewBox="0 0 18 19" fill="none" xmlns="http://www.w3.org/2000/svg">
<path d="M18 2.50002V13.75C17.9994 13.8568 17.976 13.9622 17.9314 14.0592C17.8868 14.1562 17.8219 14.2426 17.7413 14.3125C16.3088 15.5528 14.9391 16 13.6331 16C11.8603 16 10.2047 15.1806 8.66438 14.4203C6.17531 13.1875 4.01156 12.1197 1.5 14.1035V18.25C1.5 18.4489 1.42098 18.6397 1.28033 18.7803C1.13968 18.921 0.948912 19 0.75 19C0.551088 19 0.360322 18.921 0.21967 18.7803C0.0790178 18.6397 0 18.4489 0 18.25V2.50002C0.000719116 2.39317 0.0242604 2.28771 0.0690469 2.1907C0.113833 2.09369 0.178831 2.00737 0.259688 1.93752C3.63469 -0.985605 6.66375 0.511582 9.33375 1.83252C11.9062 3.10564 14.1366 4.20627 16.7587 1.93752C16.8671 1.84357 17.0002 1.78267 17.1421 1.76203C17.2841 1.7414 17.4289 1.7619 17.5596 1.8211C17.6902 1.88031 17.8012 1.97573 17.8792 2.09606C17.9573 2.2164 17.9992 2.35659 18 2.50002Z" fill="#F55668"/>
</svg>
