<svg width="110" height="114" viewBox="0 0 110 114" fill="none" xmlns="http://www.w3.org/2000/svg">
<path d="M6.25 101.252H68.75C70.5208 101.252 72.0052 101.851 73.2031 103.049C74.4011 104.246 75 105.731 75 107.502C75 109.272 74.4011 110.757 73.2031 111.955C72.0052 113.153 70.5208 113.752 68.75 113.752H6.25C4.47917 113.752 2.99479 113.153 1.79688 111.955C0.598958 110.757 0 109.272 0 107.502C0 105.731 0.598958 104.246 1.79688 103.049C2.99479 101.851 4.47917 101.252 6.25 101.252ZM26.4063 74.5329L8.75 56.8767C6.35417 54.4808 5.13021 51.5381 5.07813 48.0485C5.02604 44.559 6.19792 41.6162 8.59375 39.2204L13.125 34.6892L48.75 70.0017L44.2188 74.5329C41.8229 76.9287 38.8542 78.1267 35.3125 78.1267C31.7708 78.1267 28.8021 76.9287 26.4063 74.5329ZM75 43.7517L39.6875 8.12666L44.2188 3.59541C46.6146 1.19958 49.5573 0.0277039 53.0469 0.0797872C56.5365 0.131871 59.4792 1.35583 61.875 3.75166L79.5313 21.4079C81.9271 23.8037 83.125 26.7725 83.125 30.3142C83.125 33.8558 81.9271 36.8246 79.5313 39.2204L75 43.7517ZM99.375 103.127L22.1875 25.9392L30.9375 17.1892L108.125 94.3767C109.271 95.5225 109.844 96.9808 109.844 98.7517C109.844 100.522 109.271 101.981 108.125 103.127C106.979 104.272 105.521 104.845 103.75 104.845C101.979 104.845 100.521 104.272 99.375 103.127Z" fill="#F4F4F5" fill-opacity="0.3"/>
<path d="M6.25 101.752H68.75C70.3949 101.752 71.7501 102.303 72.8496 103.402C73.9491 104.502 74.5 105.857 74.5 107.502C74.5 109.147 73.9491 110.502 72.8496 111.601C71.7501 112.701 70.3949 113.252 68.75 113.252H6.25C4.60508 113.252 3.24995 112.701 2.15043 111.601C1.05091 110.502 0.5 109.147 0.5 107.502C0.5 105.857 1.05091 104.502 2.15043 103.402C3.24995 102.303 4.60508 101.752 6.25 101.752ZM26.7598 74.1794L9.10355 56.5231C6.80269 54.2222 5.62828 51.405 5.57807 48.0411C5.52794 44.6821 6.65025 41.871 8.9473 39.574L13.1266 35.3947L48.0413 70.0032L43.8652 74.1794C41.5678 76.4768 38.7283 77.6267 35.3125 77.6267C31.8968 77.6267 29.0572 76.4768 26.7598 74.1794ZM79.1777 38.8669L75.0016 43.043L40.3931 8.12822L44.5723 3.94897C46.8694 1.65191 49.6805 0.529598 53.0394 0.579732C56.4033 0.629939 59.2206 1.80435 61.5215 4.10522L79.1777 21.7615C81.4751 24.0589 82.625 26.8984 82.625 30.3142C82.625 33.7299 81.4751 36.5694 79.1777 38.8669ZM99.7286 102.773L22.8946 25.9392L30.9375 17.8963L107.771 94.7302C108.814 95.7731 109.344 97.0999 109.344 98.7517C109.344 100.403 108.814 101.73 107.771 102.773C106.729 103.816 105.402 104.345 103.75 104.345C102.098 104.345 100.771 103.816 99.7286 102.773Z" stroke="url(#paint0_linear_2335_3076)" stroke-opacity="0.7"/>
<defs>
<linearGradient id="paint0_linear_2335_3076" x1="25.9995" y1="23" x2="110" y2="105.5" gradientUnits="userSpaceOnUse">
<stop stop-color="#E5E7EB"/>
<stop offset="1" stop-color="#E5E7EB" stop-opacity="0"/>
</linearGradient>
</defs>
</svg>
