<svg width="111" height="115" viewBox="0 0 111 115" fill="none" xmlns="http://www.w3.org/2000/svg">
<path d="M6.72168 101.625H69.2217C70.9925 101.625 72.4769 102.224 73.6748 103.422C74.8727 104.619 75.4717 106.104 75.4717 107.875C75.4717 109.646 74.8727 111.13 73.6748 112.328C72.4769 113.526 70.9925 114.125 69.2217 114.125H6.72168C4.95085 114.125 3.46647 113.526 2.26855 112.328C1.07064 111.13 0.47168 109.646 0.47168 107.875C0.47168 106.104 1.07064 104.619 2.26855 103.422C3.46647 102.224 4.95085 101.625 6.72168 101.625ZM26.8779 74.906L9.22168 57.2497C6.82585 54.8539 5.60189 51.9112 5.54981 48.4216C5.49772 44.932 6.6696 41.9893 9.06543 39.5935L13.5967 35.0622L49.2217 70.3747L44.6904 74.906C42.2946 77.3018 39.3258 78.4997 35.7842 78.4997C32.2425 78.4997 29.2738 77.3018 26.8779 74.906ZM75.4717 44.1247L40.1592 8.49971L44.6904 3.96846C47.0863 1.57263 50.029 0.400751 53.5186 0.452834C57.0081 0.504917 59.9509 1.72888 62.3467 4.12471L80.0029 21.781C82.3988 24.1768 83.5967 27.1455 83.5967 30.6872C83.5967 34.2289 82.3988 37.1976 80.0029 39.5935L75.4717 44.1247ZM99.8467 103.5L22.6592 26.3122L31.4092 17.5622L108.597 94.7497C109.743 95.8955 110.315 97.3539 110.315 99.1247C110.315 100.896 109.743 102.354 108.597 103.5C107.451 104.646 105.993 105.218 104.222 105.218C102.451 105.218 100.993 104.646 99.8467 103.5Z" fill="url(#paint0_linear_11560_13722)"/>
<defs>
<linearGradient id="paint0_linear_11560_13722" x1="75.6894" y1="117.394" x2="35.4978" y2="-5.29788" gradientUnits="userSpaceOnUse">
<stop offset="0.390625" stop-color="#FA635E"/>
<stop offset="1" stop-color="#F99C40"/>
</linearGradient>
</defs>
</svg>
