<svg width="18" height="14" viewBox="0 0 18 14" fill="none" xmlns="http://www.w3.org/2000/svg">
<path d="M13.5 10.75V8.5H11.25V7H13.5V4.75H15V7H17.25V8.5H15V10.75H13.5ZM8.25 13.75L5.86875 11.6125C4.96875 10.8 4.19687 10.075 3.55312 9.4375C2.90937 8.8 2.37813 8.2 1.95938 7.6375C1.54063 7.075 1.23438 6.53125 1.04063 6.00625C0.846875 5.48125 0.75 4.93125 0.75 4.35625C0.75 3.18125 1.14375 2.20312 1.93125 1.42188C2.71875 0.640625 3.7 0.25 4.875 0.25C5.525 0.25 6.14375 0.384375 6.73125 0.653125C7.31875 0.921875 7.825 1.30625 8.25 1.80625C8.675 1.30625 9.18125 0.921875 9.76875 0.653125C10.3563 0.384375 10.975 0.25 11.625 0.25C12.6875 0.25 13.5781 0.571875 14.2969 1.21563C15.0156 1.85938 15.4625 2.6125 15.6375 3.475C15.4125 3.3875 15.1875 3.32187 14.9625 3.27812C14.7375 3.23438 14.5188 3.2125 14.3063 3.2125C13.0438 3.2125 11.9688 3.65313 11.0813 4.53438C10.1938 5.41563 9.75 6.4875 9.75 7.75C9.75 8.4 9.88125 9.01562 10.1438 9.59688C10.4062 10.1781 10.775 10.675 11.25 11.0875C11.0125 11.3 10.7031 11.5719 10.3219 11.9031C9.94063 12.2344 9.6125 12.525 9.3375 12.775L8.25 13.75Z" fill="#F55668"/>
</svg>
