<svg width="22" height="22" viewBox="0 0 22 22" fill="none" xmlns="http://www.w3.org/2000/svg">
<path d="M21.0612 7.99977L7.99998 21.0601C7.86069 21.1994 7.69531 21.3099 7.5133 21.3853C7.33129 21.4607 7.13621 21.4995 6.9392 21.4995C6.74219 21.4995 6.5471 21.4607 6.36509 21.3853C6.18308 21.3099 6.01771 21.1994 5.87842 21.0601L0.938729 16.1213C0.799404 15.982 0.688885 15.8167 0.613481 15.6347C0.538078 15.4526 0.499268 15.2576 0.499268 15.0606C0.499268 14.8635 0.538078 14.6685 0.613481 14.4865C0.688885 14.3044 0.799404 14.1391 0.938729 13.9998L3.67342 11.2651C3.70824 11.2302 3.7496 11.2026 3.79513 11.1837C3.84065 11.1648 3.88945 11.1551 3.93873 11.1551C3.98801 11.1551 4.03681 11.1648 4.08233 11.1837C4.12786 11.2026 4.16921 11.2302 4.20404 11.2651L7.46935 14.5304C7.54227 14.6033 7.62943 14.6603 7.72538 14.698C7.82133 14.7357 7.92402 14.7532 8.02704 14.7494C8.13006 14.7456 8.23119 14.7206 8.32412 14.676C8.41706 14.6314 8.49979 14.5681 8.56717 14.4901C8.69034 14.3415 8.75296 14.1519 8.74253 13.9592C8.7321 13.7665 8.6494 13.5848 8.51092 13.4504L5.26435 10.2038C5.19422 10.1335 5.15484 10.0383 5.15484 9.93899C5.15484 9.83969 5.19422 9.74445 5.26435 9.67415L6.6706 8.2679C6.70543 8.23303 6.74679 8.20537 6.79231 8.1865C6.83784 8.16763 6.88664 8.15792 6.93592 8.15792C6.9852 8.15792 7.034 8.16763 7.07952 8.1865C7.12504 8.20537 7.1664 8.23303 7.20123 8.2679L10.4665 11.5332C10.5395 11.6061 10.6266 11.6631 10.7226 11.7008C10.8185 11.7385 10.9212 11.756 11.0242 11.7522C11.1272 11.7484 11.2284 11.7234 11.3213 11.6788C11.4142 11.6342 11.497 11.5709 11.5644 11.4929C11.6875 11.3443 11.7501 11.1548 11.7397 10.962C11.7293 10.7693 11.6466 10.5876 11.5081 10.4532L8.26529 7.20384C8.19516 7.13354 8.15578 7.03829 8.15578 6.93899C8.15578 6.83969 8.19516 6.74445 8.26529 6.67415L9.67154 5.2679C9.74184 5.19777 9.83709 5.15838 9.93639 5.15838C10.0357 5.15838 10.1309 5.19777 10.2012 5.2679L13.4665 8.53321C13.5395 8.60623 13.6267 8.66342 13.7227 8.70119C13.8188 8.73896 13.9216 8.7565 14.0247 8.75272C14.1278 8.74893 14.2291 8.7239 14.3221 8.6792C14.4151 8.63449 14.4979 8.57107 14.5653 8.4929C14.6883 8.3442 14.7508 8.15458 14.7402 7.96186C14.7296 7.76915 14.6467 7.58751 14.5081 7.45321L11.2653 4.20384C11.1952 4.13354 11.1558 4.03829 11.1558 3.93899C11.1558 3.83969 11.1952 3.74445 11.2653 3.67415L14 0.939461C14.1393 0.800137 14.3046 0.689617 14.4867 0.614213C14.6687 0.53881 14.8637 0.5 15.0608 0.5C15.2578 0.5 15.4529 0.53881 15.6349 0.614213C15.8169 0.689617 15.9823 0.800137 16.1215 0.939461L21.0612 5.87821C21.2006 6.0175 21.3111 6.18288 21.3865 6.36489C21.4619 6.5469 21.5007 6.74198 21.5007 6.93899C21.5007 7.136 21.4619 7.33109 21.3865 7.5131C21.3111 7.69511 21.2006 7.86048 21.0612 7.99977Z" fill="#F55668"/>
</svg>
