<svg width="21" height="21" viewBox="0 0 21 21" fill="none" xmlns="http://www.w3.org/2000/svg">
<path d="M19.8157 8.53937L11.6907 0.873429C11.6868 0.869964 11.683 0.866231 11.6796 0.862257C11.3804 0.590205 10.9906 0.439453 10.5863 0.439453C10.1819 0.439453 9.79207 0.590205 9.49293 0.862257L9.48176 0.873429L1.3659 8.53937C1.20035 8.6916 1.0682 8.87653 0.97782 9.08247C0.887437 9.28841 0.840786 9.51087 0.84082 9.73577V19.1252C0.84082 19.5562 1.01203 19.9695 1.31677 20.2743C1.62152 20.579 2.03484 20.7502 2.46582 20.7502H7.34082C7.7718 20.7502 8.18512 20.579 8.48987 20.2743C8.79462 19.9695 8.96582 19.5562 8.96582 19.1252V14.2502H12.2158V19.1252C12.2158 19.5562 12.387 19.9695 12.6918 20.2743C12.9965 20.579 13.4098 20.7502 13.8408 20.7502H18.7158C19.1468 20.7502 19.5601 20.579 19.8649 20.2743C20.1696 19.9695 20.3408 19.5562 20.3408 19.1252V9.73577C20.3409 9.51087 20.2942 9.28841 20.2038 9.08247C20.1134 8.87653 19.9813 8.6916 19.8157 8.53937ZM18.7158 19.1252H13.8408V14.2502C13.8408 13.8192 13.6696 13.4059 13.3649 13.1012C13.0601 12.7964 12.6468 12.6252 12.2158 12.6252H8.96582C8.53484 12.6252 8.12152 12.7964 7.81677 13.1012C7.51203 13.4059 7.34082 13.8192 7.34082 14.2502V19.1252H2.46582V9.73577L2.47699 9.72562L10.5908 2.06273L18.7057 9.72359L18.7168 9.73374L18.7158 19.1252Z" fill="#656E6F"/>
</svg>
