<svg width="20" height="21" viewBox="0 0 20 21" fill="none" xmlns="http://www.w3.org/2000/svg">
<path d="M19.75 9.73577V19.1252C19.75 19.5562 19.5788 19.9695 19.274 20.2743C18.9693 20.579 18.556 20.7502 18.125 20.7502H14.0625C13.6315 20.7502 13.2182 20.579 12.9135 20.2743C12.6087 19.9695 12.4375 19.5562 12.4375 19.1252V15.0627C12.4375 14.8472 12.3519 14.6406 12.1995 14.4882C12.0472 14.3358 11.8405 14.2502 11.625 14.2502H8.375C8.15951 14.2502 7.95285 14.3358 7.80048 14.4882C7.6481 14.6406 7.5625 14.8472 7.5625 15.0627V19.1252C7.5625 19.5562 7.39129 19.9695 7.08655 20.2743C6.7818 20.579 6.36848 20.7502 5.9375 20.7502H1.875C1.44402 20.7502 1.0307 20.579 0.725951 20.2743C0.421205 19.9695 0.25 19.5562 0.25 19.1252V9.73577C0.249966 9.51087 0.296616 9.28841 0.386999 9.08247C0.477382 8.87653 0.609529 8.6916 0.775078 8.53937L8.90008 0.873429L8.91125 0.862257C9.21039 0.590205 9.60022 0.439453 10.0046 0.439453C10.4089 0.439453 10.7987 0.590205 11.0979 0.862257C11.1014 0.866231 11.1051 0.869964 11.1091 0.873429L19.2341 8.53937C19.398 8.6924 19.5284 8.8777 19.6172 9.0836C19.706 9.2895 19.7512 9.51155 19.75 9.73577Z" fill="#F55668"/>
</svg>
