<svg width="30" height="30" viewBox="0 0 30 30" fill="none" xmlns="http://www.w3.org/2000/svg">
<path d="M25.3125 4.6875H8.4375C7.94022 4.6875 7.46331 4.88504 7.11167 5.23667C6.76004 5.58831 6.5625 6.06522 6.5625 6.5625V8.4375H4.6875C4.19022 8.4375 3.71331 8.63504 3.36167 8.98668C3.01004 9.33831 2.8125 9.81522 2.8125 10.3125V23.4375C2.8125 23.9348 3.01004 24.4117 3.36167 24.7633C3.71331 25.115 4.19022 25.3125 4.6875 25.3125H21.5625C22.0598 25.3125 22.5367 25.115 22.8883 24.7633C23.24 24.4117 23.4375 23.9348 23.4375 23.4375V21.5625H25.3125C25.8098 21.5625 26.2867 21.365 26.6383 21.0133C26.99 20.6617 27.1875 20.1848 27.1875 19.6875V6.5625C27.1875 6.06522 26.99 5.58831 26.6383 5.23667C26.2867 4.88504 25.8098 4.6875 25.3125 4.6875ZM8.4375 6.5625H25.3125V13.916L24.1324 12.7371C23.9583 12.563 23.7516 12.4248 23.5241 12.3306C23.2966 12.2363 23.0527 12.1878 22.8064 12.1878C22.5602 12.1878 22.3163 12.2363 22.0888 12.3306C21.8613 12.4248 21.6546 12.563 21.4805 12.7371L19.1367 15.0809L13.9805 9.92461C13.6289 9.57324 13.1521 9.37587 12.6551 9.37587C12.158 9.37587 11.6813 9.57324 11.3297 9.92461L8.4375 12.8168V6.5625ZM21.5625 23.4375H4.6875V10.3125H6.5625V19.6875C6.5625 20.1848 6.76004 20.6617 7.11167 21.0133C7.46331 21.365 7.94022 21.5625 8.4375 21.5625H21.5625V23.4375ZM25.3125 19.6875H8.4375V15.4688L12.6562 11.25L18.4758 17.0695C18.6516 17.2452 18.8899 17.3439 19.1385 17.3439C19.387 17.3439 19.6254 17.2452 19.8012 17.0695L22.8082 14.0625L25.3125 16.568V19.6875ZM18.75 9.84375C18.75 9.56562 18.8325 9.29374 18.987 9.06248C19.1415 8.83122 19.3611 8.65098 19.6181 8.54454C19.8751 8.43811 20.1578 8.41026 20.4306 8.46452C20.7034 8.51878 20.954 8.65271 21.1506 8.84938C21.3473 9.04605 21.4812 9.29662 21.5355 9.5694C21.5897 9.84219 21.5619 10.1249 21.4555 10.3819C21.349 10.6389 21.1688 10.8585 20.9375 11.013C20.7063 11.1675 20.4344 11.25 20.1562 11.25C19.7833 11.25 19.4256 11.1018 19.1619 10.8381C18.8982 10.5744 18.75 10.2167 18.75 9.84375Z" fill="#343330"/>
</svg>
