<svg width="25" height="25" viewBox="0 0 25 25" fill="none" xmlns="http://www.w3.org/2000/svg">
<path d="M21.9277 14.5904V19.8404C21.9277 20.2383 21.7697 20.6198 21.4884 20.9011C21.2071 21.1824 20.8256 21.3404 20.4277 21.3404H5.42773C5.02991 21.3404 4.64838 21.1824 4.36707 20.9011C4.08577 20.6198 3.92773 20.2383 3.92773 19.8404V14.5904C3.92773 14.3915 4.00675 14.2008 4.1474 14.0601C4.28806 13.9195 4.47882 13.8404 4.67773 13.8404C4.87665 13.8404 5.06741 13.9195 5.20806 14.0601C5.34872 14.2008 5.42773 14.3915 5.42773 14.5904V19.8404H20.4277V14.5904C20.4277 14.3915 20.5068 14.2008 20.6474 14.0601C20.7881 13.9195 20.9788 13.8404 21.1777 13.8404C21.3766 13.8404 21.5674 13.9195 21.7081 14.0601C21.8487 14.2008 21.9277 14.3915 21.9277 14.5904ZM9.70836 8.37106L12.1777 5.90075V14.5904C12.1777 14.7893 12.2568 14.9801 12.3974 15.1208C12.5381 15.2614 12.7288 15.3404 12.9277 15.3404C13.1266 15.3404 13.3174 15.2614 13.4581 15.1208C13.5987 14.9801 13.6777 14.7893 13.6777 14.5904V5.90075L16.1471 8.37106C16.2878 8.51179 16.4787 8.59085 16.6777 8.59085C16.8768 8.59085 17.0676 8.51179 17.2084 8.37106C17.3491 8.23033 17.4282 8.03946 17.4282 7.84043C17.4282 7.64141 17.3491 7.45054 17.2084 7.30981L13.4584 3.55981C13.3887 3.49008 13.306 3.43476 13.2149 3.39701C13.1239 3.35927 13.0263 3.33984 12.9277 3.33984C12.8292 3.33984 12.7316 3.35927 12.6405 3.39701C12.5495 3.43476 12.4668 3.49008 12.3971 3.55981L8.64711 7.30981C8.50638 7.45054 8.42732 7.64141 8.42732 7.84043C8.42732 8.03946 8.50638 8.23033 8.64711 8.37106C8.78784 8.51179 8.97871 8.59085 9.17773 8.59085C9.37676 8.59085 9.56763 8.51179 9.70836 8.37106Z" fill="#1D2021"/>
</svg>
