<svg width="25" height="25" viewBox="0 0 25 25" fill="none" xmlns="http://www.w3.org/2000/svg">
<path d="M0.85498 12.1641C0.85498 18.7915 6.22756 24.1641 12.855 24.1641C19.4824 24.1641 24.855 18.7915 24.855 12.1641C24.855 5.53665 19.4824 0.164062 12.855 0.164062C6.22756 0.164062 0.85498 5.53665 0.85498 12.1641Z" fill="#F00073"/>
<path d="M12.8549 7.06445C14.5049 7.06445 14.7299 7.06445 15.4049 7.06445C16.0049 7.06445 16.3049 7.21445 16.5299 7.28945C16.8299 7.43945 17.0549 7.51445 17.2799 7.73945C17.5049 7.96445 17.6549 8.18945 17.7299 8.48945C17.8049 8.71445 17.8799 9.01445 17.9549 9.61445C17.9549 10.2895 17.9549 10.4395 17.9549 12.1645C17.9549 13.8895 17.9549 14.0395 17.9549 14.7145C17.9549 15.3145 17.8049 15.6145 17.7299 15.8395C17.5799 16.1395 17.5049 16.3645 17.2799 16.5895C17.0549 16.8145 16.8299 16.9645 16.5299 17.0395C16.3049 17.1145 16.0049 17.1895 15.4049 17.2645C14.7299 17.2645 14.5799 17.2645 12.8549 17.2645C11.1299 17.2645 10.9799 17.2645 10.3049 17.2645C9.70488 17.2645 9.40488 17.1145 9.17988 17.0395C8.87988 16.8895 8.65488 16.8145 8.42988 16.5895C8.20488 16.3645 8.05488 16.1395 7.97988 15.8395C7.90488 15.6145 7.82988 15.3145 7.75488 14.7145C7.75488 14.0395 7.75488 13.8895 7.75488 12.1645C7.75488 10.4395 7.75488 10.2895 7.75488 9.61445C7.75488 9.01445 7.90488 8.71445 7.97988 8.48945C8.12988 8.18945 8.20488 7.96445 8.42988 7.73945C8.65488 7.51445 8.87988 7.36445 9.17988 7.28945C9.40488 7.21445 9.70488 7.13945 10.3049 7.06445C10.9799 7.06445 11.2049 7.06445 12.8549 7.06445ZM12.8549 5.93945C11.1299 5.93945 10.9799 5.93945 10.3049 5.93945C9.62988 5.93945 9.17988 6.08945 8.80488 6.23945C8.42988 6.38945 8.05488 6.61445 7.67988 6.98945C7.30488 7.36445 7.15488 7.66445 6.92988 8.11445C6.77988 8.48945 6.70488 8.93945 6.62988 9.61445C6.62988 10.2895 6.62988 10.5145 6.62988 12.1645C6.62988 13.8895 6.62988 14.0395 6.62988 14.7145C6.62988 15.3895 6.77988 15.8395 6.92988 16.2145C7.07988 16.5895 7.30488 16.9645 7.67988 17.3395C8.05488 17.7145 8.35488 17.8645 8.80488 18.0895C9.17988 18.2395 9.62988 18.3145 10.3049 18.3895C10.9799 18.3895 11.2049 18.3895 12.8549 18.3895C14.5049 18.3895 14.7299 18.3895 15.4049 18.3895C16.0799 18.3895 16.5299 18.2395 16.9049 18.0895C17.2799 17.9395 17.6549 17.7145 18.0299 17.3395C18.4049 16.9645 18.5549 16.6645 18.7799 16.2145C18.9299 15.8395 19.0049 15.3895 19.0799 14.7145C19.0799 14.0395 19.0799 13.8145 19.0799 12.1645C19.0799 10.5145 19.0799 10.2895 19.0799 9.61445C19.0799 8.93945 18.9299 8.48945 18.7799 8.11445C18.6299 7.73945 18.4049 7.36445 18.0299 6.98945C17.6549 6.61445 17.3549 6.46445 16.9049 6.23945C16.5299 6.08945 16.0799 6.01445 15.4049 5.93945C14.7299 5.93945 14.5799 5.93945 12.8549 5.93945Z" fill="white"/>
<path d="M12.8549 8.93945C11.0549 8.93945 9.62988 10.3645 9.62988 12.1645C9.62988 13.9645 11.0549 15.3895 12.8549 15.3895C14.6549 15.3895 16.0799 13.9645 16.0799 12.1645C16.0799 10.3645 14.6549 8.93945 12.8549 8.93945ZM12.8549 14.2645C11.7299 14.2645 10.7549 13.3645 10.7549 12.1645C10.7549 11.0395 11.6549 10.0645 12.8549 10.0645C13.9799 10.0645 14.9549 10.9645 14.9549 12.1645C14.9549 13.2895 13.9799 14.2645 12.8549 14.2645Z" fill="white"/>
<path d="M16.1549 9.61445C16.5691 9.61445 16.9049 9.27867 16.9049 8.86445C16.9049 8.45024 16.5691 8.11445 16.1549 8.11445C15.7407 8.11445 15.4049 8.45024 15.4049 8.86445C15.4049 9.27867 15.7407 9.61445 16.1549 9.61445Z" fill="white"/>
</svg>
