<svg width="24" height="24" viewBox="0 0 24 24" fill="none" xmlns="http://www.w3.org/2000/svg">
<g id="keyboard_arrow_left">
<mask id="mask0_3967_1246" style="mask-type:alpha" maskUnits="userSpaceOnUse" x="0" y="0" width="24" height="24">
<rect id="Bounding box" width="24" height="24" fill="#D9D9D9"/>
</mask>
<g mask="url(#mask0_3967_1246)">
<path id="keyboard_arrow_left_2" d="M10.801 11.575L15.4006 16.1746C15.6168 16.3908 15.7249 16.666 15.7249 17.0001C15.7249 17.3343 15.6168 17.6095 15.4006 17.8257C15.1843 18.0419 14.9092 18.15 14.575 18.15C14.2408 18.15 13.9657 18.0419 13.7494 17.8257L8.32433 12.4006C8.20639 12.2826 8.12285 12.1549 8.07371 12.0173C8.02457 11.8797 8 11.7322 8 11.575C8 11.4177 8.02457 11.2703 8.07371 11.1327C8.12285 10.9951 8.20639 10.8674 8.32433 10.7494L13.7494 5.32433C13.9657 5.10811 14.2408 5 14.575 5C14.9092 5 15.1843 5.10811 15.4006 5.32433C15.6168 5.54055 15.7249 5.81573 15.7249 6.14989C15.7249 6.48404 15.6168 6.75923 15.4006 6.97545L10.801 11.575Z" fill="#1D2021"/>
</g>
</g>
</svg>
