<svg width="70" height="58" viewBox="0 0 70 58" fill="none" xmlns="http://www.w3.org/2000/svg">
<path d="M31.25 10.5004C31.9917 10.5004 32.7167 10.7204 33.3334 11.1324C33.9501 11.5445 34.4307 12.1302 34.7146 12.8154C34.9984 13.5006 35.0726 14.2546 34.9279 14.982C34.7832 15.7095 34.4261 16.3776 33.9016 16.9021C33.3772 17.4265 32.709 17.7837 31.9816 17.9284C31.2542 18.0731 30.5002 17.9988 29.8149 17.715C29.1297 17.4312 28.544 16.9505 28.132 16.3338C27.7199 15.7171 27.5 14.9921 27.5 14.2504C27.5 13.2559 27.8951 12.3021 28.5983 11.5988C29.3016 10.8955 30.2554 10.5004 31.25 10.5004Z" fill="#FDDDE1"/>
<path fill-rule="evenodd" clip-rule="evenodd" d="M57.5 53.0004H67.5C68.163 53.0004 68.7989 53.2638 69.2678 53.7327C69.7366 54.2015 70 54.8374 70 55.5004C70 56.1635 69.7366 56.7994 69.2678 57.2682C68.7989 57.7371 68.163 58.0004 67.5 58.0004H2.5C1.83696 58.0004 1.20107 57.7371 0.732233 57.2682C0.263392 56.7994 0 56.1635 0 55.5004C0 54.8374 0.263392 54.2015 0.732233 53.7327C1.20107 53.2638 1.83696 53.0004 2.5 53.0004H10V48.0004H7.5C6.83696 48.0004 6.20107 47.7371 5.73223 47.2682C5.26339 46.7994 5 46.1635 5 45.5004C5 44.8374 5.26339 44.2015 5.73223 43.7327C6.20107 43.2638 6.83696 43.0004 7.5 43.0004H10V38.0004H7.5C6.83696 38.0004 6.20107 37.7371 5.73223 37.2682C5.26339 36.7994 5 36.1635 5 35.5004C5 34.8374 5.26339 34.2015 5.73223 33.7327C6.20107 33.2638 6.83696 33.0004 7.5 33.0004H35C35.663 33.0004 36.2989 33.2638 36.7678 33.7327C37.2366 34.2015 37.5 34.8374 37.5 35.5004C37.5 36.1635 37.2366 36.7994 36.7678 37.2682C36.2989 37.7371 35.663 38.0004 35 38.0004H32.5V43.0004H35C35.663 43.0004 36.2989 43.2638 36.7678 43.7327C37.2366 44.2015 37.5 44.8374 37.5 45.5004C37.5 46.1635 37.2366 46.7994 36.7678 47.2682C36.2989 47.7371 35.663 48.0004 35 48.0004H32.5V53.0004H52.5V45.5004H45C44.6201 45.5004 44.2453 45.4138 43.9039 45.2471C43.5625 45.0805 43.2635 44.8383 43.0298 44.5389C42.796 44.2394 42.6336 43.8907 42.5548 43.519C42.476 43.1474 42.4829 42.7627 42.575 42.3942L52.575 2.39419C52.7105 1.85362 53.0227 1.37382 53.462 1.03099C53.9014 0.688157 54.4427 0.501953 55 0.501953C55.5573 0.501953 56.0986 0.688157 56.538 1.03099C56.9773 1.37382 57.2895 1.85362 57.425 2.39419L67.425 42.3942C67.5171 42.7627 67.524 43.1474 67.4452 43.519C67.3664 43.8907 67.204 44.2394 66.9702 44.5389C66.7365 44.8383 66.4375 45.0805 66.0961 45.2471C65.7547 45.4138 65.3799 45.5004 65 45.5004H57.5V53.0004ZM15 53.0004H27.5V48.0004H15V53.0004ZM15 43.0004H27.5V38.0004H15V43.0004Z" fill="#F55668"/>
<path fill-rule="evenodd" clip-rule="evenodd" d="M31.25 23.0004C32.9806 23.0004 34.6723 22.4873 36.1112 21.5258C37.5502 20.5643 38.6717 19.1978 39.3339 17.5989C39.9962 16.0001 40.1695 14.2407 39.8319 12.5434C39.4943 10.8461 38.6609 9.28697 37.4372 8.06326C36.2135 6.83955 34.6544 6.00619 32.957 5.66857C31.2597 5.33095 29.5004 5.50423 27.9015 6.1665C26.3027 6.82876 24.9361 7.95027 23.9746 9.3892C23.0132 10.8281 22.5 12.5199 22.5 14.2504C22.5 16.5711 23.4219 18.7967 25.0628 20.4376C26.7038 22.0786 28.9294 23.0004 31.25 23.0004ZM33.3334 11.1324C32.7167 10.7204 31.9917 10.5004 31.25 10.5004C30.2554 10.5004 29.3016 10.8955 28.5983 11.5988C27.8951 12.3021 27.5 13.2559 27.5 14.2504C27.5 14.9921 27.7199 15.7171 28.132 16.3338C28.544 16.9505 29.1297 17.4312 29.8149 17.715C30.5002 17.9988 31.2542 18.0731 31.9816 17.9284C32.709 17.7837 33.3772 17.4265 33.9016 16.9021C34.4261 16.3776 34.7832 15.7095 34.9279 14.982C35.0726 14.2546 34.9984 13.5006 34.7146 12.8154C34.4307 12.1302 33.9501 11.5445 33.3334 11.1324Z" fill="#FDDDE1"/>
</svg>
