<svg width="25" height="25" viewBox="0 0 25 25" fill="none" xmlns="http://www.w3.org/2000/svg">
<path d="M0.85498 12.1641C0.85498 18.7915 6.22756 24.1641 12.855 24.1641C19.4824 24.1641 24.855 18.7915 24.855 12.1641C24.855 5.53665 19.4824 0.164062 12.855 0.164062C6.22756 0.164062 0.85498 5.53665 0.85498 12.1641Z" fill="#2867B2"/>
<path d="M9.55499 18.1641H7.00498V10.1391H9.55499V18.1641ZM8.27998 9.01406C7.45498 9.01406 6.85498 8.41406 6.85498 7.58906C6.85498 6.76406 7.52998 6.16406 8.27998 6.16406C9.10498 6.16406 9.70498 6.76406 9.70498 7.58906C9.70498 8.41406 9.10498 9.01406 8.27998 9.01406ZM18.855 18.1641H16.305V13.8141C16.305 12.5391 15.78 12.1641 15.03 12.1641C14.28 12.1641 13.53 12.7641 13.53 13.8891V18.1641H10.98V10.1391H13.38V11.2641C13.605 10.7391 14.505 9.91406 15.78 9.91406C17.205 9.91406 18.705 10.7391 18.705 13.2141V18.1641H18.855Z" fill="white"/>
</svg>
