<svg width="25" height="24" viewBox="0 0 25 24" fill="none" xmlns="http://www.w3.org/2000/svg">
<path d="M8.65039 6C8.65039 5.80109 8.72941 5.61032 8.87006 5.46967C9.01071 5.32902 9.20148 5.25 9.40039 5.25H20.6504C20.8493 5.25 21.0401 5.32902 21.1807 5.46967C21.3214 5.61032 21.4004 5.80109 21.4004 6C21.4004 6.19891 21.3214 6.38968 21.1807 6.53033C21.0401 6.67098 20.8493 6.75 20.6504 6.75H9.40039C9.20148 6.75 9.01071 6.67098 8.87006 6.53033C8.72941 6.38968 8.65039 6.19891 8.65039 6ZM20.6504 11.25H9.40039C9.20148 11.25 9.01071 11.329 8.87006 11.4697C8.72941 11.6103 8.65039 11.8011 8.65039 12C8.65039 12.1989 8.72941 12.3897 8.87006 12.5303C9.01071 12.671 9.20148 12.75 9.40039 12.75H20.6504C20.8493 12.75 21.0401 12.671 21.1807 12.5303C21.3214 12.3897 21.4004 12.1989 21.4004 12C21.4004 11.8011 21.3214 11.6103 21.1807 11.4697C21.0401 11.329 20.8493 11.25 20.6504 11.25ZM20.6504 17.25H9.40039C9.20148 17.25 9.01071 17.329 8.87006 17.4697C8.72941 17.6103 8.65039 17.8011 8.65039 18C8.65039 18.1989 8.72941 18.3897 8.87006 18.5303C9.01071 18.671 9.20148 18.75 9.40039 18.75H20.6504C20.8493 18.75 21.0401 18.671 21.1807 18.5303C21.3214 18.3897 21.4004 18.1989 21.4004 18C21.4004 17.8011 21.3214 17.6103 21.1807 17.4697C21.0401 17.329 20.8493 17.25 20.6504 17.25ZM5.65039 5.25H4.15039C3.95148 5.25 3.76071 5.32902 3.62006 5.46967C3.47941 5.61032 3.40039 5.80109 3.40039 6C3.40039 6.19891 3.47941 6.38968 3.62006 6.53033C3.76071 6.67098 3.95148 6.75 4.15039 6.75H5.65039C5.8493 6.75 6.04007 6.67098 6.18072 6.53033C6.32137 6.38968 6.40039 6.19891 6.40039 6C6.40039 5.80109 6.32137 5.61032 6.18072 5.46967C6.04007 5.32902 5.8493 5.25 5.65039 5.25ZM5.65039 11.25H4.15039C3.95148 11.25 3.76071 11.329 3.62006 11.4697C3.47941 11.6103 3.40039 11.8011 3.40039 12C3.40039 12.1989 3.47941 12.3897 3.62006 12.5303C3.76071 12.671 3.95148 12.75 4.15039 12.75H5.65039C5.8493 12.75 6.04007 12.671 6.18072 12.5303C6.32137 12.3897 6.40039 12.1989 6.40039 12C6.40039 11.8011 6.32137 11.6103 6.18072 11.4697C6.04007 11.329 5.8493 11.25 5.65039 11.25ZM5.65039 17.25H4.15039C3.95148 17.25 3.76071 17.329 3.62006 17.4697C3.47941 17.6103 3.40039 17.8011 3.40039 18C3.40039 18.1989 3.47941 18.3897 3.62006 18.5303C3.76071 18.671 3.95148 18.75 4.15039 18.75H5.65039C5.8493 18.75 6.04007 18.671 6.18072 18.5303C6.32137 18.3897 6.40039 18.1989 6.40039 18C6.40039 17.8011 6.32137 17.6103 6.18072 17.4697C6.04007 17.329 5.8493 17.25 5.65039 17.25Z" fill="#F55668"/>
</svg>
