<svg width="30" height="31" viewBox="0 0 30 31" fill="none" xmlns="http://www.w3.org/2000/svg">
<mask id="mask0_1953_10600" style="mask-type:alpha" maskUnits="userSpaceOnUse" x="0" y="0" width="30" height="31">
<rect y="0.5" width="30" height="30" fill="#D9D9D9"/>
</mask>
<g mask="url(#mask0_1953_10600)">
<path d="M15 15C15.6875 15 16.276 14.7552 16.7656 14.2656C17.2552 13.776 17.5 13.1875 17.5 12.5C17.5 11.8125 17.2552 11.224 16.7656 10.7344C16.276 10.2448 15.6875 10 15 10C14.3125 10 13.724 10.2448 13.2344 10.7344C12.7448 11.224 12.5 11.8125 12.5 12.5C12.5 13.1875 12.7448 13.776 13.2344 14.2656C13.724 14.7552 14.3125 15 15 15ZM15 27.5C11.6458 24.6458 9.14062 21.9948 7.48438 19.5469C5.82812 17.099 5 14.8333 5 12.75C5 9.625 6.00521 7.13542 8.01563 5.28125C10.026 3.42708 12.3542 2.5 15 2.5C17.6458 2.5 19.974 3.42708 21.9844 5.28125C23.9948 7.13542 25 9.625 25 12.75C25 14.8333 24.1719 17.099 22.5156 19.5469C20.8594 21.9948 18.3542 24.6458 15 27.5Z" fill="#F55668"/>
</g>
</svg>
