<svg width="24" height="24" viewBox="0 0 24 24" fill="none" xmlns="http://www.w3.org/2000/svg">
<g id="logo googleg 48dp">
<path id="Shape" fill-rule="evenodd" clip-rule="evenodd" d="M23.04 12.2605C23.04 11.445 22.9668 10.6609 22.8309 9.9082H12V14.3566H18.1891C17.9225 15.7941 17.1123 17.0121 15.8943 17.8275V20.713H19.6109C21.7855 18.7109 23.04 15.7627 23.04 12.2605Z" fill="#4285F4"/>
<path id="Shape_2" fill-rule="evenodd" clip-rule="evenodd" d="M12.0005 23.5005C15.1055 23.5005 17.7086 22.4708 19.6114 20.7144L15.8948 17.829C14.865 18.519 13.5477 18.9267 12.0005 18.9267C9.00522 18.9267 6.47 16.9037 5.56568 14.1855H1.72363V17.1651C3.61591 20.9235 7.505 23.5005 12.0005 23.5005Z" fill="#34A853"/>
<path id="Shape_3" fill-rule="evenodd" clip-rule="evenodd" d="M5.56523 14.1855C5.33523 13.4955 5.20455 12.7584 5.20455 12.0005C5.20455 11.2425 5.33523 10.5055 5.56523 9.81548V6.83594H1.72318C0.944318 8.38844 0.5 10.1448 0.5 12.0005C0.5 13.8562 0.944318 15.6125 1.72318 17.165L5.56523 14.1855Z" fill="#FBBC05"/>
<path id="Shape_4" fill-rule="evenodd" clip-rule="evenodd" d="M12.0005 5.07386C13.6889 5.07386 15.2048 5.65409 16.3966 6.79364L19.695 3.49523C17.7034 1.63955 15.1002 0.5 12.0005 0.5C7.505 0.5 3.61591 3.07705 1.72363 6.83545L5.56568 9.815C6.47 7.09682 9.00522 5.07386 12.0005 5.07386Z" fill="#EA4335"/>
</g>
</svg>
