<svg width="28" height="28" viewBox="0 0 28 28" fill="none" xmlns="http://www.w3.org/2000/svg">
<g id="mail">
<mask id="mask0_1123_3478" style="mask-type:alpha" maskUnits="userSpaceOnUse" x="0" y="0" width="28" height="28">
<rect id="Bounding box" width="28" height="28" fill="#D9D9D9"/>
</mask>
<g mask="url(#mask0_1123_3478)">
<path id="mail_2" d="M4.66634 23.3327C4.02467 23.3327 3.47537 23.1042 3.01842 22.6473C2.56148 22.1903 2.33301 21.641 2.33301 20.9993V6.99935C2.33301 6.35768 2.56148 5.80838 3.01842 5.35143C3.47537 4.89449 4.02467 4.66602 4.66634 4.66602H23.333C23.9747 4.66602 24.524 4.89449 24.9809 5.35143C25.4379 5.80838 25.6663 6.35768 25.6663 6.99935V20.9993C25.6663 21.641 25.4379 22.1903 24.9809 22.6473C24.524 23.1042 23.9747 23.3327 23.333 23.3327H4.66634ZM23.333 9.33268L14.6122 14.7868C14.515 14.8452 14.4129 14.8889 14.3059 14.9181C14.199 14.9473 14.0969 14.9618 13.9997 14.9618C13.9025 14.9618 13.8004 14.9473 13.6934 14.9181C13.5865 14.8889 13.4844 14.8452 13.3872 14.7868L4.66634 9.33268V20.9993H23.333V9.33268ZM13.9997 12.8327L23.333 6.99935H4.66634L13.9997 12.8327ZM4.66634 9.62435V7.90352V7.93268V7.9181V9.62435Z" fill="#111827"/>
</g>
</g>
</svg>
