<svg width="24" height="24" viewBox="0 0 24 24" fill="none" xmlns="http://www.w3.org/2000/svg">
<mask id="mask0_128_122" style="mask-type:alpha" maskUnits="userSpaceOnUse" x="0" y="0" width="24" height="24">
<rect width="24" height="24" fill="#D9D9D9"/>
</mask>
<g mask="url(#mask0_128_122)">
<path d="M19.0625 18.1588C19.2542 18.3504 19.4917 18.4463 19.775 18.4463C20.0583 18.4463 20.2958 18.3504 20.4875 18.1588C20.6792 17.9671 20.775 17.7296 20.775 17.4463C20.775 17.1629 20.6792 16.9254 20.4875 16.7338C20.2958 16.5421 20.0583 16.4463 19.775 16.4463C19.4917 16.4463 19.2542 16.5421 19.0625 16.7338C18.8708 16.9254 18.775 17.1629 18.775 17.4463C18.775 17.7296 18.8708 17.9671 19.0625 18.1588Z" fill="#1C1B1F"/>
<path d="M18.775 10.4463V15.4463H20.775V10.4463H18.775Z" fill="#1C1B1F"/>
<path d="M19.5 9H21.3874C21.6739 8.07058 21.765 7.7875 21.6513 7H19.65C19.6236 6.94138 19.5961 6.88404 19.5676 6.82799C19.8517 7.41018 19.7263 7.98039 19.5 9Z" fill="#1C1B1F"/>
<path fill-rule="evenodd" clip-rule="evenodd" d="M8.825 18.15L12 21L13.45 19.7C13.8833 19.3167 14.3833 18.8792 14.95 18.3875C15.5167 17.8958 15.9833 17.4833 16.35 17.15L14.925 15.725C14.575 16.0583 14.1083 16.475 13.525 16.975C12.9417 17.475 12.4333 17.9167 12 18.3C10.4 16.9 9.08333 15.7042 8.05 14.7125C7.01667 13.7208 6.2 12.8542 5.6 12.1125C5 11.3708 4.58333 10.7167 4.35 10.15C4.11667 9.58333 4 9.025 4 8.475C4 7.475 4.34583 6.64583 5.0375 5.9875C5.72917 5.32917 6.55 5 7.5 5C8.28333 5 9.00417 5.22917 9.6625 5.6875C10.3208 6.14583 10.9083 6.75 11.425 7.5H12.575C13.1083 6.75 13.6833 6.14583 14.3 5.6875C14.9167 5.22917 15.65 5 16.5 5C17.1333 5 17.7417 5.16667 18.325 5.5C18.857 5.80402 19.2712 6.24668 19.5676 6.82799C19.5961 6.88404 19.6236 6.94138 19.65 7H21.6513C21.6044 6.67499 21.507 6.36925 21.3874 6C21.0322 5.28479 20.5364 4.66395 19.9 4.1375C18.9833 3.37917 17.85 3 16.5 3C15.6333 3 14.8083 3.18333 14.025 3.55C13.2417 3.91667 12.5667 4.43333 12 5.1C11.4333 4.43333 10.7583 3.91667 9.975 3.55C9.19167 3.18333 8.36667 3 7.5 3C5.93333 3 4.625 3.52083 3.575 4.5625C2.525 5.60417 2 6.90833 2 8.475C2 9.24167 2.12917 9.975 2.3875 10.675C2.64583 11.375 3.05417 12.1 3.6125 12.85C4.17083 13.6 4.87917 14.4 5.7375 15.25C6.59583 16.1 7.625 17.0667 8.825 18.15Z" fill="#1C1B1F"/>
</g>
</svg>
