<svg width="16" height="18" viewBox="0 0 16 18" fill="none" xmlns="http://www.w3.org/2000/svg">
<path d="M15.3614 3.70109L11.9239 0.263594C11.86 0.19977 11.7842 0.149161 11.7007 0.114656C11.6173 0.0801521 11.5278 0.0624292 11.4375 0.0625002H4.5625C4.19783 0.0625002 3.84809 0.207366 3.59023 0.465228C3.33237 0.723091 3.1875 1.07283 3.1875 1.4375V2.8125H1.8125C1.44783 2.8125 1.09809 2.95737 0.840228 3.21523C0.582366 3.47309 0.4375 3.82283 0.4375 4.1875V16.5625C0.4375 16.9272 0.582366 17.2769 0.840228 17.5348C1.09809 17.7926 1.44783 17.9375 1.8125 17.9375H11.4375C11.8022 17.9375 12.1519 17.7926 12.4098 17.5348C12.6676 17.2769 12.8125 16.9272 12.8125 16.5625V15.1875H14.1875C14.5522 15.1875 14.9019 15.0426 15.1598 14.7848C15.4176 14.5269 15.5625 14.1772 15.5625 13.8125V4.1875C15.5626 4.09719 15.5448 4.00775 15.5103 3.92429C15.4758 3.84083 15.4252 3.76499 15.3614 3.70109ZM8.6875 14.5H4.5625C4.38016 14.5 4.2053 14.4276 4.07636 14.2986C3.94743 14.1697 3.875 13.9948 3.875 13.8125C3.875 13.6302 3.94743 13.4553 4.07636 13.3264C4.2053 13.1974 4.38016 13.125 4.5625 13.125H8.6875C8.86984 13.125 9.04471 13.1974 9.17364 13.3264C9.30257 13.4553 9.375 13.6302 9.375 13.8125C9.375 13.9948 9.30257 14.1697 9.17364 14.2986C9.04471 14.4276 8.86984 14.5 8.6875 14.5ZM8.6875 11.75H4.5625C4.38016 11.75 4.2053 11.6776 4.07636 11.5486C3.94743 11.4197 3.875 11.2448 3.875 11.0625C3.875 10.8802 3.94743 10.7053 4.07636 10.5764C4.2053 10.4474 4.38016 10.375 4.5625 10.375H8.6875C8.86984 10.375 9.04471 10.4474 9.17364 10.5764C9.30257 10.7053 9.375 10.8802 9.375 11.0625C9.375 11.2448 9.30257 11.4197 9.17364 11.5486C9.04471 11.6776 8.86984 11.75 8.6875 11.75ZM14.1875 13.8125H12.8125V6.9375C12.8126 6.84719 12.7948 6.75775 12.7603 6.67429C12.7258 6.59083 12.6752 6.51499 12.6114 6.45109L9.17391 3.01359C9.11001 2.94977 9.03417 2.89916 8.95071 2.86466C8.86725 2.83015 8.77781 2.81243 8.6875 2.8125H4.5625V1.4375H11.153L14.1875 4.47195V13.8125Z" fill="#F55668"/>
</svg>
