<svg width="26" height="26" viewBox="0 0 26 26" fill="none" xmlns="http://www.w3.org/2000/svg">
<mask id="mask0_1958_12921" style="mask-type:alpha" maskUnits="userSpaceOnUse" x="0" y="0" width="26" height="26">
<rect width="26" height="26" fill="#D9D9D9"/>
</mask>
<g mask="url(#mask0_1958_12921)">
<path d="M11.9164 24.8637V22.697C9.65943 22.4442 7.72297 21.5099 6.107 19.8939C4.49103 18.2779 3.55665 16.3414 3.30387 14.0845H1.13721V11.9178H3.30387C3.55665 9.66089 4.49103 7.72444 6.107 6.10846C7.72297 4.49249 9.65943 3.55812 11.9164 3.30534V1.13867H14.083V3.30534C16.34 3.55812 18.2764 4.49249 19.8924 6.10846C21.5084 7.72444 22.4428 9.66089 22.6955 11.9178H24.8622V14.0845H22.6955C22.4428 16.3414 21.5084 18.2779 19.8924 19.8939C18.2764 21.5099 16.34 22.4442 14.083 22.697V24.8637H11.9164ZM12.9997 20.5845C15.0942 20.5845 16.8817 19.8442 18.3622 18.3637C19.8428 16.8831 20.583 15.0956 20.583 13.0012C20.583 10.9067 19.8428 9.11923 18.3622 7.63867C16.8817 6.15812 15.0942 5.41784 12.9997 5.41784C10.9053 5.41784 9.11776 6.15812 7.63721 7.63867C6.15665 9.11923 5.41637 10.9067 5.41637 13.0012C5.41637 15.0956 6.15665 16.8831 7.63721 18.3637C9.11776 19.8442 10.9053 20.5845 12.9997 20.5845ZM12.9997 17.3345C11.808 17.3345 10.7879 16.9102 9.93929 16.0616C9.09068 15.213 8.66637 14.1928 8.66637 13.0012C8.66637 11.8095 9.09068 10.7894 9.93929 9.94075C10.7879 9.09214 11.808 8.66784 12.9997 8.66784C14.1914 8.66784 15.2115 9.09214 16.0601 9.94075C16.9087 10.7894 17.333 11.8095 17.333 13.0012C17.333 14.1928 16.9087 15.213 16.0601 16.0616C15.2115 16.9102 14.1914 17.3345 12.9997 17.3345Z" fill="#F55668"/>
</g>
</svg>
