<svg width="86" height="85" viewBox="0 0 86 85" fill="none" xmlns="http://www.w3.org/2000/svg">
<path d="M40.4998 20.2266C34.1369 20.2338 28.0367 22.7647 23.5374 27.264C19.0382 31.7632 16.5073 37.8635 16.5 44.2264V68.2262C16.4999 68.6049 16.6074 68.9759 16.8099 69.2959C17.0124 69.616 17.3016 69.872 17.6439 70.0341C17.9862 70.1962 18.3675 70.2578 18.7435 70.2117C19.1194 70.1656 19.4745 70.0137 19.7675 69.7736L25.8324 64.8112L31.8999 69.7736C32.2572 70.0659 32.7045 70.2255 33.1661 70.2255C33.6277 70.2255 34.0751 70.0659 34.4323 69.7736L40.4998 64.8112L46.5672 69.7736C46.9245 70.0659 47.3719 70.2255 47.8335 70.2255C48.2951 70.2255 48.7424 70.0659 49.0997 69.7736L55.1672 64.8112L61.2321 69.7736C61.5251 70.0137 61.8802 70.1656 62.2561 70.2117C62.6321 70.2578 63.0134 70.1962 63.3557 70.0341C63.6979 69.872 63.9872 69.616 64.1897 69.2959C64.3922 68.9759 64.4997 68.6049 64.4996 68.2262V44.2264C64.4923 37.8635 61.9614 31.7632 57.4622 27.264C52.9629 22.7647 46.8627 20.2338 40.4998 20.2266ZM33.4999 46.2263C32.9065 46.2263 32.3265 46.0504 31.8332 45.7208C31.3398 45.3911 30.9553 44.9226 30.7282 44.3744C30.5012 43.8262 30.4418 43.223 30.5575 42.6411C30.6733 42.0592 30.959 41.5246 31.3786 41.1051C31.7981 40.6855 32.3326 40.3998 32.9146 40.284C33.4965 40.1683 34.0997 40.2277 34.6479 40.4548C35.1961 40.6818 35.6646 41.0663 35.9942 41.5597C36.3239 42.053 36.4998 42.633 36.4998 43.2264C36.4998 44.022 36.1838 44.7851 35.6212 45.3477C35.0586 45.9103 34.2955 46.2263 33.4999 46.2263ZM47.4997 46.2263C46.9064 46.2263 46.3264 46.0504 45.833 45.7208C45.3397 45.3911 44.9552 44.9226 44.7281 44.3744C44.5011 43.8262 44.4416 43.223 44.5574 42.6411C44.6732 42.0592 44.9589 41.5246 45.3784 41.1051C45.798 40.6855 46.3325 40.3998 46.9145 40.284C47.4964 40.1683 48.0996 40.2277 48.6478 40.4548C49.1959 40.6818 49.6645 41.0663 49.9941 41.5597C50.3238 42.053 50.4997 42.633 50.4997 43.2264C50.4997 44.022 50.1836 44.7851 49.621 45.3477C49.0584 45.9103 48.2954 46.2263 47.4997 46.2263Z" fill="#F55668"/>
<path d="M65.9818 21.1135C66.399 21.6288 67.0039 21.9572 67.6633 22.0265C68.3227 22.0958 68.9827 21.9004 69.4979 21.4831L77.2694 15.1899C77.7847 14.7726 78.1131 14.1678 78.1824 13.5083C78.2517 12.8489 78.0562 12.189 77.639 11.6737C77.2217 11.1584 76.6168 10.83 75.9574 10.7607C75.298 10.6914 74.6381 10.8869 74.1228 11.3042L66.3513 17.5974C65.836 18.0146 65.5076 18.6195 65.4383 19.2789C65.369 19.9383 65.5645 20.5983 65.9818 21.1135Z" fill="#FAABB4"/>
<path d="M73.4503 30.1328C73.5656 30.4402 73.7403 30.7219 73.9645 30.9618C74.1887 31.2017 74.458 31.395 74.7569 31.5309C75.0558 31.6667 75.3786 31.7423 75.7067 31.7534C76.0349 31.7644 76.362 31.7108 76.6694 31.5954L84.0713 28.8184C84.6921 28.5854 85.195 28.1154 85.4693 27.5117C85.7436 26.908 85.7668 26.2201 85.5339 25.5993C85.301 24.9785 84.8309 24.4756 84.2273 24.2013C83.6236 23.927 82.9356 23.9037 82.3148 24.1367L74.9129 26.9137C74.6055 27.029 74.3238 27.2038 74.0839 27.4279C73.844 27.6521 73.6506 27.9214 73.5148 28.2203C73.379 28.5192 73.3034 28.842 73.2923 29.1701C73.2813 29.4983 73.3349 29.8254 73.4503 30.1328Z" fill="#FAABB4"/>
<path d="M61.2596 11.1633C61.5132 11.3719 61.8054 11.5285 62.1195 11.6241C62.4336 11.7198 62.7634 11.7526 63.0902 11.7208C63.417 11.689 63.7343 11.5931 64.024 11.4386C64.3138 11.2841 64.5702 11.0741 64.7787 10.8205L69.8005 4.71452C70.2216 4.20239 70.4221 3.54391 70.3578 2.88395C70.2935 2.22399 69.9697 1.6166 69.4576 1.19541C68.9454 0.774212 68.287 0.573715 67.627 0.638019C66.967 0.702322 66.3596 1.02615 65.9385 1.53829L60.9167 7.64422C60.7082 7.8978 60.5516 8.18997 60.4559 8.50406C60.3603 8.81816 60.3274 9.14801 60.3593 9.4748C60.3911 9.80159 60.487 10.1189 60.6415 10.4086C60.796 10.6983 61.006 10.9548 61.2596 11.1633Z" fill="#FAABB4"/>
</svg>
