<svg width="22" height="22" viewBox="0 0 22 22" fill="none" xmlns="http://www.w3.org/2000/svg">
<path d="M19.886 3.81063C19.886 3.81063 19.886 3.81922 19.886 3.82352L14.8844 20.3184C14.8087 20.5863 14.6529 20.8246 14.4378 21.0014C14.2228 21.1782 13.9588 21.285 13.6813 21.3075C13.6417 21.3109 13.6022 21.3127 13.5627 21.3127C13.3026 21.3135 13.0478 21.2399 12.8282 21.1005C12.6086 20.9612 12.4335 20.762 12.3235 20.5263L9.25463 14.0475C9.22434 13.9834 9.2146 13.9115 9.22675 13.8417C9.2389 13.7718 9.27236 13.7074 9.32253 13.6573L14.2433 8.7357C14.3668 8.60572 14.4346 8.43265 14.4323 8.25337C14.43 8.0741 14.3578 7.90281 14.231 7.77604C14.1042 7.64926 13.933 7.57702 13.7537 7.57473C13.5744 7.57243 13.4013 7.64026 13.2714 7.76375L8.34284 12.6845C8.29274 12.7347 8.22836 12.7682 8.15852 12.7803C8.08867 12.7925 8.01678 12.7827 7.95268 12.7524L1.50737 9.69906C1.25424 9.58309 1.04121 9.39461 0.895263 9.15749C0.749319 8.92037 0.677021 8.64527 0.687525 8.36703C0.701523 8.08106 0.805053 7.80673 0.983478 7.58281C1.1619 7.35889 1.4062 7.19672 1.68182 7.11922L18.1767 2.11766H18.1896C18.4244 2.05168 18.6726 2.04936 18.9086 2.11096C19.1447 2.17255 19.3601 2.29583 19.5327 2.46815C19.7054 2.64047 19.8291 2.85562 19.8912 3.09154C19.9533 3.32746 19.9515 3.57564 19.886 3.81063Z" fill="white"/>
</svg>
