<svg width="45" height="44" viewBox="0 0 45 44" fill="none" xmlns="http://www.w3.org/2000/svg">
<rect x="0.5" width="44" height="44" rx="22" fill="#FEEEF0"/>
<mask id="mask0_1187_1966" style="mask-type:alpha" maskUnits="userSpaceOnUse" x="10" y="10" width="25" height="24">
<rect x="10.5" y="10" width="24" height="24" fill="#D9D9D9"/>
</mask>
<g mask="url(#mask0_1187_1966)">
<path d="M22.5 29.9004C24.1167 29.4004 25.4667 28.4129 26.55 26.9379C27.6333 25.4629 28.2667 23.8171 28.45 22.0004H22.5V14.1254L16.5 16.3754V21.5504C16.5 21.6671 16.5167 21.8171 16.55 22.0004H22.5V29.9004ZM22.5 31.9004C22.3833 31.9004 22.275 31.8921 22.175 31.8754C22.075 31.8587 21.975 31.8337 21.875 31.8004C19.625 31.0504 17.8333 29.6629 16.5 27.6379C15.1667 25.6129 14.5 23.4337 14.5 21.1004V16.3754C14.5 15.9587 14.6208 15.5837 14.8625 15.2504C15.1042 14.9171 15.4167 14.6754 15.8 14.5254L21.8 12.2754C22.0333 12.1921 22.2667 12.1504 22.5 12.1504C22.7333 12.1504 22.9667 12.1921 23.2 12.2754L29.2 14.5254C29.5833 14.6754 29.8958 14.9171 30.1375 15.2504C30.3792 15.5837 30.5 15.9587 30.5 16.3754V21.1004C30.5 23.4337 29.8333 25.6129 28.5 27.6379C27.1667 29.6629 25.375 31.0504 23.125 31.8004C23.025 31.8337 22.925 31.8587 22.825 31.8754C22.725 31.8921 22.6167 31.9004 22.5 31.9004Z" fill="#F55668"/>
</g>
</svg>
