<svg width="21" height="20" viewBox="0 0 21 20" fill="none" xmlns="http://www.w3.org/2000/svg">
<path d="M11.5254 14.875C11.5254 15.0975 11.4594 15.315 11.3358 15.5C11.2122 15.685 11.0365 15.8292 10.8309 15.9144C10.6253 15.9995 10.3991 16.0218 10.1809 15.9784C9.96269 15.935 9.76223 15.8278 9.6049 15.6705C9.44757 15.5132 9.34042 15.3127 9.29701 15.0945C9.2536 14.8762 9.27588 14.65 9.36103 14.4445C9.44618 14.2389 9.59037 14.0632 9.77538 13.9396C9.96038 13.816 10.1779 13.75 10.4004 13.75C10.6988 13.75 10.9849 13.8685 11.1959 14.0795C11.4069 14.2905 11.5254 14.5766 11.5254 14.875ZM10.4004 4.75C8.33227 4.75 6.65039 6.26406 6.65039 8.125V8.5C6.65039 8.69891 6.72941 8.88968 6.87006 9.03033C7.01072 9.17098 7.20148 9.25 7.40039 9.25C7.59931 9.25 7.79007 9.17098 7.93073 9.03033C8.07138 8.88968 8.15039 8.69891 8.15039 8.5V8.125C8.15039 7.09375 9.16008 6.25 10.4004 6.25C11.6407 6.25 12.6504 7.09375 12.6504 8.125C12.6504 9.15625 11.6407 10 10.4004 10C10.2015 10 10.0107 10.079 9.87006 10.2197C9.72941 10.3603 9.65039 10.5511 9.65039 10.75V11.5C9.65039 11.6989 9.72941 11.8897 9.87006 12.0303C10.0107 12.171 10.2015 12.25 10.4004 12.25C10.5993 12.25 10.7901 12.171 10.9307 12.0303C11.0714 11.8897 11.1504 11.6989 11.1504 11.5V11.4325C12.8604 11.1184 14.1504 9.75437 14.1504 8.125C14.1504 6.26406 12.4685 4.75 10.4004 4.75ZM20.1504 10C20.1504 11.9284 19.5786 13.8134 18.5072 15.4168C17.4359 17.0202 15.9131 18.2699 14.1316 19.0078C12.35 19.7458 10.3896 19.9389 8.49826 19.5627C6.60695 19.1865 4.86967 18.2579 3.5061 16.8943C2.14254 15.5307 1.21394 13.7934 0.837739 11.9021C0.461533 10.0108 0.654615 8.05042 1.39257 6.26884C2.13052 4.48726 3.38021 2.96451 4.98359 1.89317C6.58696 0.821828 8.47203 0.25 10.4004 0.25C12.9854 0.25273 15.4638 1.28084 17.2917 3.10872C19.1196 4.93661 20.1477 7.41498 20.1504 10ZM18.6504 10C18.6504 8.3683 18.1665 6.77325 17.26 5.41655C16.3535 4.05984 15.065 3.00242 13.5575 2.37799C12.05 1.75357 10.3912 1.59019 8.7909 1.90852C7.19056 2.22685 5.72055 3.01259 4.56676 4.16637C3.41298 5.32015 2.62724 6.79016 2.30892 8.3905C1.99059 9.99085 2.15397 11.6496 2.77839 13.1571C3.40281 14.6646 4.46023 15.9531 5.81694 16.8596C7.17365 17.7661 8.7687 18.25 10.4004 18.25C12.5877 18.2475 14.6846 17.3775 16.2313 15.8309C17.7779 14.2843 18.6479 12.1873 18.6504 10Z" fill="#F55668"/>
</svg>
