<svg width="81" height="81" viewBox="0 0 81 81" fill="none" xmlns="http://www.w3.org/2000/svg">
<path d="M73.5147 36.2441L59.421 48.5441L63.6428 66.8566C63.8662 67.8139 63.8025 68.8159 63.4596 69.7372C63.1166 70.6584 62.5097 71.4582 61.7147 72.0364C60.9197 72.6147 59.9719 72.9457 58.9898 72.9882C58.0077 73.0307 57.0348 72.7828 56.1928 72.2754L40.221 62.5878L24.2835 72.2754C23.4415 72.7828 22.4686 73.0307 21.4865 72.9882C20.5044 72.9457 19.5566 72.6147 18.7616 72.0364C17.9666 71.4582 17.3597 70.6584 17.0167 69.7372C16.6738 68.8159 16.6101 67.8139 16.8335 66.8566L21.0491 48.5629L6.95222 36.2441C6.20662 35.6011 5.66747 34.7522 5.40239 33.8039C5.13731 32.8557 5.15809 31.8503 5.46213 30.9138C5.76617 29.9773 6.33993 29.1515 7.11146 28.5398C7.88299 27.9281 8.81795 27.5578 9.79909 27.4754L28.3803 25.866L35.6335 8.56598C36.0122 7.65822 36.6511 6.88281 37.4697 6.33741C38.2882 5.792 39.2499 5.50098 40.2335 5.50098C41.2171 5.50098 42.1787 5.792 42.9973 6.33741C43.8158 6.88281 44.4547 7.65822 44.8335 8.56598L52.1085 25.866L70.6835 27.4754C71.6646 27.5578 72.5996 27.9281 73.3711 28.5398C74.1426 29.1515 74.7164 29.9773 75.0204 30.9138C75.3245 31.8503 75.3452 32.8557 75.0802 33.8039C74.8151 34.7522 74.2759 35.6011 73.5303 36.2441H73.5147Z" fill="#F55668"/>
</svg>
