<svg width="22" height="22" viewBox="0 0 22 22" fill="none"
    xmlns="http://www.w3.org/2000/svg">
    <path d="M15.6588 20.7464L15.6582 20.7461L10.9964 17.9185L6.34486 20.7459L6.34405 20.7464C6.04936 20.924 5.70886 21.0108 5.36512 20.9959C5.02137 20.9811 4.68964 20.8652 4.41139 20.6628C4.13314 20.4604 3.92072 20.1805 3.8007 19.8581C3.68071 19.5357 3.65837 19.1851 3.73648 18.8502C3.7365 18.8501 3.73653 18.85 3.73655 18.8499L4.96746 13.5083L0.852356 9.91226C0.852134 9.91206 0.851912 9.91187 0.851689 9.91168C0.591075 9.68668 0.402617 9.3898 0.309917 9.0582C0.217138 8.72631 0.224412 8.37442 0.330825 8.04665C0.437239 7.71889 0.638055 7.42983 0.908091 7.21574C1.17808 7.00169 1.50524 6.8721 1.84857 6.84321C1.84863 6.8432 1.8487 6.8432 1.84876 6.84319L7.27195 6.37347L9.38929 1.32323C9.52192 1.00537 9.74563 0.73386 10.0322 0.542882C10.3189 0.351905 10.6556 0.25 11 0.25C11.3444 0.25 11.6812 0.351904 11.9678 0.542882C12.2543 0.733828 12.478 1.00528 12.6107 1.32307C12.6107 1.32312 12.6107 1.32318 12.6107 1.32323L14.7345 6.37346L20.1559 6.84319C20.156 6.8432 20.1561 6.84321 20.1562 6.84322C20.4995 6.87212 20.8267 7.00171 21.0966 7.21574C21.3667 7.42983 21.5675 7.71889 21.6739 8.04665C21.7803 8.37442 21.7876 8.72631 21.6948 9.0582C21.602 9.39008 21.4133 9.68719 21.1524 9.91226L21.082 9.97294H21.0781L17.0335 13.5028L18.2663 18.8499L15.6588 20.7464ZM15.6588 20.7464C15.9535 20.924 16.294 21.0108 16.6377 20.9959C16.9815 20.9811 17.3132 20.8652 17.5914 20.6628C17.8697 20.4604 18.0821 20.1805 18.2021 19.8581C18.3221 19.5358 18.3444 19.1854 18.2664 18.8505L15.6588 20.7464Z" fill="url(#paint0_linear_8987_13102)" stroke="#D1D5DB" stroke-width="0.5"/>
    <defs>
        <linearGradient id="paint0_linear_8987_13102" x1="11.0024" y1="21.7539" x2="11.0024" y2="-0.384305" gradientUnits="userSpaceOnUse">
            <stop offset="0.385778" stop-color="#F55668"/>
            <stop offset="1" stop-color="#FCC747"/>
            <stop offset="1" stop-color="#FCC747"/>
        </linearGradient>
    </defs>
</svg>
