<svg width="23" height="23" viewBox="0 0 23 23" fill="none" xmlns="http://www.w3.org/2000/svg">
<path d="M22.8845 8.88081C22.7861 8.57753 22.6007 8.3099 22.3513 8.11125C22.1019 7.9126 21.7996 7.7917 21.482 7.76363L15.4502 7.24362L13.0858 1.62113C12.9627 1.3261 12.7551 1.0741 12.489 0.89684C12.223 0.719583 11.9105 0.625 11.5908 0.625C11.2711 0.625 10.9586 0.719583 10.6926 0.89684C10.4265 1.0741 10.2189 1.3261 10.0958 1.62113L7.73853 7.24362L1.69962 7.76667C1.38075 7.79347 1.07689 7.91381 0.826142 8.11261C0.575394 8.31141 0.388922 8.57982 0.290109 8.88417C0.191297 9.18853 0.184543 9.51528 0.270695 9.82346C0.356846 10.1316 0.532068 10.4075 0.774388 10.6165L5.35587 14.6201L3.98275 20.5656C3.91014 20.8767 3.93086 21.2023 4.04231 21.5018C4.15376 21.8012 4.35101 22.0611 4.60938 22.249C4.86776 22.437 5.17579 22.5445 5.49499 22.5584C5.81418 22.5722 6.13036 22.4916 6.404 22.3267L11.5837 19.1782L16.7745 22.3267C17.0482 22.4916 17.3644 22.5722 17.6836 22.5584C18.0027 22.5445 18.3108 22.437 18.5692 22.249C18.8275 22.0611 19.0248 21.8012 19.1362 21.5018C19.2477 21.2023 19.2684 20.8767 19.1958 20.5656L17.8237 14.614L22.4042 10.6165C22.6464 10.4068 22.8213 10.1301 22.9068 9.8213C22.9923 9.51247 22.9845 9.18526 22.8845 8.88081ZM21.3388 9.38863L16.7583 13.3861C16.5354 13.58 16.3695 13.8311 16.2786 14.1122C16.1877 14.3933 16.1752 14.6939 16.2424 14.9817L17.6185 20.9373L12.4317 17.7889C12.1787 17.6348 11.8881 17.5532 11.5918 17.5532C11.2955 17.5532 11.0049 17.6348 10.7519 17.7889L5.5722 20.9373L6.93923 14.9857C7.00641 14.698 6.99388 14.3974 6.90297 14.1163C6.81206 13.8351 6.64622 13.5841 6.42329 13.3902L1.84079 9.39472C1.84042 9.39168 1.84042 9.38861 1.84079 9.38558L7.87767 8.86355C8.17241 8.83757 8.45446 8.73161 8.69339 8.5571C8.93233 8.3826 9.11909 8.14617 9.23353 7.87331L11.5908 2.25792L13.947 7.87331C14.0615 8.14617 14.2482 8.3826 14.4872 8.5571C14.7261 8.73161 15.0082 8.83757 15.3029 8.86355L21.3408 9.38558C21.3408 9.38558 21.3408 9.39167 21.3408 9.39269L21.3388 9.38863Z" fill="#656E6F"/>
</svg>
