<svg width="56" height="56" viewBox="0 0 56 56" fill="none" xmlns="http://www.w3.org/2000/svg">
<rect x="1" y="1" width="54" height="54" rx="27" fill="#FEEEF0"/>
<rect x="1" y="1" width="54" height="54" rx="27" stroke="#F55668" stroke-width="2"/>
<mask id="mask0_1820_3976" style="mask-type:alpha" maskUnits="userSpaceOnUse" x="14" y="14" width="28" height="28">
<rect x="14" y="14" width="28" height="28" fill="#D9D9D9"/>
</mask>
<g mask="url(#mask0_1820_3976)">
<path d="M28.4663 39.6673L31.0038 37.334C33.0844 35.3895 34.465 33.9069 35.1455 32.8861C35.8261 31.8652 36.1663 30.7715 36.1663 29.6048C36.1663 29.0993 36.0983 28.6229 35.9622 28.1757C35.8261 27.7284 35.6219 27.2812 35.3497 26.834H37.333C37.9747 26.834 38.524 27.0625 38.9809 27.5194C39.4379 27.9763 39.6663 28.5257 39.6663 29.1673V38.5007C39.6663 38.8312 39.5545 39.1083 39.3309 39.3319C39.1073 39.5555 38.8302 39.6673 38.4997 39.6673H28.4663ZM16.333 38.5007V29.1673C16.333 28.5257 16.5566 27.9763 17.0038 27.5194C17.4511 27.0625 18.0052 26.834 18.6663 26.834H20.6205C20.3677 27.2423 20.1733 27.6847 20.0372 28.1611C19.9011 28.6375 19.833 29.1187 19.833 29.6048C19.833 30.7715 20.1587 31.8652 20.8101 32.8861C21.4615 33.9069 22.8469 35.3895 24.9663 37.334L27.533 39.6673H17.4997C17.1691 39.6673 16.892 39.5555 16.6684 39.3319C16.4448 39.1083 16.333 38.8312 16.333 38.5007ZM36.1663 25.6673C35.1747 25.6673 34.3434 25.3319 33.6726 24.6611C33.0018 23.9902 32.6663 23.159 32.6663 22.1673C32.6663 21.1951 33.0018 20.3687 33.6726 19.6882C34.3434 19.0076 35.1747 18.6673 36.1663 18.6673C37.1386 18.6673 37.965 19.0076 38.6455 19.6882C39.3261 20.3687 39.6663 21.1951 39.6663 22.1673C39.6663 23.159 39.3261 23.9902 38.6455 24.6611C37.965 25.3319 37.1386 25.6673 36.1663 25.6673ZM27.9997 24.5007C26.8525 24.5007 25.8851 24.1069 25.0976 23.3194C24.3101 22.5319 23.9163 21.5645 23.9163 20.4173C23.9163 19.2895 24.3101 18.327 25.0976 17.5298C25.8851 16.7326 26.8525 16.334 27.9997 16.334C29.1275 16.334 30.09 16.7326 30.8872 17.5298C31.6844 18.327 32.083 19.2895 32.083 20.4173C32.083 21.5645 31.6844 22.5319 30.8872 23.3194C30.09 24.1069 29.1275 24.5007 27.9997 24.5007ZM22.1663 29.6048C22.1663 30.402 22.5552 31.2965 23.333 32.2882C24.1108 33.2798 25.6566 34.8257 27.9705 36.9257C30.265 34.8645 31.8156 33.3333 32.6226 32.3319C33.4295 31.3305 33.833 30.4215 33.833 29.6048C33.833 28.827 33.5705 28.1708 33.0455 27.6361C32.5205 27.1013 31.8886 26.834 31.1497 26.834C30.7025 26.834 30.2844 26.9409 29.8955 27.1548C29.5066 27.3687 29.1663 27.6312 28.8747 27.9423L27.9705 28.8757L27.0955 27.9715C26.8233 27.6798 26.5122 27.4173 26.1622 27.184C25.8122 26.9507 25.3747 26.834 24.8497 26.834C24.0525 26.834 23.4059 27.1013 22.9101 27.6361C22.4143 28.1708 22.1663 28.827 22.1663 29.6048ZM19.833 25.6673C18.8413 25.6673 18.0101 25.3319 17.3393 24.6611C16.6684 23.9902 16.333 23.159 16.333 22.1673C16.333 21.1951 16.6684 20.3687 17.3393 19.6882C18.0101 19.0076 18.8413 18.6673 19.833 18.6673C20.8052 18.6673 21.6316 19.0076 22.3122 19.6882C22.9927 20.3687 23.333 21.1951 23.333 22.1673C23.333 23.159 22.9927 23.9902 22.3122 24.6611C21.6316 25.3319 20.8052 25.6673 19.833 25.6673Z" fill="#F55668"/>
</g>
</svg>
