<svg width="60" height="61" viewBox="0 0 60 61" fill="none" xmlns="http://www.w3.org/2000/svg">
<mask id="mask0_1_946" style="mask-type:alpha" maskUnits="userSpaceOnUse" x="15" y="15" width="30" height="31">
<rect x="15" y="15.5" width="30" height="30" fill="#D9D9D9"/>
</mask>
<g mask="url(#mask0_1_946)">
<path d="M20 40.5C19.3125 40.5 18.724 40.2552 18.2344 39.7656C17.7448 39.276 17.5 38.6875 17.5 38V23C17.5 22.3125 17.7448 21.724 18.2344 21.2344C18.724 20.7448 19.3125 20.5 20 20.5H35C35.6875 20.5 36.276 20.7448 36.7656 21.2344C37.2552 21.724 37.5 22.3125 37.5 23V28.625L42.5 23.625V37.375L37.5 32.375V38C37.5 38.6875 37.2552 39.276 36.7656 39.7656C36.276 40.2552 35.6875 40.5 35 40.5H20Z" fill="white"/>
</g>
</svg>
