<svg width="93" height="88" viewBox="0 0 93 88" fill="none" xmlns="http://www.w3.org/2000/svg">
<path d="M32.1916 87.75L24.2749 74.4167L9.2749 71.0833L10.7332 55.6667L0.524902 44L10.7332 32.3333L9.2749 16.9167L24.2749 13.5833L32.1916 0.25L46.3582 6.29167L60.5249 0.25L68.4416 13.5833L83.4416 16.9167L81.9832 32.3333L92.1916 44L81.9832 55.6667L83.4416 71.0833L68.4416 74.4167L60.5249 87.75L46.3582 81.7083L32.1916 87.75ZM46.3582 64.8333C47.5388 64.8333 48.5284 64.434 49.327 63.6354C50.1256 62.8368 50.5249 61.8472 50.5249 60.6667C50.5249 59.4861 50.1256 58.4965 49.327 57.6979C48.5284 56.8993 47.5388 56.5 46.3582 56.5C45.1777 56.5 44.1881 56.8993 43.3895 57.6979C42.5909 58.4965 42.1916 59.4861 42.1916 60.6667C42.1916 61.8472 42.5909 62.8368 43.3895 63.6354C44.1881 64.434 45.1777 64.8333 46.3582 64.8333ZM42.1916 48.1667H50.5249V23.1667H42.1916V48.1667Z" fill="white"/>
</svg>
