<svg width="93" height="88" viewBox="0 0 93 88" fill="none" xmlns="http://www.w3.org/2000/svg">
<path d="M32.236 87.623L24.3193 74.2897L9.31934 70.9564L10.7777 55.5397L0.569336 43.873L10.7777 32.2064L9.31934 16.7897L24.3193 13.4564L32.236 0.123047L46.4027 6.16471L60.5693 0.123047L68.486 13.4564L83.486 16.7897L82.0277 32.2064L92.236 43.873L82.0277 55.5397L83.486 70.9564L68.486 74.2897L60.5693 87.623L46.4027 81.5814L32.236 87.623ZM46.4027 64.7064C47.5832 64.7064 48.5728 64.3071 49.3714 63.5085C50.17 62.7099 50.5693 61.7203 50.5693 60.5397C50.5693 59.3592 50.17 58.3696 49.3714 57.571C48.5728 56.7724 47.5832 56.373 46.4027 56.373C45.2221 56.373 44.2325 56.7724 43.4339 57.571C42.6353 58.3696 42.236 59.3592 42.236 60.5397C42.236 61.7203 42.6353 62.7099 43.4339 63.5085C44.2325 64.3071 45.2221 64.7064 46.4027 64.7064ZM42.236 48.0397H50.5693V23.0397H42.236V48.0397Z" fill="#F55668"/>
</svg>
