<svg width="22" height="23" viewBox="0 0 22 23" fill="none" xmlns="http://www.w3.org/2000/svg">
<path d="M21.0612 16.8749L17.6637 13.4765L14.2456 2.19931C14.1485 1.87819 13.9736 1.58599 13.7366 1.34859C13.4996 1.11119 13.2076 0.935908 12.8866 0.838283C12.5657 0.740658 12.2256 0.723698 11.8965 0.788906C11.5674 0.854114 11.2595 0.999477 11 1.21212C10.7405 0.999477 10.4326 0.854114 10.1035 0.788906C9.77441 0.723698 9.43432 0.740658 9.11335 0.838283C8.79238 0.935908 8.50044 1.11119 8.2634 1.34859C8.02635 1.58599 7.85151 1.87819 7.75437 2.19931L4.33625 13.4774L0.938748 16.8749C0.657656 17.1562 0.499756 17.5376 0.499756 17.9352C0.499756 18.3329 0.657656 18.7143 0.938748 18.9956L4.00344 22.0602C4.14273 22.1996 4.3081 22.3101 4.49011 22.3855C4.67212 22.4609 4.8672 22.4997 5.06422 22.4997C5.26123 22.4997 5.45631 22.4609 5.63832 22.3855C5.82033 22.3101 5.98571 22.1996 6.125 22.0602L10.6512 17.5312C10.7767 17.4054 10.8933 17.271 11 17.129C11.1067 17.271 11.2233 17.4054 11.3487 17.5312L15.875 22.0612C16.0143 22.2005 16.1797 22.311 16.3617 22.3864C16.5437 22.4618 16.7388 22.5006 16.9358 22.5006C17.1328 22.5006 17.3279 22.4618 17.5099 22.3864C17.6919 22.311 17.8573 22.2005 17.9966 22.0612L21.0612 18.9965C21.2006 18.8572 21.3111 18.6918 21.3865 18.5098C21.4619 18.3278 21.5007 18.1327 21.5007 17.9357C21.5007 17.7387 21.4619 17.5436 21.3865 17.3616C21.3111 17.1796 21.2006 17.0142 21.0612 16.8749ZM5.06375 20.9999L2 17.9362L3.18969 16.7465L6.25437 19.8112L5.06375 20.9999ZM10.25 14.8827C10.2515 15.1786 10.1943 15.4718 10.0816 15.7454C9.96896 16.019 9.80314 16.2675 9.59375 16.4765L7.31375 18.7499L4.25 15.6862L5.52969 14.4056C5.61702 14.3182 5.68142 14.2107 5.71719 14.0924L9.18594 2.63431C9.22112 2.50681 9.30172 2.39658 9.41255 2.32439C9.52338 2.2522 9.65679 2.22305 9.78763 2.24241C9.91847 2.26178 10.0377 2.32833 10.1229 2.42953C10.208 2.53073 10.2533 2.65958 10.25 2.79181V14.8827ZM12.4062 16.4765C12.1969 16.2675 12.031 16.019 11.9184 15.7454C11.8057 15.4718 11.7485 15.1786 11.75 14.8827V2.78899C11.75 2.6591 11.7967 2.53354 11.8816 2.43519C11.9664 2.33683 12.0838 2.27223 12.2123 2.25314C12.3407 2.23406 12.4718 2.26176 12.5816 2.33121C12.6913 2.40065 12.7725 2.50722 12.8103 2.63149L16.2791 14.0896C16.3148 14.2078 16.3792 14.3154 16.4666 14.4027L17.825 15.7612L14.6937 18.7612L12.4062 16.4765ZM16.9362 20.9999L15.7587 19.8215L18.8891 16.8215L20 17.9362L16.9362 20.9999Z" fill="#F55668"/>
</svg>
