<svg width="60" height="60" viewBox="0 0 60 60" fill="none" xmlns="http://www.w3.org/2000/svg">
<mask id="mask0_4174_11676" style="mask-type:alpha" maskUnits="userSpaceOnUse" x="0" y="0" width="60" height="60">
<rect width="60" height="60" fill="#D9D9D9"/>
</mask>
<g mask="url(#mask0_4174_11676)">
<path d="M30 42.5C30.7083 42.5 31.3021 42.2604 31.7813 41.7812C32.2604 41.3021 32.5 40.7083 32.5 40C32.5 39.2917 32.2604 38.6979 31.7813 38.2188C31.3021 37.7396 30.7083 37.5 30 37.5C29.2917 37.5 28.6979 37.7396 28.2188 38.2188C27.7396 38.6979 27.5 39.2917 27.5 40C27.5 40.7083 27.7396 41.3021 28.2188 41.7812C28.6979 42.2604 29.2917 42.5 30 42.5ZM30 32.5C30.7083 32.5 31.3021 32.2604 31.7813 31.7813C32.2604 31.3021 32.5 30.7083 32.5 30V20C32.5 19.2917 32.2604 18.6979 31.7813 18.2188C31.3021 17.7396 30.7083 17.5 30 17.5C29.2917 17.5 28.6979 17.7396 28.2188 18.2188C27.7396 18.6979 27.5 19.2917 27.5 20V30C27.5 30.7083 27.7396 31.3021 28.2188 31.7813C28.6979 32.2604 29.2917 32.5 30 32.5ZM22.6875 52.5C22.0208 52.5 21.3854 52.375 20.7812 52.125C20.1771 51.875 19.6458 51.5208 19.1875 51.0625L8.9375 40.8125C8.47917 40.3542 8.125 39.8229 7.875 39.2188C7.625 38.6146 7.5 37.9792 7.5 37.3125V22.6875C7.5 22.0208 7.625 21.3854 7.875 20.7812C8.125 20.1771 8.47917 19.6458 8.9375 19.1875L19.1875 8.9375C19.6458 8.47917 20.1771 8.125 20.7812 7.875C21.3854 7.625 22.0208 7.5 22.6875 7.5H37.3125C37.9792 7.5 38.6146 7.625 39.2188 7.875C39.8229 8.125 40.3542 8.47917 40.8125 8.9375L51.0625 19.1875C51.5208 19.6458 51.875 20.1771 52.125 20.7812C52.375 21.3854 52.5 22.0208 52.5 22.6875V37.3125C52.5 37.9792 52.375 38.6146 52.125 39.2188C51.875 39.8229 51.5208 40.3542 51.0625 40.8125L40.8125 51.0625C40.3542 51.5208 39.8229 51.875 39.2188 52.125C38.6146 52.375 37.9792 52.5 37.3125 52.5H22.6875ZM22.75 47.5H37.25L47.5 37.25V22.75L37.25 12.5H22.75L12.5 22.75V37.25L22.75 47.5Z" fill="#EA4335"/>
</g>
</svg>
