<svg width="49" height="48" viewBox="0 0 49 48" fill="none" xmlns="http://www.w3.org/2000/svg">
<rect x="0.25" width="48" height="48" rx="24" fill="#F55668"/>
<path d="M36.1633 18.1013L21.1633 33.1013C21.0762 33.1885 20.9728 33.2576 20.859 33.3048C20.7452 33.352 20.6232 33.3763 20.5 33.3763C20.3768 33.3763 20.2548 33.352 20.141 33.3048C20.0272 33.2576 19.9238 33.1885 19.8368 33.1013L13.2743 26.5388C13.0983 26.3629 12.9995 26.1243 12.9995 25.8755C12.9995 25.6267 13.0983 25.3882 13.2743 25.2122C13.4502 25.0363 13.6888 24.9375 13.9375 24.9375C14.1863 24.9375 14.4249 25.0363 14.6008 25.2122L20.5 31.1126L34.8368 16.7747C35.0127 16.5988 35.2513 16.5 35.5 16.5C35.7488 16.5 35.9874 16.5988 36.1633 16.7747C36.3392 16.9507 36.4381 17.1892 36.4381 17.438C36.4381 17.6868 36.3392 17.9254 36.1633 18.1013Z" fill="white"/>
</svg>
