<svg width="31" height="30" viewBox="0 0 31 30" fill="none" xmlns="http://www.w3.org/2000/svg">
<path d="M26.968 12.0492C26.5262 11.5875 26.0691 11.1117 25.8969 10.6934C25.7375 10.3102 25.7281 9.675 25.7188 9.05977C25.7012 7.91602 25.6824 6.61992 24.7812 5.71875C23.8801 4.81758 22.584 4.79883 21.4402 4.78125C20.825 4.77187 20.1898 4.7625 19.8066 4.60312C19.3895 4.43086 18.9125 3.97383 18.4508 3.53203C17.6422 2.75508 16.7234 1.875 15.5 1.875C14.2766 1.875 13.359 2.75508 12.5492 3.53203C12.0875 3.97383 11.6117 4.43086 11.1934 4.60312C10.8125 4.7625 10.175 4.77187 9.55977 4.78125C8.41602 4.79883 7.11992 4.81758 6.21875 5.71875C5.31758 6.61992 5.30469 7.91602 5.28125 9.05977C5.27187 9.675 5.2625 10.3102 5.10312 10.6934C4.93086 11.1105 4.47383 11.5875 4.03203 12.0492C3.25508 12.8578 2.375 13.7766 2.375 15C2.375 16.2234 3.25508 17.141 4.03203 17.9508C4.47383 18.4125 4.93086 18.8883 5.10312 19.3066C5.2625 19.6898 5.27187 20.325 5.28125 20.9402C5.29883 22.084 5.31758 23.3801 6.21875 24.2812C7.11992 25.1824 8.41602 25.2012 9.55977 25.2188C10.175 25.2281 10.8102 25.2375 11.1934 25.3969C11.6105 25.5691 12.0875 26.0262 12.5492 26.468C13.3578 27.2449 14.2766 28.125 15.5 28.125C16.7234 28.125 17.641 27.2449 18.4508 26.468C18.9125 26.0262 19.3883 25.5691 19.8066 25.3969C20.1898 25.2375 20.825 25.2281 21.4402 25.2188C22.584 25.2012 23.8801 25.1824 24.7812 24.2812C25.6824 23.3801 25.7012 22.084 25.7188 20.9402C25.7281 20.325 25.7375 19.6898 25.8969 19.3066C26.0691 18.8895 26.5262 18.4125 26.968 17.9508C27.7449 17.1422 28.625 16.2234 28.625 15C28.625 13.7766 27.7449 12.859 26.968 12.0492ZM20.8508 12.8508L14.2883 19.4133C14.2012 19.5004 14.0978 19.5696 13.984 19.6168C13.8702 19.664 13.7482 19.6882 13.625 19.6882C13.5018 19.6882 13.3798 19.664 13.266 19.6168C13.1522 19.5696 13.0488 19.5004 12.9617 19.4133L10.1492 16.6008C9.97331 16.4249 9.87448 16.1863 9.87448 15.9375C9.87448 15.6887 9.97331 15.4501 10.1492 15.2742C10.3251 15.0983 10.5637 14.9995 10.8125 14.9995C11.0613 14.9995 11.2999 15.0983 11.4758 15.2742L13.625 17.4246L19.5242 11.5242C19.6113 11.4371 19.7147 11.368 19.8285 11.3209C19.9423 11.2737 20.0643 11.2495 20.1875 11.2495C20.3107 11.2495 20.4327 11.2737 20.5465 11.3209C20.6603 11.368 20.7637 11.4371 20.8508 11.5242C20.9379 11.6113 21.007 11.7147 21.0541 11.8285C21.1013 11.9423 21.1255 12.0643 21.1255 12.1875C21.1255 12.3107 21.1013 12.4327 21.0541 12.5465C21.007 12.6603 20.9379 12.7637 20.8508 12.8508Z" fill="url(#paint0_linear_2208_20159)"/>
<defs>
<linearGradient id="paint0_linear_2208_20159" x1="15.5" y1="29.4296" x2="15.5" y2="0.728542" gradientUnits="userSpaceOnUse">
<stop offset="0.385778" stop-color="#F55668"/>
<stop offset="1" stop-color="#FCC747"/>
</linearGradient>
</defs>
</svg>
