<svg width="24" height="25" viewBox="0 0 24 25" fill="none" xmlns="http://www.w3.org/2000/svg">
<mask id="mask0_4838_4123" style="mask-type:alpha" maskUnits="userSpaceOnUse" x="0" y="0" width="24" height="25">
<rect y="0.5" width="24" height="24" fill="#D9D9D9"/>
</mask>
<g mask="url(#mask0_4838_4123)">
<path d="M10.1149 16.7307C8.40718 16.7307 6.96104 16.1384 5.77644 14.9538C4.59182 13.7692 3.99951 12.323 3.99951 10.6154C3.99951 8.90767 4.59182 7.46152 5.77644 6.2769C6.96104 5.0923 8.40718 4.5 10.1149 4.5C11.8225 4.5 13.2687 5.0923 14.4533 6.2769C15.6379 7.46152 16.2302 8.90767 16.2302 10.6154C16.2302 11.3295 16.1104 12.0115 15.8706 12.6615C15.6309 13.3115 15.311 13.8769 14.911 14.3576L20.0952 19.5419C20.2337 19.6803 20.3045 19.8544 20.3077 20.064C20.3109 20.2736 20.2401 20.4508 20.0952 20.5957C19.9503 20.7405 19.7747 20.813 19.5683 20.813C19.3619 20.813 19.1863 20.7405 19.0414 20.5957L13.8572 15.4115C13.3572 15.8243 12.7822 16.1474 12.1322 16.3807C11.4822 16.614 10.8097 16.7307 10.1149 16.7307ZM10.1149 15.2308C11.4033 15.2308 12.4947 14.7836 13.3889 13.8894C14.2831 12.9952 14.7303 11.9038 14.7303 10.6154C14.7303 9.32688 14.2831 8.23553 13.3889 7.3413C12.4947 6.44707 11.4033 5.99995 10.1149 5.99995C8.8264 5.99995 7.73505 6.44707 6.84081 7.3413C5.9466 8.23553 5.49949 9.32688 5.49949 10.6154C5.49949 11.9038 5.9466 12.9952 6.84081 13.8894C7.73505 14.7836 8.8264 15.2308 10.1149 15.2308Z" fill="#1D2021"/>
</g>
</svg>
