<svg width="22" height="22" viewBox="0 0 22 22" fill="none" xmlns="http://www.w3.org/2000/svg">
<path d="M19.886 3.8105C19.886 3.8105 19.886 3.8191 19.886 3.82339L14.8844 20.3182C14.8087 20.5861 14.6529 20.8245 14.4378 21.0013C14.2228 21.1781 13.9588 21.2849 13.6813 21.3074C13.6417 21.3108 13.6022 21.3125 13.5627 21.3125C13.3026 21.3133 13.0478 21.2397 12.8282 21.1004C12.6086 20.9611 12.4335 20.7618 12.3235 20.5262L9.25463 14.0474C9.22434 13.9833 9.2146 13.9114 9.22675 13.8415C9.2389 13.7717 9.27236 13.7073 9.32253 13.6572L14.2433 8.73558C14.3668 8.6056 14.4346 8.43252 14.4323 8.25325C14.43 8.07398 14.3578 7.90269 14.231 7.77592C14.1042 7.64914 13.933 7.5769 13.7537 7.57461C13.5744 7.57231 13.4013 7.64014 13.2714 7.76363L8.34284 12.6844C8.29274 12.7346 8.22836 12.768 8.15852 12.7802C8.08867 12.7923 8.01678 12.7826 7.95268 12.7523L1.50737 9.69894C1.25424 9.58297 1.04121 9.39449 0.895263 9.15737C0.749319 8.92024 0.677021 8.64515 0.687525 8.36691C0.701523 8.08094 0.805053 7.8066 0.983478 7.58268C1.1619 7.35877 1.4062 7.19659 1.68182 7.1191L18.1767 2.11754H18.1896C18.4244 2.05155 18.6726 2.04924 18.9086 2.11083C19.1447 2.17243 19.3601 2.29571 19.5327 2.46803C19.7054 2.64035 19.8291 2.8555 19.8912 3.09142C19.9533 3.32734 19.9515 3.57552 19.886 3.8105Z" fill="white"/>
</svg>
