<svg width="20" height="20" viewBox="0 0 20 20" fill="none" xmlns="http://www.w3.org/2000/svg">
<path d="M19.886 1.8105C19.886 1.8105 19.886 1.8191 19.886 1.82339L14.8844 18.3182C14.8087 18.5861 14.6529 18.8245 14.4378 19.0013C14.2228 19.1781 13.9588 19.2849 13.6813 19.3074C13.6417 19.3108 13.6022 19.3125 13.5627 19.3125C13.3026 19.3133 13.0478 19.2397 12.8282 19.1004C12.6086 18.9611 12.4335 18.7618 12.3235 18.5262L9.25463 12.0474C9.22434 11.9833 9.2146 11.9114 9.22675 11.8415C9.2389 11.7717 9.27236 11.7073 9.32253 11.6572L14.2433 6.73558C14.3668 6.6056 14.4346 6.43252 14.4323 6.25325C14.43 6.07398 14.3578 5.90269 14.231 5.77592C14.1042 5.64914 13.933 5.5769 13.7537 5.57461C13.5744 5.57231 13.4013 5.64014 13.2714 5.76363L8.34284 10.6844C8.29274 10.7346 8.22836 10.768 8.15852 10.7802C8.08867 10.7923 8.01678 10.7826 7.95268 10.7523L1.50737 7.69894C1.25424 7.58297 1.04121 7.39449 0.895263 7.15737C0.749319 6.92024 0.677021 6.64515 0.687525 6.36691C0.701523 6.08094 0.805053 5.8066 0.983478 5.58268C1.1619 5.35877 1.4062 5.19659 1.68182 5.1191L18.1767 0.117535H18.1896C18.4244 0.0515537 18.6726 0.0492406 18.9086 0.110833C19.1447 0.172426 19.3601 0.295706 19.5327 0.468027C19.7054 0.640347 19.8291 0.855503 19.8912 1.09142C19.9533 1.32734 19.9515 1.57552 19.886 1.8105Z" fill="white"/>
</svg>
