<svg width="21" height="20" viewBox="0 0 21 20" fill="none" xmlns="http://www.w3.org/2000/svg">
<path d="M10.3999 5.49955C9.50993 5.49955 8.6399 5.76347 7.89988 6.25794C7.15986 6.75241 6.58308 7.45521 6.24249 8.27748C5.90189 9.09975 5.81278 10.0045 5.98641 10.8775C6.16004 11.7504 6.58863 12.5522 7.21796 13.1815C7.8473 13.8109 8.64912 14.2395 9.52204 14.4131C10.395 14.5867 11.2998 14.4976 12.122 14.157C12.9443 13.8164 13.6471 13.2396 14.1416 12.4996C14.636 11.7596 14.8999 10.8896 14.8999 9.99955C14.8987 8.80646 14.4242 7.66259 13.5806 6.81894C12.7369 5.9753 11.593 5.50079 10.3999 5.49955ZM10.3999 12.9996C9.8066 12.9996 9.22658 12.8236 8.73323 12.494C8.23989 12.1643 7.85537 11.6958 7.62831 11.1476C7.40124 10.5994 7.34183 9.99623 7.45759 9.41428C7.57334 8.83234 7.85907 8.29779 8.27862 7.87823C8.69818 7.45868 9.23273 7.17295 9.81467 7.0572C10.3966 6.94144 10.9998 7.00085 11.548 7.22792C12.0962 7.45498 12.5647 7.8395 12.8944 8.33284C13.224 8.82619 13.3999 9.40621 13.3999 9.99955C13.3999 10.7952 13.0839 11.5583 12.5213 12.1209C11.9587 12.6835 11.1956 12.9996 10.3999 12.9996ZM18.6499 10.2021C18.6537 10.0671 18.6537 9.93205 18.6499 9.79705L20.0487 8.04955C20.122 7.9578 20.1728 7.85011 20.1969 7.73514C20.221 7.62018 20.2178 7.50116 20.1874 7.38768C19.9581 6.52574 19.6151 5.69816 19.1674 4.92674C19.1088 4.82579 19.0275 4.73991 18.9298 4.67595C18.8321 4.61199 18.7209 4.5717 18.6049 4.5583L16.3812 4.3108C16.2887 4.2133 16.1949 4.11955 16.0999 4.02955L15.8374 1.80018C15.8239 1.68413 15.7835 1.57284 15.7194 1.47518C15.6553 1.37752 15.5692 1.29619 15.4681 1.23768C14.6964 0.790817 13.8688 0.448149 13.0071 0.218617C12.8936 0.188427 12.7745 0.185339 12.6596 0.209602C12.5446 0.233866 12.4369 0.284802 12.3453 0.358304L10.6024 1.74955C10.4674 1.74955 10.3324 1.74955 10.1974 1.74955L8.44994 0.353617C8.35819 0.280275 8.2505 0.229509 8.13553 0.205409C8.02057 0.181309 7.90155 0.184548 7.78807 0.214867C6.92627 0.44458 6.09875 0.78757 5.32713 1.23487C5.22618 1.29348 5.14031 1.37486 5.07634 1.47251C5.01238 1.57017 4.97209 1.6814 4.95869 1.79737L4.71119 4.02487C4.6137 4.11799 4.51994 4.21174 4.42994 4.30612L2.20057 4.56205C2.08452 4.57556 1.97323 4.61598 1.87557 4.68011C1.77791 4.74424 1.69658 4.8303 1.63807 4.93143C1.19121 5.70315 0.84854 6.53066 0.619008 7.39237C0.588817 7.50592 0.585729 7.62498 0.609993 7.73995C0.634256 7.85491 0.685192 7.96257 0.758695 8.05424L2.14994 9.79705C2.14994 9.93205 2.14994 10.0671 2.14994 10.2021L0.754008 11.9496C0.680665 12.0413 0.629899 12.149 0.605799 12.264C0.581699 12.3789 0.584939 12.4979 0.615258 12.6114C0.84456 13.4734 1.18757 14.3009 1.63526 15.0724C1.69388 15.1733 1.77525 15.2592 1.8729 15.3232C1.97056 15.3871 2.08179 15.4274 2.19776 15.4408L4.42151 15.6883C4.51463 15.7858 4.60838 15.8796 4.70276 15.9696L4.96244 18.1989C4.97595 18.315 5.01637 18.4263 5.0805 18.5239C5.14463 18.6216 5.23069 18.7029 5.33182 18.7614C6.10354 19.2083 6.93105 19.551 7.79276 19.7805C7.90631 19.8107 8.02537 19.8138 8.14034 19.7895C8.2553 19.7652 8.36296 19.7143 8.45463 19.6408L10.1974 18.2496C10.3324 18.2533 10.4674 18.2533 10.6024 18.2496L12.3499 19.6483C12.4417 19.7216 12.5494 19.7724 12.6644 19.7965C12.7793 19.8206 12.8983 19.8174 13.0118 19.7871C13.8738 19.5578 14.7013 19.2147 15.4728 18.7671C15.5737 18.7084 15.6596 18.6271 15.7235 18.5294C15.7875 18.4318 15.8278 18.3205 15.8412 18.2046L16.0887 15.9808C16.1862 15.8883 16.2799 15.7946 16.3699 15.6996L18.5993 15.4371C18.7154 15.4236 18.8267 15.3831 18.9243 15.319C19.022 15.2549 19.1033 15.1688 19.1618 15.0677C19.6087 14.296 19.9513 13.4685 20.1809 12.6067C20.2111 12.4932 20.2142 12.3741 20.1899 12.2592C20.1656 12.1442 20.1147 12.0365 20.0412 11.9449L18.6499 10.2021ZM17.1406 9.59268C17.1565 9.8637 17.1565 10.1354 17.1406 10.4064C17.1294 10.592 17.1875 10.7751 17.3037 10.9202L18.634 12.5824C18.4814 13.0675 18.2859 13.5381 18.0499 13.9886L15.9312 14.2286C15.7467 14.2491 15.5763 14.3373 15.4531 14.4761C15.2726 14.6791 15.0804 14.8713 14.8774 15.0517C14.7386 15.175 14.6504 15.3454 14.6299 15.5299L14.3946 17.6467C13.9442 17.8828 13.4735 18.0783 12.9884 18.2308L11.3253 16.9005C11.1922 16.7942 11.0269 16.7363 10.8565 16.7364H10.8115C10.5405 16.7524 10.2688 16.7524 9.99776 16.7364C9.81221 16.7253 9.62913 16.7834 9.48401 16.8996L7.81713 18.2308C7.33201 18.0782 6.86141 17.8827 6.41088 17.6467L6.17088 15.5308C6.1504 15.3463 6.06221 15.1759 5.92338 15.0527C5.72042 14.8722 5.52822 14.68 5.34776 14.4771C5.22451 14.3382 5.05415 14.25 4.86963 14.2296L2.75276 13.9933C2.51669 13.5428 2.32123 13.0722 2.16869 12.5871L3.49901 10.9239C3.61517 10.7788 3.6733 10.5957 3.66213 10.4102C3.6462 10.1392 3.6462 9.86744 3.66213 9.59643C3.6733 9.41088 3.61517 9.2278 3.49901 9.08268L2.16869 7.41674C2.32134 6.93162 2.5168 6.46102 2.75276 6.01049L4.86869 5.77049C5.05321 5.75001 5.22357 5.66182 5.34682 5.52299C5.52728 5.32003 5.71948 5.12783 5.92244 4.94737C6.06183 4.82404 6.15038 4.65329 6.17088 4.4683L6.4062 2.35237C6.85667 2.1163 7.32728 1.92084 7.81244 1.7683L9.47557 3.09862C9.62069 3.21478 9.80377 3.27291 9.98932 3.26174C10.2603 3.2458 10.5321 3.2458 10.8031 3.26174C10.9886 3.27291 11.1717 3.21478 11.3168 3.09862L12.9828 1.7683C13.4679 1.92095 13.9385 2.11641 14.389 2.35237L14.629 4.4683C14.6495 4.65282 14.7377 4.82318 14.8765 4.94643C15.0795 5.12689 15.2717 5.31909 15.4521 5.52205C15.5754 5.66089 15.7457 5.74907 15.9303 5.76955L18.0471 6.00487C18.2832 6.45534 18.4787 6.92595 18.6312 7.41112L17.3009 9.07424C17.1836 9.22058 17.1254 9.40555 17.1378 9.59268H17.1406Z" fill="#F55668"/>
</svg>
