<svg width="20" height="20" viewBox="0 0 20 20" fill="none" xmlns="http://www.w3.org/2000/svg">
<path d="M18.25 10.2021C18.2538 10.0671 18.2538 9.93205 18.25 9.79705L19.6488 8.04955C19.7221 7.9578 19.7729 7.85011 19.797 7.73514C19.8211 7.62018 19.8178 7.50116 19.7875 7.38768C19.5578 6.52588 19.2148 5.69836 18.7675 4.92674C18.7089 4.82579 18.6275 4.73991 18.5299 4.67595C18.4322 4.61199 18.321 4.5717 18.205 4.5583L15.9813 4.3108C15.8888 4.2133 15.795 4.11955 15.7 4.02955L15.4375 1.80018C15.424 1.68413 15.3836 1.57284 15.3195 1.47518C15.2553 1.37752 15.1693 1.29619 15.0681 1.23768C14.2966 0.790725 13.469 0.44835 12.6072 0.219555C12.4937 0.189236 12.3747 0.185996 12.2597 0.210096C12.1448 0.234196 12.0371 0.284962 11.9453 0.358304L10.2025 1.74955C10.0675 1.74955 9.93251 1.74955 9.79751 1.74955L8.05001 0.353617C7.95826 0.280275 7.85056 0.229509 7.7356 0.205409C7.62064 0.181309 7.50162 0.184548 7.38814 0.214867C6.52634 0.44458 5.69881 0.78757 4.9272 1.23487C4.82625 1.29348 4.74037 1.37486 4.67641 1.47251C4.61245 1.57017 4.57216 1.6814 4.55876 1.79737L4.31126 4.02487C4.21376 4.11799 4.12001 4.21174 4.03001 4.30612L1.80064 4.56205C1.68459 4.57556 1.57329 4.61598 1.47563 4.68011C1.37797 4.74424 1.29665 4.8303 1.23814 4.93143C0.791275 5.70315 0.448607 6.53066 0.219075 7.39237C0.188884 7.50592 0.185797 7.62498 0.21006 7.73995C0.234324 7.85491 0.28526 7.96257 0.358762 8.05424L1.75001 9.79705C1.75001 9.93205 1.75001 10.0671 1.75001 10.2021L0.354075 11.9496C0.280733 12.0413 0.229967 12.149 0.205867 12.264C0.181766 12.3789 0.185006 12.4979 0.215325 12.6114C0.445038 13.4732 0.788028 14.3008 1.23532 15.0724C1.29394 15.1733 1.37532 15.2592 1.47297 15.3232C1.57062 15.3871 1.68186 15.4274 1.79782 15.4408L4.02157 15.6883C4.1147 15.7858 4.20845 15.8796 4.30282 15.9696L4.56251 18.1989C4.57601 18.315 4.61644 18.4263 4.68057 18.5239C4.7447 18.6216 4.83076 18.7029 4.93189 18.7614C5.7036 19.2083 6.53111 19.551 7.39282 19.7805C7.50638 19.8107 7.62544 19.8138 7.7404 19.7895C7.85537 19.7652 7.96303 19.7143 8.0547 19.6408L9.79751 18.2496C9.93251 18.2533 10.0675 18.2533 10.2025 18.2496L11.95 19.6483C12.0418 19.7216 12.1495 19.7724 12.2644 19.7965C12.3794 19.8206 12.4984 19.8174 12.6119 19.7871C13.4738 19.5578 14.3014 19.2147 15.0728 18.7671C15.1738 18.7084 15.2597 18.6271 15.3236 18.5294C15.3876 18.4318 15.4279 18.3205 15.4413 18.2046L15.6888 15.9808C15.7863 15.8883 15.88 15.7946 15.97 15.6996L18.1994 15.4371C18.3154 15.4236 18.4267 15.3831 18.5244 15.319C18.622 15.2549 18.7034 15.1688 18.7619 15.0677C19.2087 14.296 19.5514 13.4685 19.7809 12.6067C19.8111 12.4932 19.8142 12.3741 19.79 12.2592C19.7657 12.1442 19.7148 12.0365 19.6413 11.9449L18.25 10.2021ZM10 13.7496C9.25833 13.7496 8.53331 13.5296 7.91662 13.1176C7.29994 12.7055 6.81929 12.1198 6.53546 11.4346C6.25163 10.7494 6.17737 9.99539 6.32207 9.26797C6.46676 8.54054 6.82391 7.87235 7.34836 7.3479C7.87281 6.82346 8.54099 6.4663 9.26842 6.32161C9.99585 6.17691 10.7499 6.25118 11.4351 6.53501C12.1203 6.81883 12.706 7.29948 13.118 7.91617C13.5301 8.53285 13.75 9.25787 13.75 9.99955C13.75 10.9941 13.3549 11.9479 12.6517 12.6512C11.9484 13.3545 10.9946 13.7496 10 13.7496Z" fill="#F55668"/>
</svg>
