<svg width="18" height="22" viewBox="0 0 18 22" fill="none" xmlns="http://www.w3.org/2000/svg">
<path d="M17.8752 17.7502C17.8753 18.2428 17.7675 18.7294 17.5594 19.1759C17.3514 19.6225 17.0482 20.018 16.671 20.3349C16.2938 20.6517 15.8518 20.8821 15.3761 21.01C14.9003 21.1378 14.4024 21.16 13.9172 21.0749C13.432 20.9898 12.9713 20.7995 12.5675 20.5174C12.1636 20.2353 11.8264 19.8682 11.5796 19.442C11.3327 19.0157 11.1822 18.5405 11.1385 18.0499C11.0948 17.5592 11.1591 17.0649 11.3268 16.6017L6.358 13.4095C5.88345 13.875 5.282 14.19 4.62911 14.315C3.97622 14.44 3.30097 14.3693 2.68806 14.112C2.07515 13.8547 1.55189 13.4221 1.18391 12.8685C0.815931 12.3148 0.619629 11.6649 0.619629 11.0002C0.619629 10.3354 0.815931 9.68549 1.18391 9.13189C1.55189 8.57829 2.07515 8.14568 2.68806 7.88834C3.30097 7.63099 3.97622 7.56038 4.62911 7.68534C5.282 7.81031 5.88345 8.1253 6.358 8.59079L11.3268 5.40329C11.0422 4.62146 11.0558 3.7622 11.3647 2.98971C11.6737 2.21722 12.2565 1.58565 13.0017 1.2157C13.7469 0.845739 14.6023 0.76333 15.4045 0.984215C16.2066 1.2051 16.8992 1.71379 17.35 2.41309C17.8008 3.11239 17.9781 3.95326 17.8481 4.77503C17.718 5.5968 17.2898 6.34185 16.6451 6.86781C16.0005 7.39378 15.1846 7.66378 14.3535 7.62622C13.5223 7.58867 12.7342 7.24619 12.1396 6.66423L7.17082 9.85642C7.43935 10.5985 7.43935 11.4112 7.17082 12.1533L12.1396 15.3455C12.614 14.8812 13.2147 14.5671 13.8667 14.4425C14.5187 14.3179 15.193 14.3884 15.8051 14.645C16.4173 14.9017 16.9402 15.3331 17.3084 15.8855C17.6766 16.4378 17.8737 17.0864 17.8752 17.7502Z" fill="#F66777"/>
</svg>
