<svg width="20" height="24" viewBox="0 0 20 24" fill="none" xmlns="http://www.w3.org/2000/svg">
<path d="M5.33342 10.7166C5.33342 11.8055 5.86814 12.8458 6.93758 13.8375C8.00703 14.8291 8.90147 15.6555 9.62092 16.3166C9.73758 16.4139 9.86883 16.4625 10.0147 16.4625C10.1605 16.4625 10.2917 16.4139 10.4084 16.3166C11.1084 15.675 11.9931 14.8437 13.0626 13.8229C14.132 12.8021 14.6667 11.7666 14.6667 10.7166C14.6667 10.0166 14.414 9.41386 13.9084 8.9083C13.4029 8.40275 12.8001 8.14997 12.1001 8.14997C11.6917 8.14997 11.298 8.23261 10.9188 8.39788C10.5397 8.56316 10.2334 8.79163 10.0001 9.0833C9.76675 8.79163 9.46536 8.56316 9.09591 8.39788C8.72647 8.23261 8.32786 8.14997 7.90008 8.14997C7.20008 8.14997 6.5973 8.40275 6.09175 8.9083C5.58619 9.41386 5.33342 10.0166 5.33342 10.7166ZM10.0001 23.55C9.86397 23.55 9.73758 23.5402 9.62092 23.5208C9.50425 23.5014 9.38758 23.4722 9.27092 23.4333C6.64592 22.5583 4.55564 20.9396 3.00008 18.5771C1.44453 16.2146 0.666748 13.6722 0.666748 10.95V5.43747C0.666748 4.95136 0.80772 4.51386 1.08966 4.12497C1.37161 3.73608 1.73619 3.45413 2.18341 3.27913L9.18342 0.654134C9.45564 0.556912 9.72786 0.508301 10.0001 0.508301C10.2723 0.508301 10.5445 0.556912 10.8167 0.654134L17.8167 3.27913C18.264 3.45413 18.6286 3.73608 18.9105 4.12497C19.1924 4.51386 19.3334 4.95136 19.3334 5.43747V10.95C19.3334 13.6722 18.5556 16.2146 17.0001 18.5771C15.4445 20.9396 13.3542 22.5583 10.7292 23.4333C10.6126 23.4722 10.4959 23.5014 10.3792 23.5208C10.2626 23.5402 10.1362 23.55 10.0001 23.55Z" fill="url(#paint0_linear_8973_2204)"/>
<defs>
<linearGradient id="paint0_linear_8973_2204" x1="13.4491" y1="24.2127" x2="4.11409" y2="0.321732" gradientUnits="userSpaceOnUse">
<stop offset="0.390625" stop-color="#FA635E"/>
<stop offset="1" stop-color="#F99C40"/>
</linearGradient>
</defs>
</svg>
