<svg width="27" height="27" viewBox="0 0 27 27" fill="none" xmlns="http://www.w3.org/2000/svg">
<path d="M21.6145 15.3828C21.6165 15.7141 21.5159 16.0379 21.3264 16.3096C21.1369 16.5813 20.8678 16.7876 20.5562 16.9002L15.3105 18.8298L13.3808 24.0715C13.2665 24.3819 13.0598 24.6499 12.7885 24.8391C12.5171 25.0284 12.1943 25.1298 11.8635 25.1298C11.5327 25.1298 11.2098 25.0284 10.9385 24.8391C10.6671 24.6499 10.4604 24.3819 10.3461 24.0715L8.41136 18.8359L3.1687 16.9062C2.85825 16.792 2.59033 16.5852 2.40108 16.3139C2.21182 16.0426 2.11035 15.7197 2.11035 15.3889C2.11035 15.0581 2.21182 14.7352 2.40108 14.4639C2.59033 14.1926 2.85825 13.9858 3.1687 13.8716L8.4144 11.9419L10.3441 6.70023C10.4584 6.38979 10.6651 6.12186 10.9364 5.93261C11.2078 5.74336 11.5306 5.64189 11.8614 5.64189C12.1922 5.64189 12.5151 5.74336 12.7864 5.93261C13.0578 6.12186 13.2645 6.38979 13.3788 6.70023L15.3085 11.9459L20.5501 13.8756C20.8612 13.9866 21.1304 14.1909 21.3209 14.4607C21.5115 14.7305 21.614 15.0525 21.6145 15.3828ZM15.927 5.63281H17.552V7.25781C17.552 7.4733 17.6376 7.67996 17.79 7.83234C17.9423 7.98471 18.149 8.07031 18.3645 8.07031C18.58 8.07031 18.7866 7.98471 18.939 7.83234C19.0914 7.67996 19.177 7.4733 19.177 7.25781V5.63281H20.802C21.0175 5.63281 21.2241 5.54721 21.3765 5.39484C21.5289 5.24246 21.6145 5.0358 21.6145 4.82031C21.6145 4.60482 21.5289 4.39816 21.3765 4.24579C21.2241 4.09342 21.0175 4.00781 20.802 4.00781H19.177V2.38281C19.177 2.16732 19.0914 1.96066 18.939 1.80829C18.7866 1.65591 18.58 1.57031 18.3645 1.57031C18.149 1.57031 17.9423 1.65591 17.79 1.80829C17.6376 1.96066 17.552 2.16732 17.552 2.38281V4.00781H15.927C15.7115 4.00781 15.5048 4.09342 15.3525 4.24579C15.2001 4.39816 15.1145 4.60482 15.1145 4.82031C15.1145 5.0358 15.2001 5.24246 15.3525 5.39484C15.5048 5.54721 15.7115 5.63281 15.927 5.63281ZM24.8645 8.88281H24.052V8.07031C24.052 7.85482 23.9664 7.64816 23.814 7.49579C23.6616 7.34342 23.455 7.25781 23.2395 7.25781C23.024 7.25781 22.8173 7.34342 22.665 7.49579C22.5126 7.64816 22.427 7.85482 22.427 8.07031V8.88281H21.6145C21.399 8.88281 21.1923 8.96842 21.04 9.12079C20.8876 9.27316 20.802 9.47982 20.802 9.69531C20.802 9.9108 20.8876 10.1175 21.04 10.2698C21.1923 10.4222 21.399 10.5078 21.6145 10.5078H22.427V11.3203C22.427 11.5358 22.5126 11.7425 22.665 11.8948C22.8173 12.0472 23.024 12.1328 23.2395 12.1328C23.455 12.1328 23.6616 12.0472 23.814 11.8948C23.9664 11.7425 24.052 11.5358 24.052 11.3203V10.5078H24.8645C25.08 10.5078 25.2866 10.4222 25.439 10.2698C25.5914 10.1175 25.677 9.9108 25.677 9.69531C25.677 9.47982 25.5914 9.27316 25.439 9.12079C25.2866 8.96842 25.08 8.88281 24.8645 8.88281Z" fill="url(#paint0_linear_3211_12660)"/>
<defs>
<linearGradient id="paint0_linear_3211_12660" x1="13.8937" y1="26.3007" x2="13.8937" y2="0.54136" gradientUnits="userSpaceOnUse">
<stop offset="0.385778" stop-color="#F55668"/>
<stop offset="1" stop-color="#FCC747"/>
<stop offset="1" stop-color="#FCC747"/>
</linearGradient>
</defs>
</svg>
