<svg width="56" height="56" viewBox="0 0 56 56" fill="none" xmlns="http://www.w3.org/2000/svg">
<g id="Frame 204">
<g clip-path="url(#clip0_1947_4751)">
<rect width="56" height="56" rx="28" fill="#FEEEF0"/>
<g id="Group">
<path id="Vector" fill-rule="evenodd" clip-rule="evenodd" d="M10.3349 33.7616C10.7165 38.4886 11.8304 42.0566 6.43568 44.3636C0.949002 46.7098 1.26586 49.8431 0.474365 55.376C-0.0560673 50.9999 -0.994993 46.7315 3.26528 43.9056C6.75919 41.5881 8.98032 42.1593 8.29063 37.0479C7.95474 34.5585 7.31105 32.0709 7.72804 29.5457C8.08425 27.3879 8.86946 25.7453 10.0739 24.2905C9.55509 22.5533 10.2782 20.0835 12.0746 18.0316C14.4398 15.3297 17.7691 14.3753 19.5108 15.9C21.2525 17.4246 20.747 20.8511 18.382 23.553C16.7262 25.4445 14.5978 26.4793 12.8724 26.4069C10.6088 27.9095 10.0829 30.6396 10.3349 33.7616Z" fill="#F55668"/>
<path id="Vector_2" fill-rule="evenodd" clip-rule="evenodd" d="M30.5128 28.2731C29.1546 29.4842 27.0808 29.6508 25.3457 29.7212C23.5924 29.7923 22.4829 30.0017 22.3484 31.9133C22.1897 34.1681 22.6773 36.721 22.6239 39.0855C22.5578 42.0198 21.8496 43.9319 19.4238 45.6194C16.9586 47.3343 11.8736 48.8131 9.73242 48.9831C12.4723 47.8003 16.4481 45.8832 18.4865 44.253C20.7483 42.4438 20.863 39.9572 20.5844 37.2832C20.4438 35.9323 20.2014 34.5867 20.1092 33.2321C19.9568 30.9936 20.3503 28.5641 22.6383 27.6072C23.5815 27.2128 24.605 27.1812 25.6094 27.1095C27.7875 26.9543 28.8395 26.4647 29.4551 24.1691C29.6322 23.5083 29.793 22.8219 29.9794 22.1518C28.7517 20.7488 28.5021 18.0663 29.5094 15.4008C30.7788 12.0418 33.5633 9.98213 35.7286 10.8004C37.8939 11.6187 38.6202 15.0053 37.3508 18.3641C36.4634 20.7122 34.8357 22.425 33.1967 22.964C32.483 24.7066 31.9459 26.995 30.5128 28.2731Z" fill="#F55668"/>
<path id="Vector_3" fill-rule="evenodd" clip-rule="evenodd" d="M18.9112 60.5384C19.3258 59.2711 20.0007 58.2716 21.1402 57.5579C23.0696 56.3496 27.0474 55.9607 27.7957 53.5106C28.2029 52.1771 27.5492 50.0895 27.2056 48.7661C26.7108 46.8609 26.4392 44.5967 27.8862 43.0204C28.839 41.9825 30.3193 41.4805 31.6037 40.9885C33.032 40.4412 34.3708 39.8679 35.5004 38.8C36.4306 37.9204 36.7613 37.3305 37.0761 36.2604C36.2311 34.6626 36.4433 32.1117 37.7797 29.7502C39.5482 26.6248 42.6149 25.0154 44.6295 26.1554C46.6441 27.2953 46.8436 30.753 45.0753 33.8783C43.9662 35.8382 42.3466 37.2017 40.7962 37.6651C39.7194 39.1816 38.5122 40.7948 36.9549 41.8234C35.434 42.8279 33.4169 43.4176 31.6942 44.0033C30.9245 44.2651 29.7001 44.7344 29.3968 45.5839C29.0526 46.5479 29.8016 49.0261 29.9998 50.0904C30.3442 51.9393 30.3632 53.9308 29.1823 55.5023C27.9529 57.1377 25.698 57.8986 23.8131 58.4654C18.3612 60.1049 19.2378 66.5826 19.6352 70.4828C18.6424 67.3614 17.8581 63.7583 18.9112 60.5384Z" fill="#F55668"/>
</g>
</g>
<rect x="1" y="1" width="54" height="54" rx="27" stroke="#F55668" stroke-width="2"/>
</g>
<defs>
<clipPath id="clip0_1947_4751">
<rect width="56" height="56" rx="28" fill="white"/>
</clipPath>
</defs>
</svg>
