<svg width="24" height="23" viewBox="0 0 24 23" fill="none" xmlns="http://www.w3.org/2000/svg">
<path d="M16.5296 21.9606L16.5283 21.9598L11.9964 19.211L7.47453 21.9596L7.47291 21.9606C7.13612 22.1635 6.74698 22.2627 6.35413 22.2457C5.96127 22.2287 5.58215 22.0963 5.26415 21.865C4.94615 21.6337 4.70339 21.3138 4.56622 20.9453C4.42914 20.577 4.40358 20.1765 4.49273 19.7938C4.49279 19.7936 4.49285 19.7933 4.49291 19.7931L5.69005 14.598L1.68889 11.1016C1.68846 11.1012 1.68803 11.1008 1.6876 11.1005C1.39003 10.8434 1.17484 10.5043 1.06896 10.1255L1.5505 9.99089L1.06896 10.1255C0.962932 9.74621 0.971245 9.34405 1.09286 8.96945C1.21448 8.59486 1.44398 8.26452 1.75259 8.01984C2.061 7.77532 2.43469 7.62724 2.82686 7.59414C2.82712 7.59411 2.82738 7.59409 2.82764 7.59407L8.09963 7.13744L10.1584 2.22696L16.5296 21.9606ZM16.5296 21.9606C16.8663 22.1635 17.2555 22.2627 17.6483 22.2457C18.0412 22.2287 18.4203 22.0963 18.7383 21.865C19.0563 21.6337 19.2991 21.3138 19.4362 20.9453C19.5733 20.577 19.5989 20.1765 19.5097 19.7938C19.5097 19.7936 19.5096 19.7933 19.5096 19.7931L18.3106 14.5926M16.5296 21.9606L18.3106 14.5926M18.3106 14.5926L22.1717 11.2229H22.1747L22.3154 11.1016C22.6137 10.8443 22.8293 10.5048 22.9354 10.1255C23.0414 9.74621 23.0331 9.34405 22.9115 8.96946C22.7899 8.59486 22.5604 8.26452 22.2517 8.01984L21.9411 8.41164L22.2517 8.01984C21.9433 7.77531 21.5696 7.62723 21.1774 7.59413C21.1772 7.59411 21.1769 7.59409 21.1767 7.59407L15.9062 7.13742L13.8413 2.22696C13.8412 2.22675 13.8411 2.22654 13.841 2.22633C13.6893 1.86321 13.4337 1.55304 13.1062 1.33483C12.7785 1.1165 12.3936 1 11.9998 1C11.6061 1 11.2211 1.1165 10.8934 1.33483C10.566 1.55301 10.3104 1.86312 10.1587 2.22618L18.3106 14.5926Z" fill="white" stroke="#D1D5DB"/>
</svg>
