<svg width="56" height="56" viewBox="0 0 56 56" fill="none" xmlns="http://www.w3.org/2000/svg">
<g id="Frame 204">
<rect x="1" y="1" width="54" height="54" rx="27" fill="#FEEEF0"/>
<rect x="1" y="1" width="54" height="54" rx="27" stroke="#F55668" stroke-width="2"/>
<g id="Layer_2">
<g id="XMLID_644_">
<path id="XMLID_645_" d="M32.5767 9.14365C30.5903 10.6617 32.1798 12.4098 31.2654 12.7677C30.352 13.1257 30.6692 13.2045 30.352 13.6023C30.0339 13.9992 29.5174 13.6023 29.5174 13.6023C29.5174 13.6023 30.0339 14.0595 29.5573 14.2181C29.0806 14.3767 28.7625 14.1587 28.4444 14.6753C28.1264 15.1918 27.6896 15.828 26.9347 15.3504C26.1799 14.8737 24.3521 13.7609 23.9153 10.9C23.9153 10.9 24.5589 12.9217 26.5629 14.4907C26.9839 14.8199 27.5607 14.8468 27.9186 14.449C28.0893 14.2598 28.2784 14.0725 28.4444 13.9594C28.8506 13.683 28.7143 13.1248 28.9563 13.0061C29.1993 12.8864 29.8345 13.3241 30.1127 13.0858C30.3909 12.8475 30.709 12.4496 30.9474 12.3708C31.1857 12.2911 31.0271 11.0289 31.1458 10.4484C31.2654 9.86791 32.0713 9.05369 32.7353 8.43701C33.7294 7.51337 33.8685 5.71709 33.8852 5.42034C31.5353 7.83794 24.5245 6.09081 22.8015 8.67533C21.2714 10.9696 22.4834 13.6821 24.6293 16.7015C26.7752 19.721 25.7616 21.2706 25.7616 21.2706C26.0992 18.4097 21.4903 15.1918 21.0136 12.4496C20.5369 9.7084 21.2519 7.40394 23.4766 6.37087C25.7013 5.33781 29.357 6.17242 31.9396 5.81446C33.9177 5.5409 34.4268 4.61447 34.5575 4.19531C34.436 4.68773 34.207 5.08557 33.8954 5.40921C33.9687 5.68649 34.4249 7.73037 32.5767 9.14365Z" fill="#F55668"/>
<path id="XMLID_647_" d="M34.5605 4.2083C34.5772 4.14072 34.592 4.07128 34.605 4C34.605 4 34.6004 4.08054 34.5605 4.2083Z" fill="#F55668"/>
<path id="XMLID_648_" d="M14.679 18.5574C16.7053 14.2665 21.3541 13.1342 22.8444 18.5574C24.3346 23.9805 21.9504 30.8939 23.2023 35.066C23.2023 35.066 26.3015 33.8744 28.4474 32.8608C30.5933 31.8472 33.4542 29.4343 35.3014 30.5369C36.9493 31.5208 37.3499 32.2534 37.566 33.3977C37.566 33.3977 36.7611 32.0271 36.1054 31.7294C35.4498 31.4318 34.2878 30.8948 32.4999 31.8491C30.712 32.8024 22.9046 36.7362 22.428 36.4385C21.9513 36.1408 21.892 32.6837 21.892 30.2995C21.892 27.9153 24.1566 18.6779 20.2237 16.8603C16.2899 15.0418 13.2454 20.9499 15.8086 29.8302C15.8067 29.8293 12.6528 22.8482 14.679 18.5574Z" fill="#F55668"/>
<path id="XMLID_649_" d="M16.8243 30.7317C17.2416 34.1888 17.3603 39.5526 19.5062 41.0419C21.652 42.5322 26.7172 39.3727 29.2804 36.9894C31.7694 34.6738 34.1082 33.1455 35.2998 33.4729C36.1539 33.7075 36.4321 34.3669 36.4321 34.3669C36.4321 34.3669 35.8433 33.2661 33.5713 34.4865C31.2993 35.706 23.4993 44.2607 19.5062 42.5915C15.513 40.9232 15.8107 22.8047 15.8107 22.8047C15.8107 22.8047 16.407 27.2754 16.8243 30.7317Z" fill="#F55668"/>
<path id="XMLID_650_" d="M20.3432 44.2083C20.3432 44.2083 25.1367 42.9443 28.6393 39.4427C32.4136 35.6684 35.2744 34.2773 35.2744 34.2773C35.2744 34.2773 40.9563 36.8201 41.4728 42.7969C41.9894 48.7727 37.0579 50.1155 37.0579 50.1155C37.0579 50.1155 34.2813 51.4416 29.5008 50.8463C24.7203 50.25 21.6862 50.1313 21.6862 50.1313H18.5479C20.3738 47.5876 20.3432 44.2083 20.3432 44.2083Z" fill="#F55668"/>
<path id="XMLID_651_" d="M34.7207 29.8984C34.7306 29.8987 34.7361 29.8994 34.7361 29.8994C34.7361 29.8994 34.7303 29.9 34.7207 29.8984Z" fill="#F55668"/>
<path id="XMLID_652_" d="M31.6616 30.6961C30.1518 31.6095 23.4369 34.5501 23.4369 34.5501C23.4369 34.5501 22.8406 30.1795 23.4369 28.1932C24.0193 26.2522 24.2604 20.7827 23.4183 18.4208C23.6511 19.0421 24.4931 21.3243 24.8678 22.7895C25.3046 24.4977 27.1639 25.7691 28.9555 25.6105C30.7481 25.4519 31.3036 24.021 31.145 23.1864C30.9864 22.3518 27.7277 20.0075 27.2511 16.6699C27.2511 16.6699 28.7209 20.4044 30.9466 21.7954C33.1713 23.1864 34.4825 23.5036 34.1645 26.7623C33.8909 29.5703 34.5317 29.8698 34.7135 29.8986C34.4436 29.8884 33.021 29.8735 31.6616 30.6961Z" fill="#F55668"/>
<path id="XMLID_654_" d="M23.4195 18.4228C23.3807 18.32 23.3594 18.2617 23.3594 18.2617C23.3797 18.3136 23.4001 18.3682 23.4195 18.4228Z" fill="#F55668"/>
</g>
</g>
</g>
</svg>
