<svg width="21" height="21" viewBox="0 0 21 21" fill="none" xmlns="http://www.w3.org/2000/svg">
<path d="M16 20.749H6V7.74902L13 0.749023L14.25 1.99902C14.3667 2.11569 14.4625 2.27402 14.5375 2.47402C14.6125 2.67402 14.65 2.86569 14.65 3.04902V3.39902L13.55 7.74902H19C19.5333 7.74902 20 7.94902 20.4 8.34902C20.8 8.74902 21 9.21569 21 9.74902V11.749C21 11.8657 20.9875 11.9907 20.9625 12.124C20.9375 12.2574 20.9 12.3824 20.85 12.499L17.85 19.549C17.7 19.8824 17.45 20.1657 17.1 20.399C16.75 20.6324 16.3833 20.749 16 20.749ZM4 7.74902V20.749H0V7.74902H4Z" fill="white"/>
</svg>
