<svg width="21" height="21" viewBox="0 0 21 21" fill="none" xmlns="http://www.w3.org/2000/svg">
<path d="M5 0.749023H15V13.749L8 20.749L6.75 19.499C6.63333 19.3824 6.5375 19.224 6.4625 19.024C6.3875 18.824 6.35 18.6324 6.35 18.449V18.099L7.45 13.749H2C1.46667 13.749 1 13.549 0.6 13.149C0.2 12.749 0 12.2824 0 11.749V9.74902C0 9.63236 0.0125 9.50736 0.0375 9.37402C0.0625 9.24069 0.1 9.11569 0.15 8.99902L3.15 1.94902C3.3 1.61569 3.55 1.33236 3.9 1.09902C4.25 0.86569 4.61667 0.749023 5 0.749023ZM17 13.749V0.749023H21V13.749H17Z" fill="white"/>
</svg>
