<svg width="18" height="18" viewBox="0 0 18 18" fill="none"
    xmlns="http://www.w3.org/2000/svg">
    <path d="M18 11.25V16.5C18 16.8978 17.842 17.2793 17.5607 17.5606C17.2794 17.8419 16.8978 18 16.5 18H1.5C1.10218 18 0.720644 17.8419 0.43934 17.5606C0.158035 17.2793 0 16.8978 0 16.5V11.25C0 11.0511 0.0790178 10.8603 0.21967 10.7196C0.360322 10.579 0.551088 10.5 0.75 10.5C0.948912 10.5 1.13968 10.579 1.28033 10.7196C1.42098 10.8603 1.5 11.0511 1.5 11.25V16.5H16.5V11.25C16.5 11.0511 16.579 10.8603 16.7197 10.7196C16.8603 10.579 17.0511 10.5 17.25 10.5C17.4489 10.5 17.6397 10.579 17.7803 10.7196C17.921 10.8603 18 11.0511 18 11.25ZM5.78063 5.03061L8.25 2.56029V11.25C8.25 11.4489 8.32902 11.6397 8.46967 11.7803C8.61032 11.921 8.80109 12 9 12C9.19891 12 9.38968 11.921 9.53033 11.7803C9.67098 11.6397 9.75 11.4489 9.75 11.25V2.56029L12.2194 5.03061C12.3601 5.17134 12.551 5.2504 12.75 5.2504C12.949 5.2504 13.1399 5.17134 13.2806 5.03061C13.4214 4.88987 13.5004 4.699 13.5004 4.49998C13.5004 4.30096 13.4214 4.11009 13.2806 3.96935L9.53063 0.219355C9.46097 0.149622 9.37825 0.0943031 9.2872 0.0565599C9.19616 0.0188166 9.09856 -0.000610352 9 -0.000610352C8.90144 -0.000610352 8.80384 0.0188166 8.7128 0.0565599C8.62175 0.0943031 8.53903 0.149622 8.46937 0.219355L4.71937 3.96935C4.57864 4.11009 4.49958 4.30096 4.49958 4.49998C4.49958 4.699 4.57864 4.88987 4.71937 5.03061C4.86011 5.17134 5.05098 5.2504 5.25 5.2504C5.44902 5.2504 5.63989 5.17134 5.78063 5.03061Z" fill="#1D2021"/>
</svg>
