<svg width="94" height="94" viewBox="0 0 94 94" fill="none" xmlns="http://www.w3.org/2000/svg">
<g filter="url(#filter0_dd_7023_10386)">
<mask id="path-1-inside-1_7023_10386" fill="white">
<path fill-rule="evenodd" clip-rule="evenodd" d="M82.8238 37.7823L82.792 37.7491C81.4218 36.3172 80.0119 34.8437 79.4779 33.5469C78.981 32.3522 78.9508 30.3735 78.9216 28.4552L78.9214 28.4438L78.9212 28.4298C78.8664 24.8604 78.8043 20.8185 75.9929 18.0071C73.1815 15.1958 69.1397 15.1336 65.5703 15.0788L65.5562 15.0786L65.5448 15.0784C63.6265 15.0492 61.6478 15.019 60.4531 14.5221C59.1537 13.9856 57.6686 12.5645 56.2301 11.1882L56.2177 11.1762C53.6918 8.7492 50.8218 6 47 6C43.1782 6 40.3119 8.7492 37.7823 11.1762L37.7491 11.2081C36.3172 12.5782 34.8437 13.9882 33.5469 14.5221C32.3598 15.0189 30.3745 15.0492 28.4565 15.0784L28.4438 15.0786L28.4297 15.0788C24.8603 15.1336 20.8185 15.1958 18.0071 18.0071C15.1921 20.8222 15.1518 24.871 15.0786 28.4438L15.0784 28.4552C15.0492 30.3735 15.019 32.3522 14.5221 33.5469C13.9856 34.8463 12.5646 36.3314 11.1882 37.7699L11.1762 37.7823C8.7492 40.3082 6 43.1782 6 47C6 50.8218 8.7492 53.6881 11.1762 56.2177L11.2081 56.2509C12.5782 57.6828 13.9882 59.1563 14.5221 60.4531C15.019 61.6478 15.0492 63.6265 15.0784 65.5448L15.0786 65.5562L15.0788 65.5703C15.1336 69.1397 15.1958 73.1815 18.0071 75.9929C20.8185 78.8043 24.8604 78.8664 28.4298 78.9212L28.4438 78.9214L28.4552 78.9216C30.3735 78.9508 32.3522 78.981 33.5469 79.4779C34.6839 79.9474 35.9631 81.094 37.2287 82.2954C37.4095 82.467 37.5901 82.6398 37.7699 82.8118L37.7823 82.8238C40.3082 85.2508 43.1782 88 47 88C50.8218 88 53.6881 85.2508 56.2177 82.8238L56.2509 82.792C57.6828 81.4218 59.1563 80.0119 60.4531 79.4779C61.6478 78.981 63.6265 78.9508 65.5448 78.9216L65.5562 78.9214L65.5702 78.9212C69.1396 78.8664 73.1815 78.8043 75.9929 75.9929C78.8043 73.1815 78.8664 69.1396 78.9212 65.5702L78.9214 65.5562L78.9216 65.5448C78.9508 63.6265 78.981 61.6478 79.4779 60.4531C80.0144 59.1537 81.4355 57.6686 82.8119 56.2301L82.8238 56.2177C85.2508 53.6918 88 50.8218 88 47C88 43.1782 85.2508 40.3119 82.8238 37.7823ZM43.2148 60.7863L63.7148 40.2863C63.9869 40.0142 64.2028 39.6911 64.35 39.3356C64.4973 38.9801 64.5731 38.5991 64.5731 38.2143C64.5731 37.8295 64.4973 37.4485 64.35 37.0929C64.2028 36.7374 63.9869 36.4144 63.7148 36.1423C63.4427 35.8702 63.1197 35.6544 62.7642 35.5071C62.4087 35.3599 62.0277 35.2841 61.6429 35.2841C61.2581 35.2841 60.877 35.3599 60.5215 35.5071C60.166 35.6544 59.843 35.8702 59.5709 36.1423L41.1429 54.574L34.4291 47.8566C33.8796 47.3071 33.1343 46.9984 32.3571 46.9984C31.58 46.9984 30.8347 47.3071 30.2852 47.8566C29.7357 48.4061 29.4269 49.1514 29.4269 49.9286C29.4269 50.7057 29.7357 51.451 30.2852 52.0005L39.0709 60.7863C39.3429 61.0585 39.6659 61.2746 40.0214 61.4219C40.3769 61.5693 40.758 61.6452 41.1429 61.6452C41.5277 61.6452 41.9088 61.5693 42.2643 61.4219C42.6198 61.2746 42.9428 61.0585 43.2148 60.7863Z"/>
</mask>
<path fill-rule="evenodd" clip-rule="evenodd" d="M82.8238 37.7823L82.792 37.7491C81.4218 36.3172 80.0119 34.8437 79.4779 33.5469C78.981 32.3522 78.9508 30.3735 78.9216 28.4552L78.9214 28.4438L78.9212 28.4298C78.8664 24.8604 78.8043 20.8185 75.9929 18.0071C73.1815 15.1958 69.1397 15.1336 65.5703 15.0788L65.5562 15.0786L65.5448 15.0784C63.6265 15.0492 61.6478 15.019 60.4531 14.5221C59.1537 13.9856 57.6686 12.5645 56.2301 11.1882L56.2177 11.1762C53.6918 8.7492 50.8218 6 47 6C43.1782 6 40.3119 8.7492 37.7823 11.1762L37.7491 11.2081C36.3172 12.5782 34.8437 13.9882 33.5469 14.5221C32.3598 15.0189 30.3745 15.0492 28.4565 15.0784L28.4438 15.0786L28.4297 15.0788C24.8603 15.1336 20.8185 15.1958 18.0071 18.0071C15.1921 20.8222 15.1518 24.871 15.0786 28.4438L15.0784 28.4552C15.0492 30.3735 15.019 32.3522 14.5221 33.5469C13.9856 34.8463 12.5646 36.3314 11.1882 37.7699L11.1762 37.7823C8.7492 40.3082 6 43.1782 6 47C6 50.8218 8.7492 53.6881 11.1762 56.2177L11.2081 56.2509C12.5782 57.6828 13.9882 59.1563 14.5221 60.4531C15.019 61.6478 15.0492 63.6265 15.0784 65.5448L15.0786 65.5562L15.0788 65.5703C15.1336 69.1397 15.1958 73.1815 18.0071 75.9929C20.8185 78.8043 24.8604 78.8664 28.4298 78.9212L28.4438 78.9214L28.4552 78.9216C30.3735 78.9508 32.3522 78.981 33.5469 79.4779C34.6839 79.9474 35.9631 81.094 37.2287 82.2954C37.4095 82.467 37.5901 82.6398 37.7699 82.8118L37.7823 82.8238C40.3082 85.2508 43.1782 88 47 88C50.8218 88 53.6881 85.2508 56.2177 82.8238L56.2509 82.792C57.6828 81.4218 59.1563 80.0119 60.4531 79.4779C61.6478 78.981 63.6265 78.9508 65.5448 78.9216L65.5562 78.9214L65.5702 78.9212C69.1396 78.8664 73.1815 78.8043 75.9929 75.9929C78.8043 73.1815 78.8664 69.1396 78.9212 65.5702L78.9214 65.5562L78.9216 65.5448C78.9508 63.6265 78.981 61.6478 79.4779 60.4531C80.0144 59.1537 81.4355 57.6686 82.8119 56.2301L82.8238 56.2177C85.2508 53.6918 88 50.8218 88 47C88 43.1782 85.2508 40.3119 82.8238 37.7823ZM43.2148 60.7863L63.7148 40.2863C63.9869 40.0142 64.2028 39.6911 64.35 39.3356C64.4973 38.9801 64.5731 38.5991 64.5731 38.2143C64.5731 37.8295 64.4973 37.4485 64.35 37.0929C64.2028 36.7374 63.9869 36.4144 63.7148 36.1423C63.4427 35.8702 63.1197 35.6544 62.7642 35.5071C62.4087 35.3599 62.0277 35.2841 61.6429 35.2841C61.2581 35.2841 60.877 35.3599 60.5215 35.5071C60.166 35.6544 59.843 35.8702 59.5709 36.1423L41.1429 54.574L34.4291 47.8566C33.8796 47.3071 33.1343 46.9984 32.3571 46.9984C31.58 46.9984 30.8347 47.3071 30.2852 47.8566C29.7357 48.4061 29.4269 49.1514 29.4269 49.9286C29.4269 50.7057 29.7357 51.451 30.2852 52.0005L39.0709 60.7863C39.3429 61.0585 39.6659 61.2746 40.0214 61.4219C40.3769 61.5693 40.758 61.6452 41.1429 61.6452C41.5277 61.6452 41.9088 61.5693 42.2643 61.4219C42.6198 61.2746 42.9428 61.0585 43.2148 60.7863Z" fill="url(#paint0_linear_7023_10386)" fill-opacity="0.7"/>
<path d="M78.9214 28.4438L79.4214 28.4362V28.4362L78.9214 28.4438ZM65.5562 15.0786L65.5638 14.5786L65.5638 14.5786L65.5562 15.0786ZM28.4438 15.0786L28.4362 14.5786L28.4362 14.5786L28.4438 15.0786ZM15.0786 65.5562L14.5786 65.5638L14.5786 65.5638L15.0786 65.5562ZM28.4438 78.9214L28.4362 79.4214H28.4362L28.4438 78.9214ZM65.5562 78.9214L65.5638 79.4214H65.5638L65.5562 78.9214ZM78.9214 65.5562L79.4214 65.5638V65.5638L78.9214 65.5562ZM37.4242 83.1731C37.4261 83.1749 37.4281 83.1768 37.4302 83.1788C37.4322 83.1808 37.4344 83.1829 37.4366 83.185L38.128 82.4625C38.1261 82.4606 38.1241 82.4588 38.122 82.4568C38.12 82.4548 38.1178 82.4527 38.1156 82.4506L37.4242 83.1731ZM28.4362 79.4214C28.4383 79.4214 28.4404 79.4214 28.4422 79.4215C28.4442 79.4215 28.4459 79.4215 28.4476 79.4215L28.4628 78.4217C28.4607 78.4216 28.4587 78.4216 28.4568 78.4216C28.4549 78.4215 28.4531 78.4215 28.4515 78.4215L28.4362 79.4214ZM28.4221 79.4212C28.4245 79.4212 28.4269 79.4212 28.4293 79.4213C28.4316 79.4213 28.4339 79.4213 28.4362 79.4214L28.4515 78.4215C28.4491 78.4214 28.4467 78.4214 28.4443 78.4214C28.442 78.4213 28.4397 78.4213 28.4374 78.4213L28.4221 79.4212ZM14.5786 65.5638C14.5788 65.5744 14.5787 65.5672 14.5788 65.5779L15.5787 65.5626C15.5787 65.5603 15.5787 65.5579 15.5786 65.5556C15.5786 65.5532 15.5785 65.5509 15.5785 65.5485L14.5786 65.5638ZM14.5785 65.5524C14.5785 65.5542 14.5786 65.562 14.5786 65.5638L15.5785 65.5485C15.5784 65.5427 15.5784 65.5429 15.5783 65.5372L14.5785 65.5524ZM10.815 56.5634C10.8255 56.5743 10.8363 56.5856 10.8468 56.5966L11.5693 55.9052C11.5586 55.8941 11.5482 55.8832 11.5375 55.872L10.815 56.5634ZM28.4362 14.5786C28.4259 14.5788 28.4325 14.5787 28.4221 14.5788L28.4374 15.5787C28.4397 15.5787 28.4421 15.5787 28.4444 15.5786C28.4468 15.5786 28.4491 15.5785 28.4515 15.5785L28.4362 14.5786ZM28.4489 14.5784C28.4475 14.5785 28.4377 14.5786 28.4362 14.5786L28.4515 15.5785C28.4584 15.5784 28.4571 15.5784 28.4641 15.5783L28.4489 14.5784ZM37.4366 10.815C37.4256 10.8256 37.4145 10.8362 37.4034 10.8468L38.0948 11.5693C38.1058 11.5587 38.1169 11.5481 38.128 11.5375L37.4366 10.815ZM83.1731 56.5758C83.175 56.5738 83.1769 56.5718 83.1789 56.5697C83.1809 56.5676 83.183 56.5655 83.185 56.5634L82.4625 55.872C82.4606 55.874 82.4587 55.876 82.4567 55.8781C82.4547 55.8801 82.4527 55.8823 82.4506 55.8844L83.1731 56.5758ZM56.5758 10.8269C56.5754 10.8265 56.5639 10.8155 56.5634 10.815L55.872 11.5375C55.8798 11.5449 55.8766 11.5419 55.8844 11.5494L56.5758 10.8269ZM79.4214 65.5638C79.4214 65.5617 79.4214 65.5596 79.4215 65.5578C79.4215 65.5558 79.4215 65.5541 79.4215 65.5524L78.4217 65.5372C78.4216 65.5393 78.4216 65.5414 78.4216 65.5432C78.4215 65.5451 78.4215 65.5469 78.4215 65.5485L79.4214 65.5638ZM65.5638 14.5786C65.562 14.5786 65.5542 14.5785 65.5524 14.5785L65.5372 15.5783C65.5429 15.5784 65.5427 15.5784 65.5485 15.5785L65.5638 14.5786ZM79.4212 65.5779C79.4212 65.5755 79.4212 65.5731 79.4213 65.5707C79.4213 65.5684 79.4213 65.5661 79.4214 65.5638L78.4215 65.5485C78.4214 65.5509 78.4214 65.5533 78.4214 65.5557C78.4213 65.558 78.4213 65.5603 78.4213 65.5626L79.4212 65.5779ZM65.5779 14.5788C65.5672 14.5787 65.5744 14.5788 65.5638 14.5786L65.5485 15.5785C65.5509 15.5785 65.5532 15.5786 65.5556 15.5786C65.5579 15.5787 65.5603 15.5787 65.5626 15.5787L65.5779 14.5788ZM10.8269 37.4242C10.8249 37.4263 10.8229 37.4284 10.8209 37.4305C10.8189 37.4325 10.8169 37.4346 10.815 37.4366L11.5375 38.128C11.5461 38.1191 11.541 38.1243 11.5494 38.1155L10.8269 37.4242ZM65.5638 79.4214C65.5661 79.4213 65.5684 79.4213 65.5707 79.4213C65.5731 79.4212 65.5755 79.4212 65.5779 79.4212L65.5626 78.4213C65.5603 78.4213 65.558 78.4213 65.5557 78.4214C65.5533 78.4214 65.5509 78.4214 65.5485 78.4215L65.5638 79.4214ZM79.4214 28.4362C79.4213 28.4339 79.4213 28.4316 79.4213 28.4293C79.4212 28.4269 79.4212 28.4245 79.4212 28.4221L78.4213 28.4374C78.4213 28.4397 78.4213 28.442 78.4214 28.4443C78.4214 28.4467 78.4214 28.4491 78.4215 28.4515L79.4214 28.4362ZM14.5786 28.4362C14.5786 28.4367 14.5785 28.447 14.5785 28.4476L15.5783 28.4628C15.5784 28.4558 15.5784 28.4586 15.5785 28.4515L14.5786 28.4362ZM65.5524 79.4215C65.5541 79.4215 65.5558 79.4215 65.5578 79.4215C65.5596 79.4214 65.5617 79.4214 65.5638 79.4214L65.5485 78.4215C65.5469 78.4215 65.5451 78.4215 65.5432 78.4216C65.5414 78.4216 65.5393 78.4216 65.5372 78.4217L65.5524 79.4215ZM79.4215 28.4476C79.4215 28.4459 79.4215 28.4442 79.4215 28.4422C79.4214 28.4404 79.4214 28.4383 79.4214 28.4362L78.4215 28.4515C78.4215 28.4531 78.4215 28.4549 78.4216 28.4568C78.4216 28.4587 78.4216 28.4607 78.4217 28.4628L79.4215 28.4476ZM56.5634 83.185C56.5744 83.1745 56.5855 83.1638 56.5966 83.1532L55.9052 82.4307C55.8941 82.4413 55.8831 82.4518 55.872 82.4625L56.5634 83.185ZM83.185 37.4366C83.1745 37.4256 83.1638 37.4145 83.1532 37.4034L82.4307 38.0948C82.4413 38.1059 82.4518 38.1169 82.4625 38.128L83.185 37.4366ZM82.8238 37.7823L82.1012 38.4737L82.1022 38.4747L82.8238 37.7823ZM79.4779 33.5469L80.4025 33.1661L80.4012 33.1629L79.4779 33.5469ZM78.9214 28.4438L79.9213 28.4291L79.9213 28.4287L78.9214 28.4438ZM75.9929 18.0071L76.7 17.3V17.3L75.9929 18.0071ZM65.5562 15.0786L65.5715 14.0787L65.5714 14.0787L65.5562 15.0786ZM60.4531 14.5221L60.8371 13.5988L60.8348 13.5978L60.4531 14.5221ZM56.2177 11.1762L55.5248 11.8973L55.5263 11.8987L56.2177 11.1762ZM37.7823 11.1762L38.4737 11.8988L38.4747 11.8978L37.7823 11.1762ZM33.5469 14.5221L33.1661 13.5974L33.1608 13.5997L33.5469 14.5221ZM28.4438 15.0786L28.4286 14.0787L28.4285 14.0787L28.4438 15.0786ZM15.0786 28.4438L14.0788 28.4234L14.0787 28.4286L15.0786 28.4438ZM14.5221 33.5469L13.5988 33.1629L13.5978 33.1652L14.5221 33.5469ZM11.1762 37.7823L11.8973 38.4752L11.8988 38.4736L11.1762 37.7823ZM11.1762 56.2177L11.8988 55.5264L11.8978 55.5253L11.1762 56.2177ZM14.5221 60.4531L13.5975 60.8339L13.5988 60.8371L14.5221 60.4531ZM15.0786 65.5562L14.0787 65.5714L14.0787 65.5715L15.0786 65.5562ZM18.0071 75.9929L17.3 76.7H17.3L18.0071 75.9929ZM28.4438 78.9214L28.4287 79.9213L28.4291 79.9213L28.4438 78.9214ZM33.5469 79.4779L33.1629 80.4012L33.1652 80.4022L33.5469 79.4779ZM37.7823 82.8238L38.4752 82.1027L38.474 82.1015L37.7823 82.8238ZM56.2177 82.8238L55.5263 82.1012L55.5253 82.1022L56.2177 82.8238ZM60.4531 79.4779L60.8339 80.4025L60.8371 80.4012L60.4531 79.4779ZM65.5562 78.9214L65.5709 79.9213L65.5713 79.9213L65.5562 78.9214ZM78.9214 65.5562L79.9213 65.5713L79.9213 65.5709L78.9214 65.5562ZM79.4779 60.4531L80.4012 60.8371L80.4022 60.8348L79.4779 60.4531ZM82.8238 56.2177L82.1027 55.5248L82.1014 55.5261L82.8238 56.2177ZM43.2148 60.7863L42.5077 60.0791L42.5073 60.0795L43.2148 60.7863ZM39.0709 60.7863L39.7784 60.0795L39.778 60.0791L39.0709 60.7863ZM30.2852 52.0005L29.5781 52.7076L30.2852 52.0005ZM29.4269 49.9286H28.4269H29.4269ZM34.4291 47.8566L35.1364 47.1497L35.1362 47.1495L34.4291 47.8566ZM41.1429 54.574L40.4356 55.2809L41.1427 55.9885L41.85 55.2811L41.1429 54.574ZM59.5709 36.1423L58.8638 35.4352L58.8637 35.4353L59.5709 36.1423ZM64.5731 38.2143H65.5731H64.5731ZM37.7699 82.8118L38.4615 82.0896L38.4612 82.0893L37.7699 82.8118ZM37.2287 82.2954L36.5403 83.0207L36.5403 83.0207L37.2287 82.2954ZM82.792 37.7491L83.5145 37.0578L83.5145 37.0577L82.792 37.7491ZM78.9216 28.4552L77.9217 28.47L77.9217 28.4704L78.9216 28.4552ZM78.9212 28.4298L79.9211 28.4146V28.4144L78.9212 28.4298ZM65.5703 15.0788L65.5856 14.0789L65.5855 14.0789L65.5703 15.0788ZM65.5448 15.0784L65.5601 14.0785H65.56L65.5448 15.0784ZM56.2301 11.1882L55.5387 11.9106L55.5388 11.9107L56.2301 11.1882ZM37.7491 11.2081L37.0577 10.4855L37.0577 10.4855L37.7491 11.2081ZM28.4565 15.0784L28.4717 16.0783L28.4718 16.0783L28.4565 15.0784ZM28.4297 15.0788L28.4145 14.0789L28.4144 14.0789L28.4297 15.0788ZM15.0784 28.4552L14.0785 28.4399V28.44L15.0784 28.4552ZM11.1882 37.7699L10.4657 37.0785L10.4656 37.0786L11.1882 37.7699ZM11.2081 56.2509L10.4855 56.9422L10.4855 56.9423L11.2081 56.2509ZM15.0784 65.5448L14.0785 65.56V65.5601L15.0784 65.5448ZM15.0788 65.5703L14.0789 65.5855L14.0789 65.5856L15.0788 65.5703ZM28.4298 78.9212L28.4144 79.9211H28.4146L28.4298 78.9212ZM28.4552 78.9216L28.4704 77.9217L28.47 77.9217L28.4552 78.9216ZM56.2509 82.792L56.9422 83.5145L56.9423 83.5145L56.2509 82.792ZM65.5448 78.9216L65.53 77.9217L65.5296 77.9217L65.5448 78.9216ZM65.5702 78.9212L65.5854 79.9211H65.5856L65.5702 78.9212ZM78.9212 65.5702L79.9211 65.5856V65.5854L78.9212 65.5702ZM78.9216 65.5448L77.9217 65.5296L77.9217 65.53L78.9216 65.5448ZM82.8119 56.2301L82.0895 55.5386L82.0893 55.5388L82.8119 56.2301ZM56.9105 10.4552C54.452 8.09283 51.2928 5 47 5V7C50.3508 7 52.9316 9.40557 55.5248 11.8973L56.9105 10.4552ZM47 5C42.7072 5 39.5512 8.0932 37.09 10.4547L38.4747 11.8978C41.0726 9.4052 43.6492 7 47 7V5ZM17.3 17.3C14.1505 20.4496 14.1499 24.9508 14.0788 28.4234L16.0784 28.4643C16.1536 24.7912 16.2336 21.1949 18.7142 18.7142L17.3 17.3ZM10.4552 37.0895C8.09283 39.548 5 42.7072 5 47H7C7 43.6492 9.40557 41.0684 11.8973 38.4752L10.4552 37.0895ZM5 47C5 51.2928 8.0932 54.4488 10.4547 56.91L11.8978 55.5253C9.4052 52.9274 7 50.3508 7 47H5ZM37.0895 83.5448C39.548 85.9072 42.7072 89 47 89V87C43.6492 87 41.0684 84.5944 38.4752 82.1027L37.0895 83.5448ZM47 89C51.2928 89 54.4488 85.9068 56.91 83.5453L55.5253 82.1022C52.9274 84.5948 50.3508 87 47 87V89ZM83.5448 56.9105C85.9072 54.452 89 51.2928 89 47H87C87 50.3508 84.5944 52.9316 82.1027 55.5248L83.5448 56.9105ZM89 47C89 42.7072 85.9068 39.5512 83.5453 37.09L82.1022 38.4747C84.5948 41.0726 87 43.6492 87 47H89ZM63.0077 39.5791L42.5077 60.0791L43.9219 61.4934L64.4219 40.9934L63.0077 39.5791ZM42.5073 60.0795C42.3282 60.2589 42.1155 60.4011 41.8814 60.4982L42.6473 62.3457C43.1242 62.148 43.5575 61.8582 43.9223 61.493L42.5073 60.0795ZM41.8814 60.4982C41.6473 60.5952 41.3963 60.6452 41.1429 60.6452V62.6452C41.6591 62.6452 42.1703 62.5434 42.6473 62.3457L41.8814 60.4982ZM41.1429 60.6452C40.8894 60.6452 40.6384 60.5952 40.4043 60.4982L39.6384 62.3457C40.1154 62.5434 40.6266 62.6452 41.1429 62.6452V60.6452ZM40.4043 60.4982C40.1702 60.4011 39.9575 60.2589 39.7784 60.0795L38.3634 61.493C38.7282 61.8582 39.1615 62.148 39.6384 62.3457L40.4043 60.4982ZM39.778 60.0791L30.9923 51.2934L29.5781 52.7076L38.3638 61.4934L39.778 60.0791ZM30.9923 51.2934C30.6303 50.9314 30.4269 50.4405 30.4269 49.9286H28.4269C28.4269 50.9709 28.841 51.9706 29.5781 52.7076L30.9923 51.2934ZM30.4269 49.9286C30.4269 49.4166 30.6303 48.9257 30.9923 48.5637L29.5781 47.1495C28.841 47.8866 28.4269 48.8862 28.4269 49.9286H30.4269ZM30.9923 48.5637C31.3543 48.2017 31.8452 47.9984 32.3571 47.9984V45.9984C31.3148 45.9984 30.3151 46.4124 29.5781 47.1495L30.9923 48.5637ZM32.3571 47.9984C32.8691 47.9984 33.36 48.2017 33.722 48.5637L35.1362 47.1495C34.3992 46.4124 33.3995 45.9984 32.3571 45.9984V47.9984ZM33.7218 48.5635L40.4356 55.2809L41.8502 53.8671L35.1364 47.1497L33.7218 48.5635ZM41.85 55.2811L60.2781 36.8494L58.8637 35.4353L40.4357 53.867L41.85 55.2811ZM60.278 36.8494C60.4572 36.6702 60.67 36.528 60.9042 36.431L60.1388 34.5833C59.662 34.7808 59.2287 35.0703 58.8638 35.4352L60.278 36.8494ZM60.9042 36.431C61.1384 36.334 61.3894 36.2841 61.6429 36.2841V34.2841C61.1267 34.2841 60.6157 34.3857 60.1388 34.5833L60.9042 36.431ZM61.6429 36.2841C61.8963 36.2841 62.1473 36.334 62.3815 36.431L63.1469 34.5833C62.67 34.3857 62.159 34.2841 61.6429 34.2841V36.2841ZM62.3815 36.431C62.6157 36.528 62.8285 36.6702 63.0077 36.8494L64.4219 35.4352C64.057 35.0703 63.6237 34.7808 63.1469 34.5833L62.3815 36.431ZM63.0077 36.8494C63.1869 37.0287 63.3291 37.2414 63.4261 37.4756L65.2739 36.7103C65.0764 36.2334 64.7869 35.8002 64.4219 35.4352L63.0077 36.8494ZM63.4261 37.4756C63.5231 37.7098 63.5731 37.9608 63.5731 38.2143H65.5731C65.5731 37.6982 65.4714 37.1871 65.2739 36.7103L63.4261 37.4756ZM63.5731 38.2143C63.5731 38.4678 63.5231 38.7188 63.4261 38.9529L65.2739 39.7183C65.4714 39.2415 65.5731 38.7304 65.5731 38.2143H63.5731ZM63.4261 38.9529C63.3291 39.1871 63.1869 39.3999 63.0077 39.5791L64.4219 40.9934C64.7869 40.6284 65.0764 40.1951 65.2739 39.7183L63.4261 38.9529ZM38.4612 82.0893C38.2817 81.9175 38.0997 81.7434 37.9172 81.5701L36.5403 83.0207C36.7194 83.1907 36.8985 83.3621 37.0785 83.5344L38.4612 82.0893ZM33.1652 80.4022C34.0979 80.7873 35.2411 81.7875 36.5403 83.0207L37.9172 81.5701C36.685 80.4005 35.2699 79.1074 33.9285 78.5536L33.1652 80.4022ZM83.5463 37.091L83.5145 37.0578L82.0694 38.4404L82.1012 38.4737L83.5463 37.091ZM83.5145 37.0577C82.824 36.3361 82.1542 35.6355 81.59 34.9576C81.0188 34.2715 80.6109 33.6722 80.4025 33.1661L78.5532 33.9276C78.8788 34.7184 79.4428 35.5043 80.0527 36.2371C80.6695 36.9781 81.3898 37.7302 82.0695 38.4405L83.5145 37.0577ZM80.4012 33.1629C80.2144 32.7139 80.0921 32.0477 80.0209 31.1897C79.951 30.3459 79.9362 29.407 79.9215 28.44L77.9217 28.4704C77.9362 29.4217 77.9512 30.4313 78.0278 31.3551C78.1032 32.2647 78.2444 33.1852 78.5545 33.9309L80.4012 33.1629ZM79.9215 28.4404L79.9213 28.4291L77.9215 28.4586L77.9217 28.47L79.9215 28.4404ZM79.9213 28.4287L79.9211 28.4146L77.9213 28.4449L77.9215 28.459L79.9213 28.4287ZM79.9211 28.4144C79.8676 24.9343 79.8454 20.4455 76.7 17.3L75.2858 18.7142C77.7631 21.1916 77.8651 24.7864 77.9213 28.4451L79.9211 28.4144ZM76.7 17.3C73.5545 14.1546 69.0657 14.1324 65.5856 14.0789L65.5549 16.0787C69.2136 16.1349 72.8084 16.2369 75.2858 18.7143L76.7 17.3ZM65.5855 14.0789L65.5715 14.0787L65.5409 16.0785L65.555 16.0787L65.5855 14.0789ZM65.5714 14.0787L65.5601 14.0785L65.5295 16.0783L65.5409 16.0785L65.5714 14.0787ZM65.56 14.0785C64.593 14.0638 63.6541 14.049 62.8103 13.9791C61.9523 13.9079 61.2861 13.7856 60.8371 13.5988L60.0691 15.4455C60.8148 15.7556 61.7353 15.8968 62.6449 15.9722C63.5687 16.0488 64.5783 16.0638 65.5296 16.0783L65.56 14.0785ZM60.8348 13.5978C60.3273 13.3883 59.7244 12.9771 59.0338 12.4017C58.3516 11.8335 57.6463 11.1592 56.9215 10.4656L55.5388 11.9107C56.2524 12.5935 57.0088 13.3179 57.7537 13.9384C58.4901 14.5518 59.2795 15.1194 60.0715 15.4464L60.8348 13.5978ZM56.9215 10.4657L56.9091 10.4538L55.5263 11.8987L55.5387 11.9106L56.9215 10.4657ZM37.091 10.4537L37.0577 10.4855L38.4404 11.9306L38.4737 11.8988L37.091 10.4537ZM37.0577 10.4855C36.3361 11.1761 35.6355 11.8458 34.9576 12.4101C34.2715 12.9812 33.6722 13.3891 33.1661 13.5975L33.9276 15.4468C34.7184 15.1212 35.5043 14.5572 36.2371 13.9473C36.9781 13.3305 37.7302 12.6102 38.4404 11.9306L37.0577 10.4855ZM33.1608 13.5997C32.717 13.7854 32.0525 13.9078 31.1932 13.979C30.3486 14.049 29.4081 14.0638 28.4413 14.0785L28.4718 16.0783C29.4229 16.0638 30.434 16.0488 31.3584 15.9722C32.2679 15.8968 33.1896 15.7557 33.9329 15.4446L33.1608 13.5997ZM28.4413 14.0785L28.4286 14.0787L28.459 16.0785L28.4717 16.0783L28.4413 14.0785ZM28.4285 14.0787L28.4145 14.0789L28.445 16.0787L28.4591 16.0785L28.4285 14.0787ZM28.4144 14.0789C24.9343 14.1324 20.4455 14.1546 17.3 17.3L18.7142 18.7142C21.1916 16.2369 24.7864 16.1349 28.4451 16.0787L28.4144 14.0789ZM14.0787 28.4286L14.0785 28.4399L16.0783 28.4705L16.0785 28.4591L14.0787 28.4286ZM14.0785 28.44C14.0638 29.407 14.049 30.3459 13.9791 31.1897C13.9079 32.0477 13.7856 32.7139 13.5988 33.1629L15.4455 33.9309C15.7556 33.1852 15.8968 32.2647 15.9722 31.3551C16.0488 30.4313 16.0638 29.4217 16.0783 28.4704L14.0785 28.44ZM13.5978 33.1652C13.3883 33.6727 12.9771 34.2755 12.4018 34.9662C11.8335 35.6484 11.1592 36.3536 10.4657 37.0785L11.9107 38.4612C12.5935 37.7476 13.3179 36.9912 13.9384 36.2463C14.5518 35.5099 15.1194 34.7205 15.4464 33.9285L13.5978 33.1652ZM10.4656 37.0786L10.4537 37.091L11.8988 38.4736L11.9108 38.4611L10.4656 37.0786ZM10.4537 56.909L10.4855 56.9422L11.9306 55.5596L11.8988 55.5264L10.4537 56.909ZM10.4855 56.9423C11.1761 57.6639 11.8458 58.3645 12.4101 59.0424C12.9812 59.7285 13.3891 60.3278 13.5975 60.8339L15.4468 60.0724C15.1212 59.2816 14.5572 58.4957 13.9473 57.7629C13.3305 57.0219 12.6102 56.2698 11.9306 55.5596L10.4855 56.9423ZM13.5988 60.8371C13.7856 61.2861 13.9079 61.9523 13.9791 62.8103C14.049 63.6541 14.0638 64.593 14.0785 65.56L16.0783 65.5296C16.0638 64.5783 16.0488 63.5687 15.9722 62.6449C15.8968 61.7353 15.7556 60.8148 15.4455 60.0691L13.5988 60.8371ZM14.0785 65.5601L14.0787 65.5714L16.0785 65.5409L16.0783 65.5295L14.0785 65.5601ZM14.0787 65.5715L14.0789 65.5855L16.0787 65.555L16.0785 65.5409L14.0787 65.5715ZM14.0789 65.5856C14.1324 69.0657 14.1546 73.5545 17.3 76.7L18.7143 75.2858C16.2369 72.8084 16.1349 69.2136 16.0787 65.5549L14.0789 65.5856ZM17.3 76.7C20.4455 79.8454 24.9343 79.8676 28.4144 79.9211L28.4451 77.9213C24.7864 77.8651 21.1916 77.7631 18.7142 75.2858L17.3 76.7ZM28.4146 79.9211L28.4287 79.9213L28.459 77.9215L28.4449 77.9213L28.4146 79.9211ZM28.4291 79.9213L28.4404 79.9215L28.47 77.9217L28.4586 77.9215L28.4291 79.9213ZM28.44 79.9215C29.407 79.9362 30.3459 79.951 31.1897 80.0209C32.0477 80.0921 32.7139 80.2144 33.1629 80.4012L33.9309 78.5545C33.1852 78.2444 32.2647 78.1032 31.3551 78.0278C30.4313 77.9512 29.4217 77.9362 28.4704 77.9217L28.44 79.9215ZM37.0782 83.5341L37.0907 83.546L38.474 82.1015L38.4615 82.0896L37.0782 83.5341ZM56.909 83.5463L56.9422 83.5145L55.5596 82.0694L55.5263 82.1012L56.909 83.5463ZM56.9423 83.5145C57.6639 82.824 58.3645 82.1542 59.0424 81.59C59.7285 81.0188 60.3278 80.6109 60.8339 80.4025L60.0724 78.5532C59.2816 78.8788 58.4957 79.4428 57.7629 80.0527C57.0219 80.6695 56.2698 81.3898 55.5595 82.0695L56.9423 83.5145ZM60.8371 80.4012C61.2861 80.2144 61.9523 80.0921 62.8103 80.0209C63.6541 79.951 64.593 79.9362 65.56 79.9215L65.5296 77.9217C64.5783 77.9362 63.5687 77.9512 62.6449 78.0278C61.7353 78.1032 60.8148 78.2444 60.0691 78.5545L60.8371 80.4012ZM65.5596 79.9215L65.5709 79.9213L65.5414 77.9215L65.53 77.9217L65.5596 79.9215ZM65.5713 79.9213L65.5854 79.9211L65.5551 77.9213L65.541 77.9215L65.5713 79.9213ZM65.5856 79.9211C69.0657 79.8676 73.5545 79.8454 76.7 76.7L75.2858 75.2858C72.8084 77.7631 69.2136 77.8651 65.5549 77.9213L65.5856 79.9211ZM76.7 76.7C79.8454 73.5545 79.8676 69.0657 79.9211 65.5856L77.9213 65.5549C77.8651 69.2136 77.7631 72.8084 75.2858 75.2858L76.7 76.7ZM79.9211 65.5854L79.9213 65.5713L77.9215 65.541L77.9213 65.5551L79.9211 65.5854ZM79.9213 65.5709L79.9215 65.5596L77.9217 65.53L77.9215 65.5414L79.9213 65.5709ZM79.9215 65.56C79.9362 64.593 79.951 63.6541 80.0209 62.8103C80.0921 61.9523 80.2144 61.2861 80.4012 60.8371L78.5545 60.0691C78.2444 60.8148 78.1032 61.7353 78.0278 62.6449C77.9512 63.5687 77.9362 64.5783 77.9217 65.5296L79.9215 65.56ZM80.4022 60.8348C80.6117 60.3273 81.0229 59.7244 81.5983 59.0338C82.1665 58.3516 82.8408 57.6463 83.5344 56.9215L82.0893 55.5388C81.4065 56.2523 80.6821 57.0088 80.0616 57.7537C79.4482 58.4901 78.8806 59.2795 78.5536 60.0715L80.4022 60.8348ZM83.5342 56.9216L83.5461 56.9092L82.1014 55.5261L82.0895 55.5386L83.5342 56.9216Z" fill="white" fill-opacity="0.7" mask="url(#path-1-inside-1_7023_10386)"/>
</g>
<defs>
<filter id="filter0_dd_7023_10386" x="0" y="0" width="94" height="94" filterUnits="userSpaceOnUse" color-interpolation-filters="sRGB">
<feFlood flood-opacity="0" result="BackgroundImageFix"/>
<feColorMatrix in="SourceAlpha" type="matrix" values="0 0 0 0 0 0 0 0 0 0 0 0 0 0 0 0 0 0 127 0" result="hardAlpha"/>
<feOffset dy="2"/>
<feGaussianBlur stdDeviation="2"/>
<feColorMatrix type="matrix" values="0 0 0 0 0 0 0 0 0 0 0 0 0 0 0 0 0 0 0.08 0"/>
<feBlend mode="normal" in2="BackgroundImageFix" result="effect1_dropShadow_7023_10386"/>
<feColorMatrix in="SourceAlpha" type="matrix" values="0 0 0 0 0 0 0 0 0 0 0 0 0 0 0 0 0 0 127 0" result="hardAlpha"/>
<feOffset/>
<feGaussianBlur stdDeviation="3"/>
<feColorMatrix type="matrix" values="0 0 0 0 0 0 0 0 0 0 0 0 0 0 0 0 0 0 0.02 0"/>
<feBlend mode="normal" in2="effect1_dropShadow_7023_10386" result="effect2_dropShadow_7023_10386"/>
<feBlend mode="normal" in="SourceGraphic" in2="effect2_dropShadow_7023_10386" result="shape"/>
</filter>
<linearGradient id="paint0_linear_7023_10386" x1="17.5" y1="18.5" x2="76.5" y2="75.5" gradientUnits="userSpaceOnUse">
<stop stop-color="#F4F4F5"/>
<stop offset="1" stop-color="white" stop-opacity="0.3"/>
</linearGradient>
</defs>
</svg>
