<svg width="22" height="22" viewBox="0 0 22 22" fill="none" xmlns="http://www.w3.org/2000/svg">
<path d="M15.4845 9.19875L9.98446 14.6988C9.91149 14.7718 9.82484 14.8298 9.72945 14.8693C9.63407 14.9088 9.53183 14.9292 9.42857 14.9292C9.32532 14.9292 9.22307 14.9088 9.12769 14.8693C9.03231 14.8298 8.94565 14.7718 8.87268 14.6988L6.51554 12.3416C6.3681 12.1942 6.28528 11.9942 6.28528 11.7857C6.28528 11.5772 6.3681 11.3773 6.51554 11.2298C6.66297 11.0824 6.86293 10.9996 7.07143 10.9996C7.27993 10.9996 7.47989 11.0824 7.62732 11.2298L9.42857 13.0321L14.3727 8.08696C14.4457 8.01396 14.5323 7.95606 14.6277 7.91655C14.7231 7.87704 14.8253 7.85671 14.9286 7.85671C15.0318 7.85671 15.134 7.87704 15.2294 7.91655C15.3248 7.95606 15.4115 8.01396 15.4845 8.08696C15.5575 8.15996 15.6154 8.24663 15.6549 8.34201C15.6944 8.43739 15.7147 8.53962 15.7147 8.64286C15.7147 8.7461 15.6944 8.84832 15.6549 8.9437C15.6154 9.03908 15.5575 9.12575 15.4845 9.19875Z" fill="white"/>
<path fill-rule="evenodd" clip-rule="evenodd" d="M20.6112 8.52696L20.6027 8.51805C20.2351 8.13388 19.8568 7.73856 19.7136 7.39062C19.5803 7.0701 19.5722 6.53924 19.5643 6.02456L19.5643 6.02152L19.5642 6.01774C19.5495 5.06009 19.5328 3.9757 18.7786 3.22143C18.0243 2.46715 16.9399 2.45049 15.9823 2.43577L15.9785 2.43571L15.9754 2.43567C15.4608 2.42783 14.9299 2.41974 14.6094 2.28643C14.2607 2.14247 13.8623 1.76122 13.4764 1.39195L13.473 1.38875C12.7954 0.737589 12.0254 0 11 0C9.97464 0 9.20562 0.737589 8.52696 1.38875L8.51805 1.39728C8.13388 1.76489 7.73856 2.14316 7.39062 2.28643C7.07213 2.41971 6.53949 2.42782 6.02492 2.43566L6.02152 2.43571L6.01774 2.43577C5.06009 2.45049 3.9757 2.46715 3.22143 3.22143C2.46616 3.9767 2.45536 5.06295 2.43571 6.02152L2.43567 6.02456C2.42783 6.53924 2.41974 7.0701 2.28643 7.39062C2.14247 7.73926 1.76122 8.1377 1.39195 8.52362L1.38875 8.52696C0.737589 9.20464 0 9.97464 0 11C0 12.0254 0.737589 12.7944 1.38875 13.473L1.39728 13.482C1.76489 13.8661 2.14316 14.2614 2.28643 14.6094C2.41974 14.9299 2.42783 15.4608 2.43567 15.9754L2.43571 15.9785L2.43577 15.9823C2.45049 16.9399 2.46715 18.0243 3.22143 18.7786C3.9757 19.5328 5.06009 19.5495 6.01774 19.5642L6.02152 19.5643L6.02456 19.5643C6.53924 19.5722 7.0701 19.5803 7.39062 19.7136C7.69568 19.8395 8.03887 20.1472 8.37844 20.4695C8.42695 20.5155 8.47539 20.5619 8.52363 20.6081L8.52696 20.6112C9.20464 21.2624 9.97464 22 11 22C12.0254 22 12.7944 21.2624 13.473 20.6112L13.4819 20.6027C13.8661 20.2351 14.2614 19.8568 14.6094 19.7136C14.9299 19.5803 15.4608 19.5722 15.9754 19.5643L15.9785 19.5643L15.9823 19.5642C16.9399 19.5495 18.0243 19.5328 18.7786 18.7786C19.5328 18.0243 19.5495 16.9399 19.5642 15.9823L19.5643 15.9785L19.5643 15.9754C19.5722 15.4608 19.5803 14.9299 19.7136 14.6094C19.8575 14.2607 20.2388 13.8623 20.6081 13.4764L20.6112 13.473C21.2624 12.7954 22 12.0254 22 11C22 9.97464 21.2624 9.20562 20.6112 8.52696ZM9.98446 14.6988L15.4845 9.19875C15.5575 9.12575 15.6154 9.03908 15.6549 8.9437C15.6944 8.84832 15.7147 8.7461 15.7147 8.64286C15.7147 8.53962 15.6944 8.43739 15.6549 8.34201C15.6154 8.24663 15.5575 8.15996 15.4845 8.08696C15.4115 8.01396 15.3248 7.95606 15.2294 7.91655C15.134 7.87704 15.0318 7.85671 14.9286 7.85671C14.8253 7.85671 14.7231 7.87704 14.6277 7.91655C14.5323 7.95606 14.4457 8.01396 14.3727 8.08696L9.42857 13.0321L7.62732 11.2298C7.47989 11.0824 7.27993 10.9996 7.07143 10.9996C6.86293 10.9996 6.66297 11.0824 6.51554 11.2298C6.3681 11.3773 6.28528 11.5772 6.28528 11.7857C6.28528 11.9942 6.3681 12.1942 6.51554 12.3416L8.87268 14.6988C8.94565 14.7718 9.03231 14.8298 9.12769 14.8693C9.22307 14.9088 9.32532 14.9292 9.42857 14.9292C9.53183 14.9292 9.63407 14.9088 9.72945 14.8693C9.82484 14.8298 9.91149 14.7718 9.98446 14.6988Z" fill="url(#paint0_linear_2187_9220)"/>
<defs>
<linearGradient id="paint0_linear_2187_9220" x1="11" y1="23.0934" x2="11" y2="-0.960841" gradientUnits="userSpaceOnUse">
<stop offset="0.385778" stop-color="#F55668"/>
<stop offset="1" stop-color="#FCC747"/>
<stop offset="1" stop-color="#FCC747"/>
</linearGradient>
</defs>
</svg>
