<svg width="37" height="41" viewBox="0 0 37 41" fill="none" xmlns="http://www.w3.org/2000/svg">
<path d="M26.968 23.0492C26.5262 22.5875 26.0691 22.1117 25.8969 21.6934C25.7375 21.3102 25.7281 20.675 25.7187 20.0598C25.7012 18.916 25.6824 17.6199 24.7812 16.7187C23.8801 15.8176 22.584 15.7988 21.4402 15.7812C20.825 15.7719 20.1898 15.7625 19.8066 15.6031C19.3895 15.4309 18.9125 14.9738 18.4508 14.532C17.6422 13.7551 16.7234 12.875 15.5 12.875C14.2766 12.875 13.359 13.7551 12.5492 14.532C12.0875 14.9738 11.6117 15.4309 11.1934 15.6031C10.8125 15.7625 10.175 15.7719 9.55977 15.7812C8.41602 15.7988 7.11992 15.8176 6.21875 16.7187C5.31758 17.6199 5.30469 18.916 5.28125 20.0598C5.27187 20.675 5.2625 21.3102 5.10312 21.6934C4.93086 22.1105 4.47383 22.5875 4.03203 23.0492C3.25508 23.8578 2.375 24.7766 2.375 26C2.375 27.2234 3.25508 28.141 4.03203 28.9508C4.47383 29.4125 4.93086 29.8883 5.10312 30.3066C5.2625 30.6898 5.27187 31.325 5.28125 31.9402C5.29883 33.084 5.31758 34.3801 6.21875 35.2812C7.11992 36.1824 8.41602 36.2012 9.55977 36.2187C10.175 36.2281 10.8102 36.2375 11.1934 36.3969C11.6105 36.5691 12.0875 37.0262 12.5492 37.468C13.3578 38.2449 14.2766 39.125 15.5 39.125C16.7234 39.125 17.641 38.2449 18.4508 37.468C18.9125 37.0262 19.3883 36.5691 19.8066 36.3969C20.1898 36.2375 20.825 36.2281 21.4402 36.2187C22.584 36.2012 23.8801 36.1824 24.7812 35.2812C25.6824 34.3801 25.7012 33.084 25.7187 31.9402C25.7281 31.325 25.7375 30.6898 25.8969 30.3066C26.0691 29.8895 26.5262 29.4125 26.968 28.9508C27.7449 28.1422 28.625 27.2234 28.625 26C28.625 24.7766 27.7449 23.859 26.968 23.0492ZM20.8508 23.8508L14.2883 30.4133C14.2012 30.5004 14.0978 30.5696 13.984 30.6168C13.8702 30.664 13.7482 30.6882 13.625 30.6882C13.5018 30.6882 13.3798 30.664 13.266 30.6168C13.1522 30.5696 13.0488 30.5004 12.9617 30.4133L10.1492 27.6008C9.97331 27.4249 9.87448 27.1863 9.87448 26.9375C9.87448 26.6887 9.97331 26.4501 10.1492 26.2742C10.3251 26.0983 10.5637 25.9995 10.8125 25.9995C11.0613 25.9995 11.2999 26.0983 11.4758 26.2742L13.625 28.4246L19.5242 22.5242C19.6113 22.4371 19.7147 22.368 19.8285 22.3209C19.9423 22.2737 20.0643 22.2495 20.1875 22.2495C20.3107 22.2495 20.4327 22.2737 20.5465 22.3209C20.6603 22.368 20.7637 22.4371 20.8508 22.5242C20.9379 22.6113 21.007 22.7147 21.0541 22.8285C21.1013 22.9423 21.1255 23.0643 21.1255 23.1875C21.1255 23.3107 21.1013 23.4327 21.0541 23.5465C21.007 23.6603 20.9379 23.7637 20.8508 23.8508Z" fill="url(#paint0_linear_2_23)"/>
<path d="M26.3936 6.9546C26.5111 6.49902 26.6342 6.04343 26.7591 5.58995C26.8356 5.31073 26.9382 5.04199 26.968 4.74597C26.9755 4.66409 26.94 4.56752 26.9979 4.50454V4.50663C27.0091 4.42056 27.0053 4.33238 27.0314 4.2526C27.1284 3.95238 27.19 3.62487 27.3149 3.34984C27.3205 3.33934 27.3056 3.31624 27.3112 3.29945C27.3373 3.21967 27.4436 2.94254 27.494 2.75779C27.6115 2.3316 27.742 1.90961 27.9994 1.53801C28.0404 1.47922 28.4396 0.601654 28.8368 0.759113C29.2509 0.92287 29.1073 1.85923 29.0551 1.9684C28.932 2.23083 28.751 2.47227 28.738 2.77669C28.7193 3.22177 28.5384 3.60387 28.4358 4.01536C28.3445 4.38487 28.2102 4.73967 28.1225 5.11128C28.0386 5.45979 28.0255 5.83559 27.9174 6.1736C27.8241 6.46542 27.6301 6.71946 27.5033 6.99868C27.4735 7.06377 27.522 7.17714 27.4921 7.25062C27.4679 7.31151 27.4324 7.41438 27.3783 7.46267C27.356 7.48366 27.328 7.50465 27.3336 7.53614C27.3634 7.68311 26.9624 8.61946 26.4812 8.42421C26.0094 8.23106 26.291 7.34929 26.3936 6.9546Z" fill="#1D2021"/>
<path d="M30.4677 10.4744C30.8455 10.2641 31.227 10.0585 31.6085 9.85582C31.843 9.73064 32.0883 9.63423 32.3024 9.459C32.3611 9.40988 32.4004 9.31523 32.4807 9.32066L32.4793 9.32208C32.5433 9.27321 32.5985 9.21054 32.6684 9.17832C32.9305 9.05598 33.1866 8.88579 33.4512 8.80369C33.4619 8.80124 33.4669 8.77326 33.4817 8.76656C33.5516 8.73433 33.8049 8.63533 33.9599 8.55231C34.3185 8.36189 34.6831 8.18516 35.1003 8.14771C35.1666 8.14205 36.011 7.88042 36.1763 8.31649C36.3487 8.77076 35.6384 9.28416 35.5316 9.31458C35.2766 9.38971 34.9962 9.40268 34.788 9.59751C34.4839 9.88273 34.1114 9.99072 33.7726 10.1836C33.4688 10.3574 33.1457 10.4856 32.8431 10.6639C32.5581 10.8297 32.3032 11.0728 32.0087 11.2114C31.7546 11.3311 31.4571 11.3418 31.1886 11.4252C31.1258 11.4444 31.0843 11.5612 31.016 11.5861C30.9597 11.6071 30.8684 11.6472 30.8002 11.6349C30.7714 11.6305 30.7387 11.6215 30.7219 11.6474C30.6458 11.7715 29.7616 12.0713 29.5644 11.54C29.3721 11.0179 30.1399 10.6559 30.4677 10.4744Z" fill="#1D2021"/>
<path d="M28.7328 8.35233C29.165 7.85636 29.6041 7.36367 30.0407 6.8721C30.3082 6.57112 30.5978 6.29212 30.8321 5.95019C30.8954 5.85732 30.9291 5.72514 31.0298 5.67292L31.0274 5.67403C31.0964 5.577 31.1573 5.46925 31.2378 5.38458C31.542 5.06692 31.8308 4.69859 32.1456 4.42252C32.1576 4.41227 32.16 4.37919 32.1766 4.36203C32.2571 4.27736 32.5555 3.99115 32.7342 3.79141C33.1466 3.33164 33.5679 2.88064 34.0807 2.54177C34.1614 2.48908 35.1669 1.60107 35.4552 1.94867C35.7551 2.30863 34.9646 3.36782 34.8386 3.47638C34.5348 3.73945 34.1857 3.95584 33.9622 4.31206C33.6359 4.83353 33.1916 5.21652 32.8053 5.66599C32.4583 6.07038 32.0801 6.43933 31.7348 6.84454C31.4108 7.22568 31.1369 7.66728 30.7941 8.02809C30.4987 8.33855 30.1301 8.56383 29.8097 8.84406C29.734 8.91052 29.7048 9.06308 29.6237 9.13838C29.5578 9.20039 29.4519 9.30942 29.3628 9.34671C29.3244 9.36257 29.2833 9.37486 29.268 9.41544C29.1973 9.6029 28.1487 10.557 27.8025 10.1316C27.4672 9.72047 28.3572 8.78412 28.7328 8.35233Z" fill="#1D2021"/>
<defs>
<linearGradient id="paint0_linear_2_23" x1="15.5" y1="40.4296" x2="15.5" y2="11.7285" gradientUnits="userSpaceOnUse">
<stop offset="0.385778" stop-color="#F55668"/>
<stop offset="1" stop-color="#FCC747"/>
</linearGradient>
</defs>
</svg>
