<svg width="11" height="14" viewBox="0 0 11 14" fill="none" xmlns="http://www.w3.org/2000/svg">
<path d="M0.393568 6.9546C0.511069 6.49902 0.634163 6.04344 0.759125 5.58995C0.835594 5.31073 0.938179 5.042 0.96802 4.74597C0.975481 4.66409 0.940045 4.56752 0.997863 4.50454V4.50663C1.00905 4.42056 1.00532 4.33238 1.03143 4.2526C1.12842 3.95238 1.18996 3.62487 1.31493 3.34984C1.32052 3.33934 1.3056 3.31624 1.3112 3.29945C1.33731 3.21967 1.44362 2.94254 1.49397 2.75779C1.61147 2.3316 1.74203 1.90961 1.99942 1.53801C2.04045 1.47922 2.43958 0.601654 2.83684 0.759113C3.2509 0.92287 3.10729 1.85923 3.05506 1.9684C2.93197 2.23083 2.75105 2.47227 2.73799 2.77669C2.71934 3.22177 2.53843 3.60387 2.43585 4.01536C2.34446 4.38487 2.21017 4.73967 2.12251 5.11128C2.03859 5.45979 2.02553 5.83559 1.91735 6.1736C1.8241 6.46542 1.63013 6.71946 1.5033 6.99868C1.47346 7.06377 1.52195 7.17714 1.49211 7.25062C1.46787 7.31151 1.43243 7.41438 1.37834 7.46267C1.35596 7.48366 1.32798 7.50465 1.33358 7.53614C1.36342 7.68311 0.962422 8.61946 0.481227 8.42421C0.00935832 8.23106 0.290988 7.34929 0.393568 6.9546Z" fill="#1D2021"/>
<path d="M4.46746 10.4744C4.84524 10.2641 5.22679 10.0585 5.60824 9.85582C5.84279 9.73064 6.0881 9.63423 6.30215 9.459C6.36082 9.40988 6.40014 9.31523 6.48045 9.32066L6.47907 9.32208C6.54301 9.27321 6.59825 9.21054 6.66814 9.17832C6.9303 9.05598 7.18639 8.88579 7.45095 8.80369C7.46161 8.80124 7.46666 8.77326 7.48144 8.76656C7.55133 8.73433 7.80466 8.63533 7.95969 8.55231C8.31822 8.36189 8.68282 8.18516 9.1001 8.14771C9.16632 8.14205 10.0108 7.88042 10.176 8.31649C10.3485 8.77076 9.63817 9.28416 9.53139 9.31458C9.27634 9.38971 8.99597 9.40268 8.78777 9.59751C8.48365 9.88273 8.11116 9.99072 7.77234 10.1836C7.46858 10.3574 7.14546 10.4856 6.84285 10.6639C6.55788 10.8297 6.30292 11.0728 6.00845 11.2114C5.75431 11.3311 5.45688 11.3418 5.18831 11.4252C5.12552 11.4444 5.08403 11.5612 5.01574 11.5861C4.95948 11.6071 4.86816 11.6472 4.79999 11.6349C4.77112 11.6305 4.73847 11.6215 4.72162 11.6474C4.64553 11.7715 3.76132 12.0713 3.56412 11.54C3.37184 11.0179 4.13964 10.6559 4.46746 10.4744Z" fill="#1D2021"/>
<path d="M2.73306 8.35233C3.16525 7.85636 3.60431 7.36367 4.04092 6.8721C4.30841 6.57112 4.598 6.29212 4.8323 5.95019C4.89569 5.85732 4.92932 5.72514 5.03006 5.67292L5.02761 5.67403C5.09662 5.577 5.15751 5.46925 5.23807 5.38458C5.54224 5.06692 5.83106 4.69859 6.14589 4.42252C6.15786 4.41227 6.16021 4.37919 6.17681 4.36203C6.25736 4.27736 6.55575 3.99115 6.7344 3.79141C7.14687 3.33164 7.56818 2.88064 8.08094 2.54177C8.16159 2.48908 9.16711 1.60107 9.45545 1.94867C9.75534 2.30863 8.96488 3.36782 8.83884 3.47638C8.535 3.73945 8.18595 3.95584 7.96247 4.31206C7.63615 4.83353 7.19186 5.21652 6.80556 5.66599C6.45856 6.07038 6.08035 6.43933 5.73506 6.84454C5.41101 7.22568 5.1371 7.66728 4.79437 8.02809C4.49899 8.33855 4.13038 8.56383 3.80993 8.84406C3.73422 8.91052 3.70506 9.06308 3.62398 9.13838C3.55805 9.20039 3.4521 9.30942 3.36307 9.34671C3.32467 9.36257 3.28356 9.37486 3.26825 9.41544C3.19756 9.6029 2.1489 10.557 1.80277 10.1316C1.46746 9.72047 2.35749 8.78412 2.73306 8.35233Z" fill="#1D2021"/>
</svg>
