<svg width="24" height="25" viewBox="0 0 24 25" fill="none" xmlns="http://www.w3.org/2000/svg">
<mask id="mask0_1_793" style="mask-type:alpha" maskUnits="userSpaceOnUse" x="0" y="0" width="24" height="25">
<rect y="0.5" width="24" height="24" fill="#D9D9D9"/>
</mask>
<g mask="url(#mask0_1_793)">
<path d="M9 16.5H11V13.5H14V11.5H11V8.5H9V11.5H6V13.5H9V16.5ZM4 20.5C3.45 20.5 2.97917 20.3042 2.5875 19.9125C2.19583 19.5208 2 19.05 2 18.5V6.5C2 5.95 2.19583 5.47917 2.5875 5.0875C2.97917 4.69583 3.45 4.5 4 4.5H16C16.55 4.5 17.0208 4.69583 17.4125 5.0875C17.8042 5.47917 18 5.95 18 6.5V11L22 7V18L18 14V18.5C18 19.05 17.8042 19.5208 17.4125 19.9125C17.0208 20.3042 16.55 20.5 16 20.5H4ZM4 18.5H16V6.5H4V18.5Z" fill="#4B5563"/>
</g>
</svg>
