<svg width="18" height="18" viewBox="0 0 18 18" fill="none" xmlns="http://www.w3.org/2000/svg">
<g id="visibility_off">
<mask id="mask0_549_1792" style="mask-type:alpha" maskUnits="userSpaceOnUse" x="0" y="0" width="18" height="18">
<rect id="Bounding box" width="18" height="18" fill="#D9D9D9"/>
</mask>
<g mask="url(#mask0_549_1792)">
<path id="visibility_off_2" d="M12.075 9.97498L10.9875 8.88748C11.1 8.29998 10.9313 7.74998 10.4813 7.23748C10.0312 6.72498 9.45 6.52498 8.7375 6.63748L7.65 5.54998C7.8625 5.44998 8.07812 5.37498 8.29688 5.32498C8.51562 5.27498 8.75 5.24998 9 5.24998C9.9375 5.24998 10.7344 5.5781 11.3906 6.23435C12.0469 6.8906 12.375 7.68748 12.375 8.62498C12.375 8.87498 12.35 9.10935 12.3 9.3281C12.25 9.54685 12.175 9.76248 12.075 9.97498ZM14.475 12.3375L13.3875 11.2875C13.8625 10.925 14.2844 10.5281 14.6531 10.0969C15.0219 9.6656 15.3375 9.17498 15.6 8.62498C14.975 7.36248 14.0781 6.35935 12.9094 5.6156C11.7406 4.87185 10.4375 4.49998 9 4.49998C8.6375 4.49998 8.28125 4.52498 7.93125 4.57498C7.58125 4.62498 7.2375 4.69998 6.9 4.79998L5.7375 3.63748C6.25 3.42498 6.775 3.2656 7.3125 3.15935C7.85 3.0531 8.4125 2.99998 9 2.99998C10.8875 2.99998 12.5688 3.52185 14.0438 4.5656C15.5188 5.60935 16.5875 6.96248 17.25 8.62498C16.9625 9.36248 16.5844 10.0469 16.1156 10.6781C15.6469 11.3094 15.1 11.8625 14.475 12.3375ZM14.85 16.95L11.7 13.8375C11.2625 13.975 10.8219 14.0781 10.3781 14.1469C9.93438 14.2156 9.475 14.25 9 14.25C7.1125 14.25 5.43125 13.7281 3.95625 12.6844C2.48125 11.6406 1.4125 10.2875 0.75 8.62498C1.0125 7.96248 1.34375 7.34685 1.74375 6.7781C2.14375 6.20935 2.6 5.69998 3.1125 5.24998L1.05 3.14998L2.1 2.09998L15.9 15.9L14.85 16.95ZM4.1625 6.29998C3.8 6.62498 3.46875 6.98123 3.16875 7.36873C2.86875 7.75623 2.6125 8.17498 2.4 8.62498C3.025 9.88748 3.92188 10.8906 5.09062 11.6344C6.25938 12.3781 7.5625 12.75 9 12.75C9.25 12.75 9.49375 12.7344 9.73125 12.7031C9.96875 12.6719 10.2125 12.6375 10.4625 12.6L9.7875 11.8875C9.65 11.925 9.51875 11.9531 9.39375 11.9719C9.26875 11.9906 9.1375 12 9 12C8.0625 12 7.26562 11.6719 6.60938 11.0156C5.95312 10.3594 5.625 9.56248 5.625 8.62498C5.625 8.48748 5.63438 8.35623 5.65312 8.23123C5.67188 8.10623 5.7 7.97498 5.7375 7.83748L4.1625 6.29998Z" fill="#111827"/>
</g>
</g>
</svg>
