<svg width="22" height="22" viewBox="0 0 22 22" fill="none" xmlns="http://www.w3.org/2000/svg">
<path d="M15.6586 20.7464L15.658 20.7461L10.9962 17.9185L6.34468 20.7459L6.34387 20.7464C6.04918 20.924 5.70868 21.0108 5.36493 20.9959C5.02119 20.9811 4.68945 20.8652 4.41121 20.6628C4.13296 20.4604 3.92054 20.1805 3.80051 19.8581C3.68052 19.5357 3.65819 19.1851 3.7363 18.8502C3.73632 18.8501 3.73634 18.85 3.73637 18.8499L4.96728 13.5083L0.852172 9.91225C0.851933 9.91205 0.851694 9.91184 0.851455 9.91163C0.590867 9.68664 0.402428 9.38978 0.309734 9.0582C0.216955 8.72631 0.224229 8.37442 0.330642 8.04665C0.437056 7.71889 0.637872 7.42983 0.907908 7.21574C1.1779 7.00168 1.50507 6.87209 1.8484 6.84321C1.84846 6.8432 1.84852 6.8432 1.84858 6.84319L7.27176 6.37347L9.3891 1.32323C9.52173 1.00537 9.74544 0.733859 10.0321 0.542882C10.3187 0.351905 10.6554 0.25 10.9998 0.25C11.3442 0.25 11.681 0.351904 11.9676 0.542882C12.2542 0.733831 12.4779 1.00529 12.6105 1.32309C12.6105 1.32314 12.6105 1.32318 12.6105 1.32323L14.7343 6.37346L20.1558 6.84319C20.1558 6.8432 20.1559 6.8432 20.156 6.84321C20.4993 6.8721 20.8265 7.00169 21.0964 7.21574C21.3665 7.42983 21.5673 7.71889 21.6737 8.04665C21.7801 8.37442 21.7874 8.72631 21.6946 9.0582C21.6018 9.39008 21.4131 9.68719 21.1522 9.91225L21.0818 9.97294H21.078L17.0333 13.5028L18.2661 18.8499L15.6586 20.7464ZM15.6586 20.7464C15.9533 20.924 16.2938 21.0108 16.6375 20.9959C16.9813 20.9811 17.313 20.8652 17.5913 20.6628C17.8695 20.4604 18.0819 20.1805 18.202 19.8581C18.3219 19.5358 18.3443 19.1854 18.2662 18.8505L15.6586 20.7464Z" fill="white" stroke="#D1D5DB" stroke-width="0.5"/>
</svg>
