<svg width="46" height="36" viewBox="0 0 46 36" fill="none" xmlns="http://www.w3.org/2000/svg">
<path d="M26.3493 32.2892C26.3493 34.219 24.7862 35.7776 22.8509 35.7776C20.9156 35.7776 19.3525 34.219 19.3525 32.2892C19.3525 30.3594 20.9156 28.8008 22.8509 28.8008C24.8606 28.8008 26.3493 30.3594 26.3493 32.2892Z" fill="#111827"/>
<path d="M15.9288 27.8342C19.7249 23.8262 25.9774 23.6778 29.8479 27.6858C31.6343 29.4671 34.3884 26.7209 32.602 24.9396C27.2427 19.5214 18.3851 19.5956 13.1003 25.088C11.4628 26.8693 14.2168 29.6155 15.9288 27.8342Z" fill="#111827"/>
<path d="M4.16816 11.6548C9.45295 7.12724 15.7798 4.23259 22.851 4.23259C29.8478 4.23259 36.7701 6.68191 41.906 11.5063C43.7669 13.2134 46.5209 10.4672 44.6601 8.76012C38.7798 3.2677 30.8898 0.298828 22.851 0.298828C14.7377 0.298828 7.51767 3.63881 1.41411 8.90857C-0.521164 10.5414 2.23288 13.2877 4.16816 11.6548Z" fill="#111827"/>
<path d="M8.78294 20.6347C12.3558 16.8494 17.2684 14.4001 22.5532 14.3259C27.9124 14.1774 33.1228 16.4041 36.9189 20.2636C38.7053 22.045 41.4593 19.2988 39.6729 17.5174C35.2069 12.9899 28.9545 10.3179 22.5532 10.3921C16.3007 10.5406 10.2716 13.2868 6.0289 17.8885C4.31692 19.6699 7.07097 22.4903 8.78294 20.6347Z" fill="#111827"/>
</svg>
